<svg xmlns="http://www.w3.org/2000/svg" fill="none" viewBox="0 0 158 52" height="52" width="158">
<path fill="#EEEFF1" d="M51.0776 36.2577C49.9233 36.2577 48.8519 36.051 47.8614 35.6376C46.8708 35.2242 46.0102 34.6214 45.2786 33.8294C44.5469 33.0374 43.9698 32.0601 43.5482 30.8977C43.1255 29.7352 42.9158 28.4049 42.9158 26.9068C42.9158 25.4087 43.144 24.0784 43.6004 22.9159C44.0567 21.7535 44.6636 20.7762 45.4218 19.9842C46.1791 19.1922 47.0581 18.5935 48.0568 18.1893C49.0556 17.7851 50.0973 17.5825 51.182 17.5825C51.8532 17.5825 52.4642 17.6255 53.0157 17.7115C53.5662 17.7974 54.0492 17.9049 54.4627 18.0348C54.8761 18.1638 55.2291 18.2927 55.5218 18.4226C55.8144 18.5516 56.0385 18.6682 56.193 18.7716L55.6251 20.2953C55.1943 20.0374 54.6479 19.7836 53.9848 19.5329C53.3217 19.2832 52.5 19.1584 51.5176 19.1584C50.3981 19.1584 49.4209 19.3477 48.5859 19.7263C47.7508 20.1049 47.0489 20.6391 46.4809 21.3278C45.913 22.0165 45.4863 22.8351 45.2018 23.7817C44.9173 24.7292 44.7751 25.7791 44.7751 26.9334C44.7751 28.0877 44.9173 29.1939 45.2018 30.1496C45.4863 31.1054 45.9038 31.9189 46.4543 32.5912C47.0049 33.2625 47.6813 33.7793 48.4825 34.1415C49.2837 34.5027 50.2006 34.6839 51.2331 34.6839C52.37 34.6839 53.3207 34.5764 54.0871 34.3605C54.8535 34.1456 55.4348 33.9256 55.8308 33.7015L56.322 35.1996C56.2012 35.2856 55.9945 35.3848 55.7019 35.4964C55.4092 35.6089 55.0388 35.7245 54.5916 35.8453C54.1434 35.966 53.6266 36.0653 53.0413 36.1421C52.456 36.2198 51.8011 36.2587 51.0776 36.2587V36.2577Z"></path>
<path fill="#EEEFF1" d="M63.0253 22.2049C63.9033 22.2049 64.6482 22.3297 65.2602 22.5794C65.8711 22.8291 66.3664 23.1739 66.745 23.6129C67.1236 24.0519 67.3989 24.5728 67.5718 25.1755C67.7437 25.7782 67.8297 26.4331 67.8297 27.1382V35.5589C67.6578 35.6101 67.407 35.6664 67.0806 35.7267C66.7532 35.7871 66.3745 35.8516 65.9437 35.9201C65.5129 35.9887 65.035 36.045 64.5101 36.088C63.9841 36.1309 63.4469 36.1524 62.8953 36.1524C62.1893 36.1524 61.5395 36.0746 60.9449 35.9201C60.3504 35.7656 59.8346 35.52 59.3946 35.1844C58.9556 34.8487 58.6108 34.4179 58.3611 33.893C58.1114 33.368 57.9866 32.7264 57.9866 31.9682C57.9866 31.2099 58.1247 30.6246 58.4 30.1088C58.6753 29.5921 59.0631 29.1664 59.5625 28.8297C60.0618 28.4941 60.6564 28.2485 61.345 28.094C62.0337 27.9394 62.7828 27.8617 63.5922 27.8617C63.8327 27.8617 64.0875 27.875 64.3546 27.9006C64.6216 27.9261 64.8795 27.9609 65.1292 28.0039C65.3789 28.0469 65.5938 28.0899 65.7749 28.1328C65.956 28.1758 66.0809 28.2147 66.1494 28.2495V27.4227C66.1494 26.9581 66.1146 26.5058 66.0461 26.0668C65.9775 25.6278 65.8261 25.2318 65.5938 24.8788C65.3615 24.5257 65.034 24.2423 64.6124 24.0263C64.1898 23.8115 63.6352 23.703 62.9465 23.703C61.9652 23.703 61.2325 23.7715 60.7505 23.9097C60.2685 24.0478 59.9155 24.1594 59.6914 24.2453L59.4591 22.7728C59.7518 22.6357 60.2041 22.5057 60.815 22.385C61.4259 22.2653 62.1626 22.2039 63.0232 22.2039L63.0253 22.2049ZM63.1798 34.6553C63.8337 34.6553 64.4067 34.6338 64.8979 34.5909C65.3891 34.5479 65.8056 34.4916 66.1504 34.423V29.722C65.9611 29.6361 65.6593 29.546 65.2458 29.4508C64.8324 29.3567 64.2645 29.3086 63.541 29.3086C63.1276 29.3086 62.6968 29.3393 62.2496 29.3987C61.8014 29.459 61.388 29.588 61.0094 29.7865C60.6308 29.985 60.3207 30.2562 60.0792 30.6C59.8377 30.9449 59.718 31.4013 59.718 31.9692C59.718 32.4685 59.7999 32.8901 59.9636 33.235C60.1273 33.5799 60.3596 33.8551 60.6615 34.0618C60.9623 34.2685 61.3246 34.42 61.7462 34.5141C62.1678 34.6093 62.6456 34.6564 63.1798 34.6564V34.6553Z"></path>
<path fill="#EEEFF1" d="M71.4595 22.9781C71.9589 22.8409 72.6302 22.6854 73.4744 22.5135C74.3176 22.3416 75.3511 22.2556 76.574 22.2556C77.5901 22.2556 78.4374 22.4019 79.1179 22.6946C79.7984 22.9873 80.3407 23.4048 80.7449 23.9471C81.1491 24.4895 81.4377 25.1403 81.6106 25.8975C81.7825 26.6558 81.8685 27.4908 81.8685 28.4036V35.8685H80.1893V28.9459C80.1893 27.9994 80.1248 27.1981 79.9959 26.5432C79.8669 25.8893 79.651 25.3552 79.3502 24.9418C79.0483 24.5284 78.6523 24.2316 78.1621 24.0505C77.6709 23.8694 77.0559 23.7793 76.3151 23.7793C75.523 23.7793 74.8384 23.8223 74.2613 23.9082C73.6842 23.9942 73.3096 24.072 73.1377 24.1405V35.8675H71.4585V22.9781H71.4595Z"></path>
<path fill="#EEEFF1" d="M96.9384 29.2032C96.9384 30.2541 96.7879 31.2099 96.4861 32.0705C96.1842 32.9321 95.7626 33.6638 95.2202 34.2665C94.6779 34.8692 94.0363 35.3389 93.2954 35.6745C92.5546 36.0102 91.7369 36.178 90.8415 36.178C89.9462 36.178 89.1275 36.0102 88.3877 35.6745C87.6468 35.3389 87.0062 34.8702 86.4629 34.2665C85.9205 33.6638 85.4979 32.9321 85.197 32.0705C84.8952 31.2099 84.7448 30.2541 84.7448 29.2032C84.7448 28.1523 84.8952 27.1975 85.197 26.3359C85.4979 25.4753 85.9205 24.7386 86.4629 24.1277C87.0052 23.5167 87.6468 23.043 88.3877 22.7073C89.1275 22.3717 89.9462 22.2039 90.8415 22.2039C91.7369 22.2039 92.5546 22.3717 93.2954 22.7073C94.0353 23.043 94.6769 23.5167 95.2202 24.1277C95.7626 24.7396 96.1842 25.4753 96.4861 26.3359C96.7869 27.1975 96.9384 28.1533 96.9384 29.2032ZM95.1558 29.2032C95.1558 27.5332 94.7679 26.2029 93.9933 25.2123C93.2187 24.2218 92.1677 23.7275 90.8415 23.7275C89.5154 23.7275 88.4655 24.2228 87.6898 25.2123C86.9152 26.2029 86.5273 27.5332 86.5273 29.2032C86.5273 30.8732 86.9152 32.1994 87.6898 33.1818C88.4644 34.1631 89.5154 34.6543 90.8415 34.6543C92.1677 34.6543 93.2176 34.1631 93.9933 33.1818C94.7679 32.2004 95.1558 30.8743 95.1558 29.2032Z"></path>
<path fill="#EEEFF1" d="M99.9611 22.9781C100.46 22.8409 101.132 22.6854 101.976 22.5135C102.819 22.3416 103.853 22.2556 105.076 22.2556C106.092 22.2556 106.939 22.4019 107.619 22.6946C108.3 22.9873 108.842 23.4048 109.247 23.9471C109.651 24.4895 109.939 25.1403 110.112 25.8975C110.284 26.6558 110.37 27.4908 110.37 28.4036V35.8685H108.691V28.9459C108.691 27.9994 108.626 27.1981 108.497 26.5432C108.369 25.8893 108.153 25.3552 107.852 24.9418C107.55 24.5284 107.154 24.2316 106.664 24.0505C106.173 23.8694 105.558 23.7793 104.817 23.7793C104.025 23.7793 103.34 23.8223 102.763 23.9082C102.186 23.9942 101.811 24.072 101.639 24.1405V35.8675H99.9601V22.9781H99.9611Z"></path>
<path fill="#EEEFF1" d="M115.993 18.4845C115.993 18.8805 115.872 19.1947 115.632 19.427C115.39 19.6593 115.097 19.7759 114.754 19.7759C114.41 19.7759 114.116 19.6593 113.876 19.427C113.634 19.1947 113.514 18.8805 113.514 18.4845C113.514 18.0885 113.635 17.7743 113.876 17.5421C114.116 17.3098 114.409 17.1931 114.754 17.1931C115.098 17.1931 115.39 17.3098 115.632 17.5421C115.873 17.7743 115.993 18.0885 115.993 18.4845ZM115.605 35.8693H113.926V22.5143H115.605V35.8693Z"></path>
<path fill="#EEEFF1" d="M124.898 36.1534C123.865 36.1534 122.952 35.9897 122.16 35.6623C121.368 35.3348 120.709 34.8661 120.184 34.2542C119.658 33.6433 119.258 32.9106 118.982 32.0582C118.707 31.2058 118.569 30.2633 118.569 29.2298C118.569 28.1963 118.711 27.2242 118.996 26.3625C119.28 25.5019 119.688 24.7611 120.223 24.141C120.756 23.5208 121.402 23.043 122.16 22.7073C122.917 22.3717 123.769 22.2039 124.717 22.2039C125.44 22.2039 126.116 22.2642 126.745 22.385C127.373 22.5057 127.859 22.6602 128.204 22.8496L127.765 24.2965C127.42 24.1246 127.034 23.9864 126.603 23.8831C126.172 23.7797 125.596 23.7286 124.872 23.7286C123.392 23.7286 122.267 24.2064 121.502 25.1622C120.735 26.118 120.353 27.4738 120.353 29.2308C120.353 30.0229 120.439 30.7504 120.61 31.4135C120.782 32.0766 121.063 32.6446 121.45 33.1183C121.837 33.5921 122.337 33.9626 122.948 34.2286C123.559 34.4957 124.304 34.6287 125.182 34.6287C125.905 34.6287 126.512 34.5469 127.003 34.3831C127.494 34.2194 127.851 34.0772 128.075 33.9564L128.437 35.4034C128.127 35.5753 127.639 35.7441 126.977 35.9068C126.314 36.0706 125.622 36.1524 124.898 36.1524V36.1534Z"></path>
<path fill="#EEEFF1" d="M135.006 22.2049C135.884 22.2049 136.629 22.3297 137.24 22.5794C137.851 22.8291 138.346 23.1739 138.726 23.6129C139.104 24.0519 139.38 24.5728 139.553 25.1755C139.725 25.7782 139.811 26.4331 139.811 27.1382V35.5589C139.639 35.6101 139.388 35.6664 139.061 35.7267C138.734 35.7871 138.355 35.8516 137.925 35.9201C137.494 35.9887 137.016 36.045 136.491 36.088C135.966 36.1309 135.428 36.1524 134.876 36.1524C134.17 36.1524 133.52 36.0746 132.926 35.9201C132.331 35.7656 131.815 35.52 131.375 35.1844C130.936 34.8487 130.592 34.4179 130.342 33.893C130.092 33.368 129.967 32.7264 129.967 31.9682C129.967 31.2099 130.105 30.6246 130.381 30.1088C130.656 29.5921 131.044 29.1664 131.543 28.8297C132.043 28.4941 132.637 28.2485 133.326 28.094C134.015 27.9394 134.764 27.8617 135.573 27.8617C135.814 27.8617 136.067 27.875 136.335 27.9006C136.602 27.9261 136.86 27.9609 137.11 28.0039C137.36 28.0469 137.575 28.0899 137.756 28.1328C137.937 28.1758 138.062 28.2147 138.13 28.2495V27.4227C138.13 26.9581 138.095 26.5058 138.027 26.0668C137.958 25.6278 137.807 25.2318 137.575 24.8788C137.342 24.5257 137.015 24.2423 136.593 24.0263C136.171 23.8115 135.616 23.703 134.927 23.703C133.946 23.703 133.213 23.7715 132.731 23.9097C132.249 24.0478 131.895 24.1594 131.672 24.2453L131.44 22.7728C131.733 22.6357 132.185 22.5057 132.796 22.385C133.407 22.2653 134.143 22.2039 135.004 22.2039L135.006 22.2049ZM135.161 34.6553C135.815 34.6553 136.388 34.6338 136.879 34.5909C137.37 34.5479 137.786 34.4916 138.131 34.423V29.722C137.942 29.6361 137.64 29.546 137.228 29.4508C136.814 29.3567 136.246 29.3086 135.523 29.3086C135.109 29.3086 134.679 29.3393 134.231 29.3987C133.783 29.459 133.37 29.588 132.991 29.7865C132.613 29.985 132.303 30.2562 132.061 30.6C131.82 30.9449 131.7 31.4013 131.7 31.9692C131.7 32.4685 131.782 32.8901 131.945 33.235C132.109 33.5799 132.341 33.8551 132.643 34.0618C132.944 34.2685 133.306 34.42 133.728 34.5141C134.15 34.6093 134.628 34.6564 135.162 34.6564L135.161 34.6553Z"></path>
<path fill="#EEEFF1" d="M146.767 36.1026C146.199 36.0852 145.703 36.0126 145.282 35.8826C144.859 35.7537 144.507 35.5552 144.223 35.2881C143.938 35.021 143.723 34.6772 143.577 34.2546C143.431 33.833 143.357 33.3029 143.357 32.6664V16.134L145.036 15.824V32.6142C145.036 33.0276 145.075 33.3592 145.153 33.6089C145.231 33.8586 145.346 34.0571 145.502 34.2034C145.656 34.3497 145.859 34.4582 146.109 34.5268C146.358 34.5953 146.655 34.6557 147 34.7079L146.768 36.1026H146.767Z"></path>
<path fill="#EEEFF1" d="M11 0H36.8311V40.9319H11V0ZM28.0638 22.8245C29.5405 22.8245 30.7377 21.6274 30.7377 20.1507C30.7377 18.6739 29.5405 17.4768 28.0638 17.4768C26.5871 17.4768 25.3899 18.6739 25.3899 20.1507C25.3899 21.6274 26.5871 22.8245 28.0638 22.8245ZM16.9233 28.689C18.4 28.689 19.5972 27.4919 19.5972 26.0151C19.5972 24.5384 18.4 23.3413 16.9233 23.3413C15.4465 23.3413 14.2494 24.5384 14.2494 26.0151C14.2494 27.4919 15.4465 28.689 16.9233 28.689ZM18.5057 29.5123C19.4103 31.256 21.0209 32.487 22.9468 32.8994L22.9478 32.9004C23.1637 32.9465 23.3837 32.9823 23.6037 33.0069C23.6222 33.8183 23.8954 34.5971 24.3866 35.2428C23.7511 35.2469 23.1126 35.1814 22.4873 35.0473C19.6374 34.4364 17.3146 32.4829 16.2196 29.7937C16.9912 29.9359 17.7924 29.8367 18.5057 29.5123ZM27.4552 35.5848C28.9319 35.5848 30.129 34.3876 30.129 32.9109C30.129 31.4342 28.9319 30.237 27.4552 30.237C25.9784 30.237 24.7813 31.4342 24.7813 32.9109C24.7813 34.3876 25.9784 35.5848 27.4552 35.5848ZM31.1777 31.9349L31.1769 31.9358H31.178L31.1777 31.9349ZM31.1777 31.9349C32.0092 30.8872 32.5943 29.6484 32.8766 28.3308C33.3688 26.0345 32.9094 23.6246 31.6159 21.6701C31.3079 22.3956 30.785 23.0096 30.1117 23.4312C30.8331 24.7912 31.0531 26.3609 30.7298 27.8713C30.5711 28.6101 30.2918 29.307 29.8978 29.9435C30.5269 30.459 30.9709 31.1535 31.1777 31.9349ZM16.7147 22.1822C16.7822 22.1781 16.8508 22.1771 16.9183 22.1771C17.1885 22.1771 17.4586 22.2057 17.7257 22.263C18.1616 22.3562 18.572 22.5219 18.9465 22.7542C20.1509 21.0228 22.0931 19.9831 24.1981 19.9453C24.2093 19.7437 24.2359 19.5411 24.2789 19.3436C24.4017 18.7705 24.6524 18.2354 25.0095 17.7769C21.647 17.5109 18.3786 19.2464 16.7147 22.1822Z" clip-rule="evenodd" fill-rule="evenodd"></path>
</svg>
