<svg xmlns="http://www.w3.org/2000/svg" fill="none" viewBox="0 0 360 630"><g clip-path="url(#background-sm_svg__a)"><path fill="#040406" d="M0 0h360v630H0z"/><g filter="url(#background-sm_svg__b)" opacity=".18"><ellipse cx="4.632" cy="-129.591" fill="url(#background-sm_svg__c)" rx="467.36" ry="243.322" transform="rotate(-45.321 4.632 -129.591)"/></g><g filter="url(#background-sm_svg__d)" opacity=".23"><ellipse cx="130.232" cy="-12.189" fill="url(#background-sm_svg__e)" rx="169.363" ry="74.959" transform="rotate(115.313 130.232 -12.19)"/></g><g filter="url(#background-sm_svg__f)" opacity=".07"><path fill="#EA8667" d="M-150.338 325.185C25.88 493.129 337.807 462.414 546.369 256.581s234.782-508.84 58.563-676.784C428.714-588.147 375.179-295.886 166.617-90.053-41.945 115.781-326.556 157.241-150.338 325.185"/></g><g filter="url(#background-sm_svg__g)" opacity=".17" style="mix-blend-mode:plus-lighter"><ellipse cx="176.223" cy="71.068" fill="#FFC187" rx="176.223" ry="71.068" transform="matrix(.77026 -.63772 .60184 .79861 207.609 -29.712)"/></g><g filter="url(#background-sm_svg__h)" opacity=".16" style="mix-blend-mode:plus-lighter"><ellipse cx="215.793" cy="88.126" fill="#FFB23F" rx="215.793" ry="88.126" transform="matrix(.77026 -.63772 .60184 .79861 113.969 88.641)"/></g><g filter="url(#background-sm_svg__i)" opacity=".5" style="mix-blend-mode:color-dodge"><path fill="#B3753F" d="M-93.933-273.646c-34.666 68.708 19.056 165.689 119.99 216.615 100.934 50.925 210.86 36.51 245.525-32.197 34.666-68.708-75.25-63.794-176.184-114.72-100.934-50.925-154.665-138.405-189.33-69.698"/></g></g><defs><filter id="background-sm_svg__b" width="1361.3" height="1366.11" x="-676.019" y="-812.644" color-interpolation-filters="sRGB" filterUnits="userSpaceOnUse"><feFlood flood-opacity="0" result="BackgroundImageFix"/><feBlend in="SourceGraphic" in2="BackgroundImageFix" result="shape"/><feGaussianBlur result="effect1_foregroundBlur_17329_9628" stdDeviation="154.599"/></filter><filter id="background-sm_svg__d" width="497.019" height="611.58" x="-118.275" y="-317.979" color-interpolation-filters="sRGB" filterUnits="userSpaceOnUse"><feFlood flood-opacity="0" result="BackgroundImageFix"/><feBlend in="SourceGraphic" in2="BackgroundImageFix" result="shape"/><feGaussianBlur result="effect1_foregroundBlur_17329_9628" stdDeviation="74.669"/></filter><filter id="background-sm_svg__f" width="1412.34" height="1388.92" x="-448.051" y="-712.794" color-interpolation-filters="sRGB" filterUnits="userSpaceOnUse"><feFlood flood-opacity="0" result="BackgroundImageFix"/><feBlend in="SourceGraphic" in2="BackgroundImageFix" result="shape"/><feGaussianBlur result="effect1_foregroundBlur_17329_9628" stdDeviation="121.303"/></filter><filter id="background-sm_svg__g" width="420.473" height="387.617" x="175.885" y="-279.146" color-interpolation-filters="sRGB" filterUnits="userSpaceOnUse"><feFlood flood-opacity="0" result="BackgroundImageFix"/><feBlend in="SourceGraphic" in2="BackgroundImageFix" result="shape"/><feGaussianBlur result="effect1_foregroundBlur_17329_9628" stdDeviation="33.94"/></filter><filter id="background-sm_svg__h" width="607.826" height="567.982" x="29.314" y="-262.588" color-interpolation-filters="sRGB" filterUnits="userSpaceOnUse"><feFlood flood-opacity="0" result="BackgroundImageFix"/><feBlend in="SourceGraphic" in2="BackgroundImageFix" result="shape"/><feGaussianBlur result="effect1_foregroundBlur_17329_9628" stdDeviation="64.695"/></filter><filter id="background-sm_svg__i" width="654.094" height="543.9" x="-240.223" y="-434.714" color-interpolation-filters="sRGB" filterUnits="userSpaceOnUse"><feFlood flood-opacity="0" result="BackgroundImageFix"/><feBlend in="SourceGraphic" in2="BackgroundImageFix" result="shape"/><feGaussianBlur result="effect1_foregroundBlur_17329_9628" stdDeviation="67.881"/></filter><radialGradient id="background-sm_svg__c" cx="0" cy="0" r="1" gradientTransform="rotate(84.043 74.224 -62.225)scale(343.617 666.328)" gradientUnits="userSpaceOnUse"><stop stop-color="#5B59B3"/><stop offset="1" stop-color="#5962B3" stop-opacity="0"/></radialGradient><radialGradient id="background-sm_svg__e" cx="0" cy="0" r="1" gradientTransform="rotate(83.002 72.004 67.503)scale(106.075 240.968)" gradientUnits="userSpaceOnUse"><stop stop-color="#7659B3"/><stop offset="1" stop-color="#7659B3" stop-opacity="0"/></radialGradient><clipPath id="background-sm_svg__a"><path fill="#fff" d="M0 0h360v630H0z"/></clipPath></defs></svg>