<svg xmlns="http://www.w3.org/2000/svg" fill="none" viewBox="0 0 100 20"><g fill="#5E616E" stroke="#191D26" stroke-width=".667" clip-path="url(#arrows_svg__a)"><path d="M12.333 8.333h3.333v3.333h-3.333zM8.333 8.333h3.333v3.333H8.333zM8.333 4.333h3.333v3.333H8.333zM4.333 4.333h3.333v3.333H4.333zM4.333 16.333h3.333v3.333H4.333zM.333 16.333h3.333v3.333H.333zM4.333.333h3.333v3.333H4.333zM4.333 12.333h3.333v3.333H4.333zM.333.333h3.333v3.333H.333zM8.333 12.333h3.333v3.333H8.333z"/></g><g fill="#9194A1" stroke="#1B1F28" stroke-width=".667" clip-path="url(#arrows_svg__b)"><path d="M40.333 8.333h3.333v3.333h-3.333zM36.333 8.333h3.333v3.333h-3.333zM36.333 4.333h3.333v3.333h-3.333zM32.333 4.333h3.333v3.333h-3.333zM32.333 16.333h3.333v3.333h-3.333zM28.333 16.333h3.333v3.333h-3.333zM32.333.333h3.333v3.333h-3.333zM32.333 12.333h3.333v3.333h-3.333zM28.333.333h3.333v3.333h-3.333zM36.333 12.333h3.333v3.333h-3.333z"/></g><g fill="#C7C9D1" stroke="#1D1F2B" stroke-width=".667" clip-path="url(#arrows_svg__c)"><path d="M68.333 8.333h3.333v3.333h-3.333zM64.333 8.333h3.333v3.333h-3.333zM64.333 4.333h3.333v3.333h-3.333zM60.333 4.333h3.333v3.333h-3.333zM60.333 16.333h3.333v3.333h-3.333zM56.333 16.333h3.333v3.333h-3.333zM60.333.333h3.333v3.333h-3.333zM60.333 12.333h3.333v3.333h-3.333zM56.333.333h3.333v3.333h-3.333zM64.333 12.333h3.333v3.333h-3.333z"/></g><g fill="#fff" stroke="#20212E" stroke-width=".667" clip-path="url(#arrows_svg__d)"><path d="M96.333 8.333h3.333v3.333h-3.333zM92.333 8.333h3.333v3.333h-3.333zM92.333 4.333h3.333v3.333h-3.333zM88.333 4.333h3.333v3.333h-3.333zM88.333 16.333h3.333v3.333h-3.333zM84.333 16.333h3.333v3.333h-3.333zM88.333.333h3.333v3.333h-3.333zM88.333 12.333h3.333v3.333h-3.333zM84.333.333h3.333v3.333h-3.333zM92.333 12.333h3.333v3.333h-3.333z"/></g><defs><clipPath id="arrows_svg__a"><path fill="#fff" d="M0 0h16v20H0z"/></clipPath><clipPath id="arrows_svg__b"><path fill="#fff" d="M28 0h16v20H28z"/></clipPath><clipPath id="arrows_svg__c"><path fill="#fff" d="M56 0h16v20H56z"/></clipPath><clipPath id="arrows_svg__d"><path fill="#fff" d="M84 0h16v20H84z"/></clipPath></defs></svg>