<svg xmlns="http://www.w3.org/2000/svg" fill="none" viewBox="0 0 360 1007"><mask id="background-sm_svg__a" width="360" height="1053" x="0" y="-1" maskUnits="userSpaceOnUse" style="mask-type:alpha"><path fill="#040406" d="M0-1h360v1053H0z"/></mask><g mask="url(#background-sm_svg__a)"><path fill="#040406" d="M0-1h360v1059H0z"/><g filter="url(#background-sm_svg__b)" opacity=".41"><ellipse cx="160.537" cy="181.157" fill="url(#background-sm_svg__c)" rx="160.537" ry="181.157" transform="matrix(-.97917 .20303 -.3272 -.94495 460.94 989.369)"/></g><g filter="url(#background-sm_svg__d)" opacity=".32"><ellipse cx="84.655" cy="98.613" fill="url(#background-sm_svg__e)" rx="84.655" ry="98.613" transform="matrix(-.97917 .20303 -.3272 -.94495 365.364 162.312)"/></g><g opacity=".8"><path fill="url(#background-sm_svg__f)" fill-opacity=".6" d="M446.714 685.482v20.068l17.56 10.034 17.559-10.034v-20.068l-17.559-10.034z"/><path fill="url(#background-sm_svg__g)" fill-opacity=".6" d="M484.14 685.482v20.068l17.559 10.034 17.56-10.034v-20.068l-17.56-10.034z"/><path fill="url(#background-sm_svg__h)" fill-opacity=".6" d="M315.873 717.514v20.068l17.559 10.034 17.56-10.034v-20.068l-17.56-10.034z"/><path fill="url(#background-sm_svg__i)" fill-opacity=".6" d="M390.718 717.514v20.068l17.559 10.034 17.56-10.034v-20.068l-17.56-10.034z"/><path fill="url(#background-sm_svg__j)" fill-opacity=".6" d="M428.164 717.514v20.068l17.56 10.034 17.559-10.034v-20.068l-17.559-10.034z"/><path fill="url(#background-sm_svg__k)" fill-opacity=".6" d="M577.881 717.514v20.068l17.56 10.034L613 737.582v-20.068l-17.559-10.034z"/><path fill="url(#background-sm_svg__l)" fill-opacity=".6" d="M259.55 749.499v20.068l17.56 10.034 17.559-10.034v-20.068l-17.559-10.034z"/><path fill="url(#background-sm_svg__m)" fill-opacity=".6" d="M446.714 749.499v20.068l17.56 10.034 17.559-10.034v-20.068l-17.559-10.034z"/><path fill="url(#background-sm_svg__n)" fill-opacity=".6" d="M521.559 749.499v20.068l17.559 10.034 17.56-10.034v-20.068l-17.56-10.034z"/><path fill="url(#background-sm_svg__o)" fill-opacity=".6" d="M390.718 781.266v20.068l17.559 10.034 17.56-10.034v-20.068l-17.56-10.034z"/><path fill="url(#background-sm_svg__p)" fill-opacity=".6" d="M540.463 781.266v20.068l17.559 10.034 17.56-10.034v-20.068l-17.56-10.034z"/><path fill="url(#background-sm_svg__q)" fill-opacity=".6" d="M577.881 781.266v20.068l17.56 10.034L613 801.334v-20.068l-17.559-10.034z"/><path fill="url(#background-sm_svg__r)" fill-opacity=".6" d="M372.223 621.971v20.067l17.56 10.034 17.559-10.034v-20.067l-17.559-10.034z"/><path fill="url(#background-sm_svg__s)" fill-opacity=".6" d="M484.522 621.971v20.067l17.559 10.034 17.559-10.034v-20.067l-17.559-10.034z"/><path fill="url(#background-sm_svg__t)" fill-opacity=".6" d="M371.904 813.477v20.068l17.56 10.034 17.559-10.034v-20.068l-17.559-10.034z"/><path fill="url(#background-sm_svg__u)" fill-opacity=".6" d="M484.189 813.477v20.068l17.559 10.034 17.559-10.034v-20.068l-17.559-10.034z"/><path fill="url(#background-sm_svg__v)" fill-opacity=".2" d="M315.873 653.838v20.068l17.559 10.034 17.56-10.034v-20.068l-17.56-10.034z"/><path fill="url(#background-sm_svg__w)" fill-opacity=".2" d="M353.292 653.838v20.068l17.559 10.034 17.56-10.034v-20.068l-17.56-10.034z"/><path fill="url(#background-sm_svg__x)" fill-opacity=".2" d="M390.718 653.838v20.068l17.559 10.034 17.56-10.034v-20.068l-17.56-10.034z"/><path fill="url(#background-sm_svg__y)" fill-opacity=".2" d="M296.969 685.482v20.068l17.56 10.034 17.559-10.034v-20.068l-17.559-10.034z"/><path fill="url(#background-sm_svg__z)" fill-opacity=".2" d="M409.268 685.482v20.068l17.559 10.034 17.56-10.034v-20.068l-17.56-10.034z"/><path fill="url(#background-sm_svg__A)" fill-opacity=".2" d="M521.559 685.482v20.068l17.559 10.034 17.56-10.034v-20.068l-17.56-10.034z"/><path fill="url(#background-sm_svg__B)" fill-opacity=".2" d="M559.013 685.482v20.068l17.559 10.034 17.559-10.034v-20.068l-17.559-10.034z"/><path fill="url(#background-sm_svg__C)" fill-opacity=".2" d="M465.59 717.514v20.068l17.56 10.034 17.559-10.034v-20.068L483.15 707.48z"/><path fill="url(#background-sm_svg__D)" fill-opacity=".2" d="M503.009 717.514v20.068l17.56 10.034 17.559-10.034v-20.068l-17.559-10.034z"/><path fill="url(#background-sm_svg__E)" fill-opacity=".2" d="M540.463 717.514v20.068l17.559 10.034 17.56-10.034v-20.068l-17.56-10.034z"/><path fill="url(#background-sm_svg__F)" fill-opacity=".2" d="M353.618 589.76v20.068l17.559 10.034 17.56-10.034V589.76l-17.56-10.034z"/><path fill="url(#background-sm_svg__G)" fill-opacity=".2" d="M391.037 589.76v20.068l17.559 10.034 17.56-10.034V589.76l-17.56-10.034z"/><path fill="url(#background-sm_svg__H)" fill-opacity=".2" d="M428.49 589.76v20.068l17.56 10.034 17.559-10.034V589.76l-17.559-10.034z"/><path fill="url(#background-sm_svg__I)" fill-opacity=".2" d="M315.873 781.266v20.068l17.559 10.034 17.56-10.034v-20.068l-17.56-10.034z"/><path fill="url(#background-sm_svg__J)" fill-opacity=".2" d="M353.292 781.266v20.068l17.559 10.034 17.56-10.034v-20.068l-17.56-10.034z"/><path fill="url(#background-sm_svg__K)" fill-opacity=".2" d="M428.164 781.266v20.068l17.56 10.034 17.559-10.034v-20.068l-17.559-10.034z"/><path fill="url(#background-sm_svg__L)" fill-opacity=".2" d="M297.372 621.97v20.068l17.559 10.034 17.56-10.034V621.97l-17.56-10.034z"/><path fill="url(#background-sm_svg__M)" fill-opacity=".2" d="M334.797 621.97v20.068l17.56 10.034 17.559-10.034V621.97l-17.559-10.034z"/><path fill="url(#background-sm_svg__N)" fill-opacity=".2" d="M447.096 621.97v20.068l17.559 10.034 17.56-10.034V621.97l-17.56-10.034z"/><path fill="url(#background-sm_svg__O)" fill-opacity=".2" d="M446.77 813.477v20.068l17.559 10.034 17.56-10.034v-20.068l-17.56-10.034z"/><path fill="url(#background-sm_svg__P)" fill-opacity=".2" d="M521.621 813.477v20.068l17.56 10.034 17.559-10.034v-20.068l-17.559-10.034z"/><path fill="url(#background-sm_svg__Q)" fill-opacity=".2" d="M559.061 813.477v20.068l17.56 10.034 17.559-10.034v-20.068l-17.559-10.034z"/><path fill="url(#background-sm_svg__R)" fill-opacity=".06" d="M241 653.838v20.068l17.559 10.034 17.56-10.034v-20.068l-17.56-10.034z"/><path fill="url(#background-sm_svg__S)" fill-opacity=".06" d="M278.419 653.838v20.068l17.559 10.034 17.56-10.034v-20.068l-17.56-10.034z"/><path fill="url(#background-sm_svg__T)" fill-opacity=".06" d="M428.164 653.838v20.068l17.559 10.034 17.56-10.034v-20.068l-17.56-10.034z"/><path fill="url(#background-sm_svg__U)" fill-opacity=".06" d="M465.59 653.838v20.068l17.559 10.034 17.56-10.034v-20.068l-17.56-10.034z"/><path fill="url(#background-sm_svg__V)" fill-opacity=".06" d="M503.009 653.838v20.068l17.559 10.034 17.56-10.034v-20.068l-17.56-10.034z"/><path fill="url(#background-sm_svg__W)" fill-opacity=".06" d="M540.462 653.838v20.068l17.56 10.034 17.559-10.034v-20.068l-17.559-10.034z"/><path fill="url(#background-sm_svg__X)" fill-opacity=".06" d="M577.881 653.838v20.068l17.56 10.034L613 673.906v-20.068l-17.559-10.034z"/><path fill="url(#background-sm_svg__Y)" fill-opacity=".06" d="M259.55 685.482v20.068l17.559 10.034 17.56-10.034v-20.068l-17.56-10.034z"/><path fill="url(#background-sm_svg__Z)" fill-opacity=".06" d="M334.415 685.482v20.068l17.56 10.034 17.559-10.034v-20.068l-17.559-10.034z"/><path fill="url(#background-sm_svg__aa)" fill-opacity=".06" d="M371.841 685.482v20.068l17.56 10.034 17.559-10.034v-20.068l-17.559-10.034z"/><path fill="url(#background-sm_svg__ab)" fill-opacity=".06" d="M241 717.514v20.068l17.559 10.034 17.56-10.034v-20.068l-17.56-10.034z"/><path fill="url(#background-sm_svg__ac)" fill-opacity=".06" d="M278.419 717.514v20.068l17.559 10.034 17.56-10.034v-20.068l-17.56-10.034z"/><path fill="url(#background-sm_svg__ad)" fill-opacity=".06" d="M296.969 749.499v20.068l17.559 10.034 17.56-10.034v-20.068l-17.56-10.034z"/><path fill="url(#background-sm_svg__ae)" fill-opacity=".06" d="M334.415 749.499v20.068l17.56 10.034 17.559-10.034v-20.068l-17.559-10.034z"/><path fill="url(#background-sm_svg__af)" fill-opacity=".06" d="M371.841 749.499v20.068l17.56 10.034 17.559-10.034v-20.068l-17.559-10.034z"/><path fill="url(#background-sm_svg__ag)" fill-opacity=".06" d="M409.267 749.499v20.068l17.56 10.034 17.559-10.034v-20.068l-17.559-10.034z"/><path fill="url(#background-sm_svg__ah)" fill-opacity=".06" d="M484.14 749.499v20.068l17.559 10.034 17.56-10.034v-20.068l-17.56-10.034z"/><path fill="url(#background-sm_svg__ai)" fill-opacity=".06" d="M559.012 749.499v20.068l17.56 10.034 17.559-10.034v-20.068l-17.559-10.034z"/><path fill="url(#background-sm_svg__aj)" fill-opacity=".06" d="M278.752 589.76v20.068l17.559 10.034 17.56-10.034V589.76l-17.56-10.034z"/><path fill="url(#background-sm_svg__ak)" fill-opacity=".06" d="M316.192 589.76v20.068l17.559 10.034 17.56-10.034V589.76l-17.56-10.034z"/><path fill="url(#background-sm_svg__al)" fill-opacity=".06" d="M465.909 589.76v20.068l17.559 10.034 17.56-10.034V589.76l-17.56-10.034z"/><path fill="url(#background-sm_svg__am)" fill-opacity=".06" d="M503.335 589.76v20.068l17.559 10.034 17.56-10.034V589.76l-17.56-10.034z"/><path fill="url(#background-sm_svg__an)" fill-opacity=".06" d="M540.781 589.76v20.068l17.56 10.034 17.559-10.034V589.76l-17.559-10.034z"/><path fill="url(#background-sm_svg__ao)" fill-opacity=".06" d="M241 781.266v20.068l17.559 10.034 17.56-10.034v-20.068l-17.56-10.034z"/><path fill="url(#background-sm_svg__ap)" fill-opacity=".06" d="M278.419 781.266v20.068l17.559 10.034 17.56-10.034v-20.068l-17.56-10.034z"/><path fill="url(#background-sm_svg__aq)" fill-opacity=".06" d="M465.59 781.266v20.068l17.559 10.034 17.56-10.034v-20.068l-17.56-10.034z"/><path fill="url(#background-sm_svg__ar)" fill-opacity=".06" d="M503.009 781.266v20.068l17.559 10.034 17.56-10.034v-20.068l-17.56-10.034z"/><path fill="url(#background-sm_svg__as)" fill-opacity=".06" d="M259.931 621.97v20.068l17.56 10.034 17.559-10.034V621.97l-17.559-10.034z"/><path fill="url(#background-sm_svg__at)" fill-opacity=".06" d="M409.669 621.97v20.068l17.56 10.034 17.559-10.034V621.97l-17.559-10.034z"/><path fill="url(#background-sm_svg__au)" fill-opacity=".06" d="M521.94 621.97v20.068l17.56 10.034 17.559-10.034V621.97L539.5 611.936z"/><path fill="url(#background-sm_svg__av)" fill-opacity=".06" d="M559.394 621.97v20.068l17.559 10.034 17.56-10.034V621.97l-17.56-10.034z"/><path fill="url(#background-sm_svg__aw)" fill-opacity=".06" d="M259.605 813.477v20.068l17.56 10.034 17.559-10.034v-20.068l-17.559-10.034z"/><path fill="url(#background-sm_svg__ax)" fill-opacity=".06" d="M297.045 813.477v20.068l17.56 10.034 17.559-10.034v-20.068l-17.559-10.034z"/><path fill="url(#background-sm_svg__ay)" fill-opacity=".06" d="M334.471 813.477v20.068l17.559 10.034 17.56-10.034v-20.068l-17.56-10.034z"/><path fill="url(#background-sm_svg__az)" fill-opacity=".06" d="M409.336 813.477v20.068l17.56 10.034 17.559-10.034v-20.068l-17.559-10.034z"/><path fill="url(#background-sm_svg__aA)" fill-opacity=".06" d="M353.291 717.514v20.068l17.56 10.034 17.559-10.034v-20.068l-17.559-10.034z"/><g opacity=".6"><path fill="#141722" d="M278.294 717.624v20.068l17.559 10.034 17.56-10.034v-20.068l-17.56-10.034z"/><path stroke="url(#background-sm_svg__aB)" stroke-linecap="round" stroke-opacity=".36" stroke-width=".888" d="M278.294 717.624v20.068l17.559 10.034 17.56-10.034v-20.068l-17.56-10.034z"/><path stroke="url(#background-sm_svg__aC)" stroke-linecap="round" stroke-opacity=".49" stroke-width=".888" d="M278.294 717.624v20.068l17.559 10.034 17.56-10.034v-20.068l-17.56-10.034z"/></g><g opacity=".4"><path fill="#161925" d="M296.941 685.658v20.068L314.5 715.76l17.56-10.034v-20.068l-17.56-10.033z"/><path stroke="url(#background-sm_svg__aD)" stroke-linecap="round" stroke-opacity=".36" stroke-width=".888" d="M296.941 685.658v20.068L314.5 715.76l17.56-10.034v-20.068l-17.56-10.033z"/><path stroke="url(#background-sm_svg__aE)" stroke-linecap="round" stroke-opacity=".49" stroke-width=".888" d="M296.941 685.658v20.068L314.5 715.76l17.56-10.034v-20.068l-17.56-10.033z"/></g></g></g><defs><radialGradient id="background-sm_svg__c" cx="0" cy="0" r="1" gradientTransform="matrix(0 -181.157 160.537 0 160.537 181.157)" gradientUnits="userSpaceOnUse"><stop stop-color="#383D58"/><stop offset="1" stop-color="#383D58" stop-opacity="0"/></radialGradient><radialGradient id="background-sm_svg__e" cx="0" cy="0" r="1" gradientTransform="matrix(0 -98.6132 84.6549 0 84.655 98.613)" gradientUnits="userSpaceOnUse"><stop stop-color="#383D58"/><stop offset="1" stop-color="#383D58" stop-opacity="0"/></radialGradient><radialGradient id="background-sm_svg__f" cx="0" cy="0" r="1" gradientTransform="rotate(57.513 -493.474 696.52)scale(73.8577 96.4157)" gradientUnits="userSpaceOnUse"><stop stop-color="#191B27"/><stop offset="1" stop-color="#191B27" stop-opacity="0"/></radialGradient><radialGradient id="background-sm_svg__g" cx="0" cy="0" r="1" gradientTransform="rotate(57.513 -493.474 696.52)scale(73.8577 96.4157)" gradientUnits="userSpaceOnUse"><stop stop-color="#191B27"/><stop offset="1" stop-color="#191B27" stop-opacity="0"/></radialGradient><radialGradient id="background-sm_svg__h" cx="0" cy="0" r="1" gradientTransform="rotate(57.513 -493.474 696.52)scale(73.8577 96.4157)" gradientUnits="userSpaceOnUse"><stop stop-color="#191B27"/><stop offset="1" stop-color="#191B27" stop-opacity="0"/></radialGradient><radialGradient id="background-sm_svg__i" cx="0" cy="0" r="1" gradientTransform="rotate(57.513 -493.474 696.52)scale(73.8577 96.4157)" gradientUnits="userSpaceOnUse"><stop stop-color="#191B27"/><stop offset="1" stop-color="#191B27" stop-opacity="0"/></radialGradient><radialGradient id="background-sm_svg__j" cx="0" cy="0" r="1" gradientTransform="rotate(57.513 -493.474 696.52)scale(73.8577 96.4157)" gradientUnits="userSpaceOnUse"><stop stop-color="#191B27"/><stop offset="1" stop-color="#191B27" stop-opacity="0"/></radialGradient><radialGradient id="background-sm_svg__k" cx="0" cy="0" r="1" gradientTransform="rotate(57.513 -493.474 696.52)scale(73.8577 96.4157)" gradientUnits="userSpaceOnUse"><stop stop-color="#191B27"/><stop offset="1" stop-color="#191B27" stop-opacity="0"/></radialGradient><radialGradient id="background-sm_svg__l" cx="0" cy="0" r="1" gradientTransform="rotate(57.513 -493.474 696.52)scale(73.8577 96.4157)" gradientUnits="userSpaceOnUse"><stop stop-color="#191B27"/><stop offset="1" stop-color="#191B27" stop-opacity="0"/></radialGradient><radialGradient id="background-sm_svg__m" cx="0" cy="0" r="1" gradientTransform="rotate(57.513 -493.474 696.52)scale(73.8577 96.4157)" gradientUnits="userSpaceOnUse"><stop stop-color="#191B27"/><stop offset="1" stop-color="#191B27" stop-opacity="0"/></radialGradient><radialGradient id="background-sm_svg__n" cx="0" cy="0" r="1" gradientTransform="rotate(57.513 -493.474 696.52)scale(73.8577 96.4157)" gradientUnits="userSpaceOnUse"><stop stop-color="#191B27"/><stop offset="1" stop-color="#191B27" stop-opacity="0"/></radialGradient><radialGradient id="background-sm_svg__o" cx="0" cy="0" r="1" gradientTransform="rotate(57.513 -493.474 696.52)scale(73.8577 96.4157)" gradientUnits="userSpaceOnUse"><stop stop-color="#191B27"/><stop offset="1" stop-color="#191B27" stop-opacity="0"/></radialGradient><radialGradient id="background-sm_svg__p" cx="0" cy="0" r="1" gradientTransform="rotate(57.513 -493.474 696.52)scale(73.8577 96.4157)" gradientUnits="userSpaceOnUse"><stop stop-color="#191B27"/><stop offset="1" stop-color="#191B27" stop-opacity="0"/></radialGradient><radialGradient id="background-sm_svg__q" cx="0" cy="0" r="1" gradientTransform="rotate(57.513 -493.474 696.52)scale(73.8577 96.4157)" gradientUnits="userSpaceOnUse"><stop stop-color="#191B27"/><stop offset="1" stop-color="#191B27" stop-opacity="0"/></radialGradient><radialGradient id="background-sm_svg__r" cx="0" cy="0" r="1" gradientTransform="rotate(57.513 -493.474 696.52)scale(73.8577 96.4157)" gradientUnits="userSpaceOnUse"><stop stop-color="#191B27"/><stop offset="1" stop-color="#191B27" stop-opacity="0"/></radialGradient><radialGradient id="background-sm_svg__s" cx="0" cy="0" r="1" gradientTransform="rotate(57.513 -493.474 696.52)scale(73.8577 96.4157)" gradientUnits="userSpaceOnUse"><stop stop-color="#191B27"/><stop offset="1" stop-color="#191B27" stop-opacity="0"/></radialGradient><radialGradient id="background-sm_svg__t" cx="0" cy="0" r="1" gradientTransform="rotate(57.513 -493.474 696.52)scale(73.8577 96.4157)" gradientUnits="userSpaceOnUse"><stop stop-color="#191B27"/><stop offset="1" stop-color="#191B27" stop-opacity="0"/></radialGradient><radialGradient id="background-sm_svg__u" cx="0" cy="0" r="1" gradientTransform="rotate(57.513 -493.474 696.52)scale(73.8577 96.4157)" gradientUnits="userSpaceOnUse"><stop stop-color="#191B27"/><stop offset="1" stop-color="#191B27" stop-opacity="0"/></radialGradient><radialGradient id="background-sm_svg__v" cx="0" cy="0" r="1" gradientTransform="matrix(82.13564 37.29399 -26.63857 58.66832 323.58 729.79)" gradientUnits="userSpaceOnUse"><stop stop-color="#4D5269" stop-opacity=".6"/><stop offset="1" stop-color="#4D5269" stop-opacity="0"/></radialGradient><radialGradient id="background-sm_svg__w" cx="0" cy="0" r="1" gradientTransform="matrix(82.13564 37.29399 -26.63857 58.66832 323.58 729.79)" gradientUnits="userSpaceOnUse"><stop stop-color="#4D5269" stop-opacity=".6"/><stop offset="1" stop-color="#4D5269" stop-opacity="0"/></radialGradient><radialGradient id="background-sm_svg__x" cx="0" cy="0" r="1" gradientTransform="matrix(82.13564 37.29399 -26.63857 58.66832 323.58 729.79)" gradientUnits="userSpaceOnUse"><stop stop-color="#4D5269" stop-opacity=".6"/><stop offset="1" stop-color="#4D5269" stop-opacity="0"/></radialGradient><radialGradient id="background-sm_svg__y" cx="0" cy="0" r="1" gradientTransform="matrix(82.13564 37.29399 -26.63857 58.66832 323.58 729.79)" gradientUnits="userSpaceOnUse"><stop stop-color="#4D5269" stop-opacity=".6"/><stop offset="1" stop-color="#4D5269" stop-opacity="0"/></radialGradient><radialGradient id="background-sm_svg__z" cx="0" cy="0" r="1" gradientTransform="matrix(82.13564 37.29399 -26.63857 58.66832 323.58 729.79)" gradientUnits="userSpaceOnUse"><stop stop-color="#4D5269" stop-opacity=".6"/><stop offset="1" stop-color="#4D5269" stop-opacity="0"/></radialGradient><radialGradient id="background-sm_svg__A" cx="0" cy="0" r="1" gradientTransform="matrix(82.13564 37.29399 -26.63857 58.66832 323.58 729.79)" gradientUnits="userSpaceOnUse"><stop stop-color="#4D5269" stop-opacity=".6"/><stop offset="1" stop-color="#4D5269" stop-opacity="0"/></radialGradient><radialGradient id="background-sm_svg__B" cx="0" cy="0" r="1" gradientTransform="matrix(82.13564 37.29399 -26.63857 58.66832 323.58 729.79)" gradientUnits="userSpaceOnUse"><stop stop-color="#4D5269" stop-opacity=".6"/><stop offset="1" stop-color="#4D5269" stop-opacity="0"/></radialGradient><radialGradient id="background-sm_svg__C" cx="0" cy="0" r="1" gradientTransform="matrix(82.13564 37.29399 -26.63857 58.66832 323.58 729.79)" gradientUnits="userSpaceOnUse"><stop stop-color="#4D5269" stop-opacity=".6"/><stop offset="1" stop-color="#4D5269" stop-opacity="0"/></radialGradient><radialGradient id="background-sm_svg__D" cx="0" cy="0" r="1" gradientTransform="matrix(82.13564 37.29399 -26.63857 58.66832 323.58 729.79)" gradientUnits="userSpaceOnUse"><stop stop-color="#4D5269" stop-opacity=".6"/><stop offset="1" stop-color="#4D5269" stop-opacity="0"/></radialGradient><radialGradient id="background-sm_svg__E" cx="0" cy="0" r="1" gradientTransform="matrix(82.13564 37.29399 -26.63857 58.66832 323.58 729.79)" gradientUnits="userSpaceOnUse"><stop stop-color="#4D5269" stop-opacity=".6"/><stop offset="1" stop-color="#4D5269" stop-opacity="0"/></radialGradient><radialGradient id="background-sm_svg__F" cx="0" cy="0" r="1" gradientTransform="matrix(82.13564 37.29399 -26.63857 58.66832 323.58 729.79)" gradientUnits="userSpaceOnUse"><stop stop-color="#4D5269" stop-opacity=".6"/><stop offset="1" stop-color="#4D5269" stop-opacity="0"/></radialGradient><radialGradient id="background-sm_svg__G" cx="0" cy="0" r="1" gradientTransform="matrix(82.13564 37.29399 -26.63857 58.66832 323.58 729.79)" gradientUnits="userSpaceOnUse"><stop stop-color="#4D5269" stop-opacity=".6"/><stop offset="1" stop-color="#4D5269" stop-opacity="0"/></radialGradient><radialGradient id="background-sm_svg__H" cx="0" cy="0" r="1" gradientTransform="matrix(82.13564 37.29399 -26.63857 58.66832 323.58 729.79)" gradientUnits="userSpaceOnUse"><stop stop-color="#4D5269" stop-opacity=".6"/><stop offset="1" stop-color="#4D5269" stop-opacity="0"/></radialGradient><radialGradient id="background-sm_svg__I" cx="0" cy="0" r="1" gradientTransform="matrix(82.13564 37.29399 -26.63857 58.66832 323.58 729.79)" gradientUnits="userSpaceOnUse"><stop stop-color="#4D5269" stop-opacity=".6"/><stop offset="1" stop-color="#4D5269" stop-opacity="0"/></radialGradient><radialGradient id="background-sm_svg__J" cx="0" cy="0" r="1" gradientTransform="matrix(82.13564 37.29399 -26.63857 58.66832 323.58 729.79)" gradientUnits="userSpaceOnUse"><stop stop-color="#4D5269" stop-opacity=".6"/><stop offset="1" stop-color="#4D5269" stop-opacity="0"/></radialGradient><radialGradient id="background-sm_svg__K" cx="0" cy="0" r="1" gradientTransform="matrix(82.13564 37.29399 -26.63857 58.66832 323.58 729.79)" gradientUnits="userSpaceOnUse"><stop stop-color="#4D5269" stop-opacity=".6"/><stop offset="1" stop-color="#4D5269" stop-opacity="0"/></radialGradient><radialGradient id="background-sm_svg__L" cx="0" cy="0" r="1" gradientTransform="matrix(82.13564 37.29399 -26.63857 58.66832 323.58 729.79)" gradientUnits="userSpaceOnUse"><stop stop-color="#4D5269" stop-opacity=".6"/><stop offset="1" stop-color="#4D5269" stop-opacity="0"/></radialGradient><radialGradient id="background-sm_svg__M" cx="0" cy="0" r="1" gradientTransform="matrix(82.13564 37.29399 -26.63857 58.66832 323.58 729.79)" gradientUnits="userSpaceOnUse"><stop stop-color="#4D5269" stop-opacity=".6"/><stop offset="1" stop-color="#4D5269" stop-opacity="0"/></radialGradient><radialGradient id="background-sm_svg__N" cx="0" cy="0" r="1" gradientTransform="matrix(82.13564 37.29399 -26.63857 58.66832 323.58 729.79)" gradientUnits="userSpaceOnUse"><stop stop-color="#4D5269" stop-opacity=".6"/><stop offset="1" stop-color="#4D5269" stop-opacity="0"/></radialGradient><radialGradient id="background-sm_svg__O" cx="0" cy="0" r="1" gradientTransform="matrix(82.13564 37.29399 -26.63857 58.66832 323.58 729.79)" gradientUnits="userSpaceOnUse"><stop stop-color="#4D5269" stop-opacity=".6"/><stop offset="1" stop-color="#4D5269" stop-opacity="0"/></radialGradient><radialGradient id="background-sm_svg__P" cx="0" cy="0" r="1" gradientTransform="matrix(82.13564 37.29399 -26.63857 58.66832 323.58 729.79)" gradientUnits="userSpaceOnUse"><stop stop-color="#4D5269" stop-opacity=".6"/><stop offset="1" stop-color="#4D5269" stop-opacity="0"/></radialGradient><radialGradient id="background-sm_svg__Q" cx="0" cy="0" r="1" gradientTransform="matrix(82.13564 37.29399 -26.63857 58.66832 323.58 729.79)" gradientUnits="userSpaceOnUse"><stop stop-color="#4D5269" stop-opacity=".6"/><stop offset="1" stop-color="#4D5269" stop-opacity="0"/></radialGradient><radialGradient id="background-sm_svg__R" cx="0" cy="0" r="1" gradientTransform="matrix(94.12293 -81.69156 59.49286 68.54616 367.089 720.91)" gradientUnits="userSpaceOnUse"><stop stop-color="#3E475F"/><stop offset=".44" stop-color="#3B445C" stop-opacity=".378"/><stop offset="1" stop-color="#101222" stop-opacity="0"/></radialGradient><radialGradient id="background-sm_svg__S" cx="0" cy="0" r="1" gradientTransform="matrix(94.12293 -81.69156 59.49286 68.54616 367.089 720.91)" gradientUnits="userSpaceOnUse"><stop stop-color="#3E475F"/><stop offset=".44" stop-color="#3B445C" stop-opacity=".378"/><stop offset="1" stop-color="#101222" stop-opacity="0"/></radialGradient><radialGradient id="background-sm_svg__T" cx="0" cy="0" r="1" gradientTransform="matrix(94.12293 -81.69156 59.49286 68.54616 367.089 720.91)" gradientUnits="userSpaceOnUse"><stop stop-color="#3E475F"/><stop offset=".44" stop-color="#3B445C" stop-opacity=".378"/><stop offset="1" stop-color="#101222" stop-opacity="0"/></radialGradient><radialGradient id="background-sm_svg__U" cx="0" cy="0" r="1" gradientTransform="matrix(94.12293 -81.69156 59.49286 68.54616 367.089 720.91)" gradientUnits="userSpaceOnUse"><stop stop-color="#3E475F"/><stop offset=".44" stop-color="#3B445C" stop-opacity=".378"/><stop offset="1" stop-color="#101222" stop-opacity="0"/></radialGradient><radialGradient id="background-sm_svg__V" cx="0" cy="0" r="1" gradientTransform="matrix(94.12293 -81.69156 59.49286 68.54616 367.089 720.91)" gradientUnits="userSpaceOnUse"><stop stop-color="#3E475F"/><stop offset=".44" stop-color="#3B445C" stop-opacity=".378"/><stop offset="1" stop-color="#101222" stop-opacity="0"/></radialGradient><radialGradient id="background-sm_svg__W" cx="0" cy="0" r="1" gradientTransform="matrix(94.12293 -81.69156 59.49286 68.54616 367.089 720.91)" gradientUnits="userSpaceOnUse"><stop stop-color="#3E475F"/><stop offset=".44" stop-color="#3B445C" stop-opacity=".378"/><stop offset="1" stop-color="#101222" stop-opacity="0"/></radialGradient><radialGradient id="background-sm_svg__X" cx="0" cy="0" r="1" gradientTransform="matrix(94.12293 -81.69156 59.49286 68.54616 367.089 720.91)" gradientUnits="userSpaceOnUse"><stop stop-color="#3E475F"/><stop offset=".44" stop-color="#3B445C" stop-opacity=".378"/><stop offset="1" stop-color="#101222" stop-opacity="0"/></radialGradient><radialGradient id="background-sm_svg__Y" cx="0" cy="0" r="1" gradientTransform="matrix(94.12293 -81.69156 59.49286 68.54616 367.089 720.91)" gradientUnits="userSpaceOnUse"><stop stop-color="#3E475F"/><stop offset=".44" stop-color="#3B445C" stop-opacity=".378"/><stop offset="1" stop-color="#101222" stop-opacity="0"/></radialGradient><radialGradient id="background-sm_svg__Z" cx="0" cy="0" r="1" gradientTransform="matrix(94.12293 -81.69156 59.49286 68.54616 367.089 720.91)" gradientUnits="userSpaceOnUse"><stop stop-color="#3E475F"/><stop offset=".44" stop-color="#3B445C" stop-opacity=".378"/><stop offset="1" stop-color="#101222" stop-opacity="0"/></radialGradient><radialGradient id="background-sm_svg__aa" cx="0" cy="0" r="1" gradientTransform="matrix(94.12293 -81.69156 59.49286 68.54616 367.089 720.91)" gradientUnits="userSpaceOnUse"><stop stop-color="#3E475F"/><stop offset=".44" stop-color="#3B445C" stop-opacity=".378"/><stop offset="1" stop-color="#101222" stop-opacity="0"/></radialGradient><radialGradient id="background-sm_svg__ab" cx="0" cy="0" r="1" gradientTransform="matrix(94.12293 -81.69156 59.49286 68.54616 367.089 720.91)" gradientUnits="userSpaceOnUse"><stop stop-color="#3E475F"/><stop offset=".44" stop-color="#3B445C" stop-opacity=".378"/><stop offset="1" stop-color="#101222" stop-opacity="0"/></radialGradient><radialGradient id="background-sm_svg__ac" cx="0" cy="0" r="1" gradientTransform="matrix(94.12293 -81.69156 59.49286 68.54616 367.089 720.91)" gradientUnits="userSpaceOnUse"><stop stop-color="#3E475F"/><stop offset=".44" stop-color="#3B445C" stop-opacity=".378"/><stop offset="1" stop-color="#101222" stop-opacity="0"/></radialGradient><radialGradient id="background-sm_svg__ad" cx="0" cy="0" r="1" gradientTransform="matrix(94.12293 -81.69156 59.49286 68.54616 367.089 720.91)" gradientUnits="userSpaceOnUse"><stop stop-color="#3E475F"/><stop offset=".44" stop-color="#3B445C" stop-opacity=".378"/><stop offset="1" stop-color="#101222" stop-opacity="0"/></radialGradient><radialGradient id="background-sm_svg__ae" cx="0" cy="0" r="1" gradientTransform="matrix(94.12293 -81.69156 59.49286 68.54616 367.089 720.91)" gradientUnits="userSpaceOnUse"><stop stop-color="#3E475F"/><stop offset=".44" stop-color="#3B445C" stop-opacity=".378"/><stop offset="1" stop-color="#101222" stop-opacity="0"/></radialGradient><radialGradient id="background-sm_svg__af" cx="0" cy="0" r="1" gradientTransform="matrix(94.12293 -81.69156 59.49286 68.54616 367.089 720.91)" gradientUnits="userSpaceOnUse"><stop stop-color="#3E475F"/><stop offset=".44" stop-color="#3B445C" stop-opacity=".378"/><stop offset="1" stop-color="#101222" stop-opacity="0"/></radialGradient><radialGradient id="background-sm_svg__ag" cx="0" cy="0" r="1" gradientTransform="matrix(94.12293 -81.69156 59.49286 68.54616 367.089 720.91)" gradientUnits="userSpaceOnUse"><stop stop-color="#3E475F"/><stop offset=".44" stop-color="#3B445C" stop-opacity=".378"/><stop offset="1" stop-color="#101222" stop-opacity="0"/></radialGradient><radialGradient id="background-sm_svg__ah" cx="0" cy="0" r="1" gradientTransform="matrix(94.12293 -81.69156 59.49286 68.54616 367.089 720.91)" gradientUnits="userSpaceOnUse"><stop stop-color="#3E475F"/><stop offset=".44" stop-color="#3B445C" stop-opacity=".378"/><stop offset="1" stop-color="#101222" stop-opacity="0"/></radialGradient><radialGradient id="background-sm_svg__ai" cx="0" cy="0" r="1" gradientTransform="matrix(94.12293 -81.69156 59.49286 68.54616 367.089 720.91)" gradientUnits="userSpaceOnUse"><stop stop-color="#3E475F"/><stop offset=".44" stop-color="#3B445C" stop-opacity=".378"/><stop offset="1" stop-color="#101222" stop-opacity="0"/></radialGradient><radialGradient id="background-sm_svg__aj" cx="0" cy="0" r="1" gradientTransform="matrix(94.12293 -81.69156 59.49286 68.54616 367.089 720.91)" gradientUnits="userSpaceOnUse"><stop stop-color="#3E475F"/><stop offset=".44" stop-color="#3B445C" stop-opacity=".378"/><stop offset="1" stop-color="#101222" stop-opacity="0"/></radialGradient><radialGradient id="background-sm_svg__ak" cx="0" cy="0" r="1" gradientTransform="matrix(94.12293 -81.69156 59.49286 68.54616 367.089 720.91)" gradientUnits="userSpaceOnUse"><stop stop-color="#3E475F"/><stop offset=".44" stop-color="#3B445C" stop-opacity=".378"/><stop offset="1" stop-color="#101222" stop-opacity="0"/></radialGradient><radialGradient id="background-sm_svg__al" cx="0" cy="0" r="1" gradientTransform="matrix(94.12293 -81.69156 59.49286 68.54616 367.089 720.91)" gradientUnits="userSpaceOnUse"><stop stop-color="#3E475F"/><stop offset=".44" stop-color="#3B445C" stop-opacity=".378"/><stop offset="1" stop-color="#101222" stop-opacity="0"/></radialGradient><radialGradient id="background-sm_svg__am" cx="0" cy="0" r="1" gradientTransform="matrix(94.12293 -81.69156 59.49286 68.54616 367.089 720.91)" gradientUnits="userSpaceOnUse"><stop stop-color="#3E475F"/><stop offset=".44" stop-color="#3B445C" stop-opacity=".378"/><stop offset="1" stop-color="#101222" stop-opacity="0"/></radialGradient><radialGradient id="background-sm_svg__an" cx="0" cy="0" r="1" gradientTransform="matrix(94.12293 -81.69156 59.49286 68.54616 367.089 720.91)" gradientUnits="userSpaceOnUse"><stop stop-color="#3E475F"/><stop offset=".44" stop-color="#3B445C" stop-opacity=".378"/><stop offset="1" stop-color="#101222" stop-opacity="0"/></radialGradient><radialGradient id="background-sm_svg__ao" cx="0" cy="0" r="1" gradientTransform="matrix(94.12293 -81.69156 59.49286 68.54616 367.089 720.91)" gradientUnits="userSpaceOnUse"><stop stop-color="#3E475F"/><stop offset=".44" stop-color="#3B445C" stop-opacity=".378"/><stop offset="1" stop-color="#101222" stop-opacity="0"/></radialGradient><radialGradient id="background-sm_svg__ap" cx="0" cy="0" r="1" gradientTransform="matrix(94.12293 -81.69156 59.49286 68.54616 367.089 720.91)" gradientUnits="userSpaceOnUse"><stop stop-color="#3E475F"/><stop offset=".44" stop-color="#3B445C" stop-opacity=".378"/><stop offset="1" stop-color="#101222" stop-opacity="0"/></radialGradient><radialGradient id="background-sm_svg__aq" cx="0" cy="0" r="1" gradientTransform="matrix(94.12293 -81.69156 59.49286 68.54616 367.089 720.91)" gradientUnits="userSpaceOnUse"><stop stop-color="#3E475F"/><stop offset=".44" stop-color="#3B445C" stop-opacity=".378"/><stop offset="1" stop-color="#101222" stop-opacity="0"/></radialGradient><radialGradient id="background-sm_svg__ar" cx="0" cy="0" r="1" gradientTransform="matrix(94.12293 -81.69156 59.49286 68.54616 367.089 720.91)" gradientUnits="userSpaceOnUse"><stop stop-color="#3E475F"/><stop offset=".44" stop-color="#3B445C" stop-opacity=".378"/><stop offset="1" stop-color="#101222" stop-opacity="0"/></radialGradient><radialGradient id="background-sm_svg__as" cx="0" cy="0" r="1" gradientTransform="matrix(94.12293 -81.69156 59.49286 68.54616 367.089 720.91)" gradientUnits="userSpaceOnUse"><stop stop-color="#3E475F"/><stop offset=".44" stop-color="#3B445C" stop-opacity=".378"/><stop offset="1" stop-color="#101222" stop-opacity="0"/></radialGradient><radialGradient id="background-sm_svg__at" cx="0" cy="0" r="1" gradientTransform="matrix(94.12293 -81.69156 59.49286 68.54616 367.089 720.91)" gradientUnits="userSpaceOnUse"><stop stop-color="#3E475F"/><stop offset=".44" stop-color="#3B445C" stop-opacity=".378"/><stop offset="1" stop-color="#101222" stop-opacity="0"/></radialGradient><radialGradient id="background-sm_svg__au" cx="0" cy="0" r="1" gradientTransform="matrix(94.12293 -81.69156 59.49286 68.54616 367.089 720.91)" gradientUnits="userSpaceOnUse"><stop stop-color="#3E475F"/><stop offset=".44" stop-color="#3B445C" stop-opacity=".378"/><stop offset="1" stop-color="#101222" stop-opacity="0"/></radialGradient><radialGradient id="background-sm_svg__av" cx="0" cy="0" r="1" gradientTransform="matrix(94.12293 -81.69156 59.49286 68.54616 367.089 720.91)" gradientUnits="userSpaceOnUse"><stop stop-color="#3E475F"/><stop offset=".44" stop-color="#3B445C" stop-opacity=".378"/><stop offset="1" stop-color="#101222" stop-opacity="0"/></radialGradient><radialGradient id="background-sm_svg__aw" cx="0" cy="0" r="1" gradientTransform="matrix(94.12293 -81.69156 59.49286 68.54616 367.089 720.91)" gradientUnits="userSpaceOnUse"><stop stop-color="#3E475F"/><stop offset=".44" stop-color="#3B445C" stop-opacity=".378"/><stop offset="1" stop-color="#101222" stop-opacity="0"/></radialGradient><radialGradient id="background-sm_svg__ax" cx="0" cy="0" r="1" gradientTransform="matrix(94.12293 -81.69156 59.49286 68.54616 367.089 720.91)" gradientUnits="userSpaceOnUse"><stop stop-color="#3E475F"/><stop offset=".44" stop-color="#3B445C" stop-opacity=".378"/><stop offset="1" stop-color="#101222" stop-opacity="0"/></radialGradient><radialGradient id="background-sm_svg__ay" cx="0" cy="0" r="1" gradientTransform="matrix(94.12293 -81.69156 59.49286 68.54616 367.089 720.91)" gradientUnits="userSpaceOnUse"><stop stop-color="#3E475F"/><stop offset=".44" stop-color="#3B445C" stop-opacity=".378"/><stop offset="1" stop-color="#101222" stop-opacity="0"/></radialGradient><radialGradient id="background-sm_svg__az" cx="0" cy="0" r="1" gradientTransform="matrix(94.12293 -81.69156 59.49286 68.54616 367.089 720.91)" gradientUnits="userSpaceOnUse"><stop stop-color="#3E475F"/><stop offset=".44" stop-color="#3B445C" stop-opacity=".378"/><stop offset="1" stop-color="#101222" stop-opacity="0"/></radialGradient><radialGradient id="background-sm_svg__aA" cx="0" cy="0" r="1" gradientTransform="matrix(94.12293 -81.69156 59.49286 68.54616 367.089 720.91)" gradientUnits="userSpaceOnUse"><stop stop-color="#3E475F"/><stop offset=".44" stop-color="#3B445C" stop-opacity=".378"/><stop offset="1" stop-color="#101222" stop-opacity="0"/></radialGradient><radialGradient id="background-sm_svg__aB" cx="0" cy="0" r="1" gradientTransform="rotate(36.724 -936.79 776.343)scale(34.8967 39.0843)" gradientUnits="userSpaceOnUse"><stop stop-color="#ABD1FF"/><stop offset="1" stop-color="#29405C" stop-opacity="0"/></radialGradient><radialGradient id="background-sm_svg__aC" cx="0" cy="0" r="1" gradientTransform="matrix(-31.52235 -7.9916 8.95058 -35.30498 325.799 738.669)" gradientUnits="userSpaceOnUse"><stop/><stop offset="1" stop-opacity="0"/></radialGradient><radialGradient id="background-sm_svg__aD" cx="0" cy="0" r="1" gradientTransform="matrix(43.50965 17.75906 -19.89017 48.73087 274.298 680.508)" gradientUnits="userSpaceOnUse"><stop stop-color="#ABD1FF"/><stop offset="1" stop-color="#29405C" stop-opacity="0"/></radialGradient><radialGradient id="background-sm_svg__aE" cx="0" cy="0" r="1" gradientTransform="rotate(-117.553 381.488 261.352)scale(34.5532 38.6996)" gradientUnits="userSpaceOnUse"><stop/><stop offset="1" stop-opacity="0"/></radialGradient><filter id="background-sm_svg__b" width="456.088" height="468.583" x="16.426" y="616.486" color-interpolation-filters="sRGB" filterUnits="userSpaceOnUse"><feFlood flood-opacity="0" result="BackgroundImageFix"/><feBlend in="SourceGraphic" in2="BackgroundImageFix" result="shape"/><feGaussianBlur result="effect1_foregroundBlur_3749_11821" stdDeviation="30"/></filter><filter id="background-sm_svg__d" width="297.949" height="309.547" x="101.23" y="-68.46" color-interpolation-filters="sRGB" filterUnits="userSpaceOnUse"><feFlood flood-opacity="0" result="BackgroundImageFix"/><feBlend in="SourceGraphic" in2="BackgroundImageFix" result="shape"/><feGaussianBlur result="effect1_foregroundBlur_3749_11821" stdDeviation="30"/></filter></defs></svg>