<svg xmlns="http://www.w3.org/2000/svg" fill="none" viewBox="0 0 184 52" height="52" width="184">
<g clip-path="url(#clip0_7271_224917)">
<path fill="#F9FAFB" d="M29.4618 7.98535H7.26883C3.25436 7.98535 0 11.2397 0 15.2542V37.4471C0 41.4616 3.25436 44.716 7.26883 44.716H29.4618C33.4763 44.716 36.7306 41.4616 36.7306 37.4471V15.2542C36.7306 11.2397 33.4763 7.98535 29.4618 7.98535ZM23.2546 27.1778L25.5465 18.0829H30.1758L25.7355 34.6221H20.9881L18.3654 25.8344L15.7428 34.6187H10.9953L6.55337 18.0795H11.1844L13.4745 27.1744L16.0499 18.0829H20.6809L23.2546 27.1778ZM68.8049 18.5315C68.6245 18.3511 68.484 18.1349 68.3924 17.8968C68.3008 17.6587 68.2603 17.404 68.2733 17.1493C68.2597 16.8891 68.2999 16.629 68.3914 16.3851C68.4829 16.1412 68.6236 15.9187 68.8049 15.7316C69.1593 15.3941 69.6488 15.2118 70.2816 15.2118C70.8195 15.1843 71.3463 15.3712 71.7465 15.7316C71.9309 15.917 72.0744 16.1389 72.168 16.3831C72.2616 16.6272 72.3031 16.8882 72.29 17.1493C72.3026 17.405 72.2606 17.6605 72.1669 17.8988C72.0732 18.1371 71.9299 18.3528 71.7465 18.5315C71.3429 18.8848 70.8173 19.0665 70.2816 19.0378C69.6504 19.0395 69.1593 18.8707 68.8049 18.5315ZM68.5805 32.4565V20.6428H71.9558V32.4565H68.5805ZM61.3755 27.0005L63.2876 20.643H66.8065L62.9805 32.4567H59.698L57.7369 26.2208L55.7539 32.4652H52.4865L48.7146 20.643H52.2587L54.1252 26.9262L55.9429 20.643H59.5089L61.3755 27.0005ZM86.6285 15.9174H83.2734L83.265 21.5374C82.75 21.1455 82.1757 20.8384 81.5638 20.6277C80.9671 20.4185 80.3396 20.3107 79.7074 20.3088C78.4787 20.3076 77.4194 20.5754 76.5295 21.1121C75.6455 21.641 74.9352 22.4164 74.4857 23.3432C74.0003 24.351 73.7575 25.4584 73.7769 26.5768C73.7562 27.6867 73.9992 28.7856 74.4857 29.7834C74.9404 30.7005 75.6501 31.4669 76.5295 31.9909C77.4194 32.5264 78.4787 32.7942 79.7074 32.7942C80.3475 32.7932 80.9827 32.6831 81.5857 32.4685C82.1925 32.2556 82.762 31.9486 83.2734 31.5588V32.4567H86.6285V15.9174ZM83.0599 27.7212C82.9051 28.0994 82.6719 28.4404 82.3756 28.7218V28.7252C81.7802 29.2901 80.9852 29.5959 80.1647 29.5758C79.7655 29.59 79.3676 29.5242 78.9942 29.3822C78.6209 29.2401 78.2798 29.0248 77.991 28.7488C77.4284 28.1964 77.1472 27.4718 77.1472 26.5751C77.1472 25.6784 77.4284 24.9538 77.991 24.4014C78.2798 24.1254 78.6209 23.9101 78.9942 23.7681C79.3676 23.626 79.7655 23.5602 80.1647 23.5744C80.9809 23.5537 81.7733 23.8501 82.3756 24.4014C82.6698 24.6701 82.9024 24.9992 83.0574 25.3663C83.2124 25.7334 83.2861 26.1296 83.2734 26.5279C83.2874 26.9363 83.2146 27.343 83.0599 27.7212ZM98.0846 20.6429H101.46V31.8659C101.478 32.9077 101.177 33.93 100.598 34.7958C100.003 35.6623 99.1813 36.3489 98.223 36.7805C97.1559 37.2656 95.9943 37.5077 94.8223 37.4893C93.5234 37.5038 92.237 37.2337 91.0537 36.6978C89.9117 36.1701 89.1129 35.4888 88.6572 34.654L91.5381 32.9764C91.7428 33.386 92.1524 33.7235 92.7667 33.989C93.4479 34.2701 94.18 34.4069 94.9168 34.3907C95.8304 34.3907 96.5865 34.1544 97.185 33.6819C97.4683 33.4718 97.6974 33.1971 97.8533 32.8807C98.0091 32.5643 98.0873 32.2152 98.0812 31.8626V31.5554C97.5699 31.9454 97.0003 32.2523 96.3935 32.4651C95.7916 32.6801 95.1576 32.7914 94.5185 32.7942C93.2899 32.7942 92.2306 32.5264 91.3406 31.9908C90.4612 31.4669 89.7516 30.7004 89.2968 29.7834C88.8116 28.7852 88.5693 27.6864 88.5897 26.5768C88.5706 25.4586 88.8128 24.3513 89.2968 23.3432C89.7464 22.4164 90.4567 21.641 91.3406 21.1121C92.2294 20.5754 93.2887 20.3076 94.5185 20.3087C95.155 20.3146 95.786 20.4276 96.3851 20.6429C96.9962 20.854 97.5699 21.1611 98.0846 21.5525V20.6429ZM97.1884 28.7218C97.4841 28.44 97.7169 28.0989 97.8713 27.7207C98.0258 27.3426 98.0985 26.9361 98.0846 26.5278C98.0972 26.1297 98.0237 25.7336 97.869 25.3666C97.7143 24.9996 97.4821 24.6703 97.1884 24.4014C96.5832 23.8483 95.787 23.5518 94.9674 23.5744C94.5699 23.5595 94.1735 23.625 93.802 23.7671C93.4305 23.9092 93.0916 24.125 92.8055 24.4014C92.243 24.9538 91.9617 25.6784 91.9617 26.5751C91.9617 27.4718 92.243 28.1964 92.8055 28.7488C93.0916 29.0252 93.4305 29.2409 93.802 29.383C94.1735 29.5251 94.5699 29.5907 94.9674 29.5758C95.7912 29.5978 96.5901 29.2919 97.1884 28.7252V28.7218ZM114.667 23.4094C114.181 22.4831 113.45 21.7075 112.554 21.1665C111.625 20.6065 110.556 20.3183 109.471 20.3345C108.339 20.3138 107.222 20.5952 106.234 21.1496C105.305 21.6755 104.541 22.4491 104.027 23.3841C103.493 24.3529 103.22 25.444 103.235 26.5502C103.219 27.659 103.496 28.7524 104.038 29.7197C104.571 30.6604 105.356 31.4333 106.305 31.9508C107.29 32.4536 108.375 32.7297 109.481 32.7589C110.586 32.7881 111.684 32.5696 112.695 32.1195C113.555 31.7078 114.293 31.0769 114.833 30.2901L112.281 28.7712C111.991 29.1347 111.614 29.4186 111.184 29.5964C110.735 29.7984 110.247 29.903 109.755 29.9036C108.952 29.9047 108.299 29.7281 107.794 29.3737C107.245 28.961 106.827 28.3992 106.589 27.7552H115.329C115.395 27.3569 115.426 26.9538 115.424 26.5502C115.437 25.4566 115.177 24.3771 114.667 23.4094ZM111.942 24.337C112.103 24.5773 112.211 24.849 112.259 25.1342H106.541C106.577 24.6155 106.877 24.1706 107.439 23.7993C108.039 23.4201 108.738 23.2269 109.447 23.244C110.109 23.2228 110.761 23.3953 111.326 23.7402C111.571 23.8932 111.781 24.0966 111.942 24.337ZM121.861 29.1743C122.105 29.3431 122.478 29.4342 122.983 29.4342C123.331 29.4321 123.678 29.4084 124.023 29.3634V32.4569C123.235 32.5356 122.581 32.575 122.061 32.575C120.738 32.575 119.75 32.2797 119.098 31.689C118.445 31.0983 118.118 30.0238 118.117 28.4655V23.6455H116.092V20.6431H118.117V17.9057L121.493 16.7716V20.6431H123.974V23.6455H121.493V28.2529C121.494 28.6928 121.616 28.9999 121.861 29.1743ZM138.975 23.3432C138.525 22.4186 137.815 21.6455 136.931 21.1189C136.042 20.5833 134.984 20.3155 133.755 20.3155C133.051 20.3144 132.354 20.4467 131.699 20.7054C131.036 20.9669 130.421 21.3377 129.88 21.8024V15.9174H126.505V32.4567H129.88V31.3209C130.419 31.786 131.035 32.1538 131.699 32.4077C132.356 32.6585 133.052 32.7867 133.755 32.7858C134.984 32.7858 136.042 32.518 136.931 31.9824C137.811 31.459 138.521 30.6924 138.975 29.775C139.462 28.7772 139.704 27.6782 139.684 26.5684C139.702 25.4528 139.459 24.3484 138.975 23.3432ZM136.312 26.5701C136.312 27.4668 136.031 28.1913 135.468 28.7438C135.181 29.0181 134.842 29.2318 134.47 29.3722C134.099 29.5125 133.703 29.5766 133.306 29.5606C132.483 29.5849 131.684 29.2813 131.085 28.7168C130.789 28.4354 130.556 28.0943 130.401 27.7161C130.246 27.3379 130.173 26.9312 130.187 26.5228C130.175 26.1246 130.248 25.7283 130.403 25.3612C130.558 24.9942 130.791 24.665 131.085 24.3963C131.69 23.8431 132.487 23.5466 133.306 23.5694C133.704 23.5547 134.1 23.6204 134.471 23.7625C134.843 23.9046 135.182 24.1202 135.468 24.3963C136.031 24.9488 136.312 25.6733 136.312 26.5701ZM144.138 31.9727C143.195 31.4249 142.412 30.6385 141.87 29.6926C141.322 28.7433 141.033 27.6665 141.033 26.5704C141.033 25.4743 141.322 24.3975 141.87 23.4482C142.416 22.5084 143.198 21.7272 144.138 21.1816C145.086 20.6306 146.163 20.3403 147.26 20.3403C148.357 20.3403 149.434 20.6306 150.382 21.1816C151.318 21.728 152.096 22.5078 152.64 23.4448C153.188 24.3941 153.477 25.4709 153.477 26.567C153.477 27.6631 153.188 28.74 152.64 29.6892C152.098 30.6361 151.315 31.4236 150.372 31.9727C149.424 32.5237 148.347 32.814 147.25 32.814C146.153 32.814 145.076 32.5237 144.128 31.9727H144.138ZM149.275 28.5973C149.548 28.3364 149.764 28.0217 149.909 27.6731C150.054 27.3245 150.126 26.9496 150.119 26.5721C150.113 25.8094 149.808 25.0795 149.268 24.5402C148.729 24.0008 147.999 23.6953 147.236 23.6895C146.859 23.6826 146.484 23.754 146.135 23.8993C145.787 24.0445 145.472 24.2604 145.211 24.5334C144.941 24.7965 144.727 25.1116 144.582 25.4597C144.437 25.8077 144.364 26.1815 144.367 26.5586C144.37 27.3157 144.672 28.0411 145.207 28.5766C145.742 29.1121 146.467 29.4144 147.225 29.4175C147.604 29.427 147.982 29.3591 148.334 29.2178C148.687 29.0765 149.007 28.8648 149.275 28.5956V28.5973ZM155.452 29.6926C155.995 30.6385 156.777 31.4249 157.72 31.9727L157.712 31.9693C158.66 32.5203 159.737 32.8106 160.834 32.8106C161.931 32.8106 163.008 32.5203 163.956 31.9693C164.899 31.421 165.681 30.6347 166.224 29.6892C166.773 28.74 167.061 27.6631 167.061 26.567C167.061 25.4709 166.773 24.3941 166.224 23.4448C165.68 22.5077 164.901 21.7279 163.965 21.1816C163.016 20.6306 161.939 20.3403 160.842 20.3403C159.746 20.3403 158.669 20.6306 157.72 21.1816C156.78 21.7272 155.998 22.5084 155.452 23.4482C154.904 24.3975 154.615 25.4743 154.615 26.5704C154.615 27.6665 154.904 28.7433 155.452 29.6926ZM163.492 27.6731C163.346 28.0217 163.131 28.3364 162.858 28.5973L162.861 28.5956C162.593 28.8652 162.272 29.0771 161.919 29.2184C161.566 29.3598 161.187 29.4275 160.807 29.4175C160.05 29.4144 159.325 29.1121 158.79 28.5766C158.254 28.0411 157.952 27.3157 157.95 26.5586C157.946 26.1815 158.019 25.8076 158.164 25.4595C158.309 25.1114 158.523 24.7963 158.794 24.5334C159.055 24.2604 159.369 24.0445 159.718 23.8993C160.066 23.754 160.441 23.6826 160.819 23.6895C161.582 23.6953 162.311 24.0008 162.851 24.5402C163.39 25.0795 163.696 25.8094 163.701 26.5721C163.708 26.9496 163.637 27.3245 163.492 27.6731ZM181 32.4567H176.794L173.772 28.3708L172.212 30.0703V32.4567H168.837V15.9174H172.212V25.1068L176.133 20.6429H180.835L176.064 25.8393L181 32.4567Z" clip-rule="evenodd" fill-rule="evenodd"></path>
</g>
<defs>
<clipPath id="clip0_7271_224917">
<rect fill="white" height="52" width="184"></rect>
</clipPath>
</defs>
</svg>
