<svg xmlns="http://www.w3.org/2000/svg" fill="none" viewBox="0 0 24 24"><path fill="#fff" fill-rule="evenodd" d="M19.65 2.24a1 1 0 0 0-1.3 1.52L19.796 5H19c-4.411 0-6.698 3.242-8.681 6.055l-.26.367C7.912 14.452 5.933 17 2 17a1 1 0 1 0 0 2c5.067 0 7.588-3.453 9.691-6.422l.07-.1C13.932 9.415 15.642 7 19 7h.797l-1.448 1.24a1 1 0 0 0 1.302 1.52l3.5-3a1 1 0 0 0 0-1.52zM2 5a1 1 0 1 0 0 2c2.318 0 3.94.884 5.31 2.19a1 1 0 1 0 1.38-1.446C7.03 6.158 4.932 5 2 5m17.707 9.293 2.992 2.992a1 1 0 0 1 .301.712v.018a1 1 0 0 1-.293.692l-3 3a1 1 0 1 1-1.414-1.414L19.586 19H19c-2.438 0-4.233-.988-5.687-2.364a1 1 0 0 1 1.374-1.453C15.862 16.295 17.187 17 19 17h.586l-1.293-1.293a1 1 0 0 1 1.414-1.414" clip-rule="evenodd"/><path fill="url(#cross_svg__a)" fill-rule="evenodd" d="M19.65 2.24a1 1 0 0 0-1.3 1.52L19.796 5H19c-4.411 0-6.698 3.242-8.681 6.055l-.26.367C7.912 14.452 5.933 17 2 17a1 1 0 1 0 0 2c5.067 0 7.588-3.453 9.691-6.422l.07-.1C13.932 9.415 15.642 7 19 7h.797l-1.448 1.24a1 1 0 0 0 1.302 1.52l3.5-3a1 1 0 0 0 0-1.52zM2 5a1 1 0 1 0 0 2c2.318 0 3.94.884 5.31 2.19a1 1 0 1 0 1.38-1.446C7.03 6.158 4.932 5 2 5m17.707 9.293 2.992 2.992a1 1 0 0 1 .301.712v.018a1 1 0 0 1-.293.692l-3 3a1 1 0 1 1-1.414-1.414L19.586 19H19c-2.438 0-4.233-.988-5.687-2.364a1 1 0 0 1 1.374-1.453C15.862 16.295 17.187 17 19 17h.586l-1.293-1.293a1 1 0 0 1 1.414-1.414" clip-rule="evenodd"/><defs><linearGradient id="cross_svg__a" x1="12.25" x2="12.25" y1="2" y2="22" gradientUnits="userSpaceOnUse"><stop stop-color="#EFA68F"/><stop offset="1" stop-color="#E98363"/></linearGradient></defs></svg>