<svg xmlns="http://www.w3.org/2000/svg" fill="none" viewBox="0 0 50 50"><rect width="48" height="48" x="1" y="1" fill="url(#github_svg__a)" rx="24"/><rect width="48" height="48" x="1" y="1" stroke="url(#github_svg__b)" rx="24"/><path fill="#EEEFF1" fill-rule="evenodd" d="M25.01 11.984c-7.056 0-12.76 5.747-12.76 12.856a12.845 12.845 0 0 0 8.725 12.195c.634.128.866-.277.866-.617 0-.298-.02-1.32-.02-2.384-3.55.767-4.29-1.532-4.29-1.532-.57-1.49-1.415-1.873-1.415-1.873-1.162-.788.085-.788.085-.788 1.288.086 1.965 1.32 1.965 1.32 1.14 1.958 2.978 1.405 3.718 1.064.105-.83.444-1.405.803-1.724-2.831-.298-5.81-1.405-5.81-6.343 0-1.404.507-2.553 1.31-3.447-.127-.32-.571-1.64.126-3.406 0 0 1.078-.34 3.507 1.32a12.3 12.3 0 0 1 3.19-.426c1.078 0 2.176.15 3.19.426 2.43-1.66 3.508-1.32 3.508-1.32.697 1.767.253 3.087.126 3.406.824.894 1.31 2.043 1.31 3.448 0 4.938-2.978 6.023-5.83 6.342.464.404.865 1.17.865 2.384 0 1.724-.02 3.107-.02 3.533 0 .34.232.745.866.617A12.85 12.85 0 0 0 37.75 24.84c.02-7.11-5.704-12.856-12.74-12.856" clip-rule="evenodd"/><defs><linearGradient id="github_svg__a" x1="25" x2="13" y1="1" y2="49" gradientUnits="userSpaceOnUse"><stop stop-color="#142021"/><stop offset="1" stop-color="#0F1415"/></linearGradient><linearGradient id="github_svg__b" x1="40" x2="15.5" y1="-12" y2="49" gradientUnits="userSpaceOnUse"><stop stop-color="#3D6466"/><stop offset=".585" stop-color="#213336"/><stop offset="1" stop-color="#212D31"/></linearGradient></defs></svg>