<svg xmlns="http://www.w3.org/2000/svg" fill="none" viewBox="0 0 128 24"><g fill="#E3E4E9" clip-path="url(#logo_svg__a)"><path fill-rule="evenodd" d="M110.239 14.195a.174.174 0 0 1 .212.127q.105.394.357.705.305.377.791.593.503.197 1.168.197 1.042 0 1.564-.467.522-.485.521-1.168 0-.54-.323-.898-.324-.36-.917-.611-.576-.252-1.348-.485-.72-.216-1.42-.468a6 6 0 0 1-1.277-.629 2.85 2.85 0 0 1-.917-.97q-.323-.61-.323-1.527 0-1.15.557-1.959.576-.808 1.564-1.222T112.731 5q1.096 0 1.977.323.881.306 1.475.917.554.537.842 1.311a.16.16 0 0 1-.109.207l-1.917.522c-.09.024-.181-.032-.213-.12a1.34 1.34 0 0 0-.347-.519 2.2 2.2 0 0 0-.737-.449 2.4 2.4 0 0 0-.935-.18 2.4 2.4 0 0 0-.989.162 1.7 1.7 0 0 0-.719.521q-.27.341-.269.791 0 .503.305.809.306.287.809.503.504.197 1.133.395a19 19 0 0 1 1.51.503q.754.27 1.384.7.629.414 1.007 1.061.395.646.395 1.635a3.6 3.6 0 0 1-.503 1.887q-.486.844-1.474 1.348-.99.503-2.481.503-1.223 0-2.229-.36-.989-.359-1.636-1.042a3.4 3.4 0 0 1-.811-1.504.16.16 0 0 1 .113-.19zM31.771 5.289c0-.09.073-.163.163-.163h2.1c.09 0 .163.073.163.163v12.252c0 .09-.073.163-.163.163h-2.1a.163.163 0 0 1-.164-.163zm14.945-.163c.09 0 .163.073.163.163v12.252c0 .09-.073.163-.163.163H44.49a.16.16 0 0 1-.138-.076L39.2 9.45c-.088-.139-.302-.077-.302.087v8.004c0 .09-.073.163-.164.163h-2.1a.163.163 0 0 1-.163-.163V5.289c0-.09.073-.163.164-.163h2.209c.056 0 .108.029.138.076l5.17 8.18c.087.138.3.076.3-.088V5.29c0-.09.074-.163.164-.163zm13.688.22a.163.163 0 0 0-.153-.22h-2.238a.16.16 0 0 0-.155.11l-2.35 6.806a.16.16 0 0 0 0 .107l1.008 2.94c.05.146.255.148.308.003zM55.18 17.488a.163.163 0 0 1-.154.216h-1.976a.16.16 0 0 1-.154-.107L48.414 5.345a.163.163 0 0 1 .154-.22h2.238c.07 0 .132.045.154.11l2.543 7.365zm15.6-10.495c0 .09-.072.163-.163.163h-6.09a.163.163 0 0 0-.164.164v2.871c0 .09.073.164.163.164h4.473c.09 0 .164.073.164.163v1.632c0 .09-.073.163-.164.163h-4.473a.163.163 0 0 0-.163.164v3.033c0 .09.073.164.163.164h6.091c.09 0 .164.073.164.163v1.704c0 .09-.073.163-.164.163H62.1a.163.163 0 0 1-.164-.163V5.289c0-.09.073-.163.164-.163h8.517c.09 0 .164.073.164.163zm8.6.666q.522.504.522 1.348 0 .575-.234 1.006a1.5 1.5 0 0 1-.683.647q-.467.216-1.186.216h-.473a.163.163 0 0 0-.164.163v1.87q0 .043.022.081l2.689 4.633c.029.05.083.081.141.081h2.33c.128 0 .206-.14.14-.248l-2.781-4.59a.17.17 0 0 1 .09-.246q.075-.027.145-.055.863-.341 1.402-.899.54-.575.791-1.257.252-.702.252-1.402 0-1.043-.504-1.923-.484-.898-1.492-1.42-.989-.538-2.516-.538h-5.014a.163.163 0 0 0-.164.163v12.252c0 .09.074.163.164.163h2.1c.09 0 .163-.073.163-.163V7.32c0-.09.073-.164.164-.164h2.515q1.078 0 1.582.503m4.32-2.37c0-.09.073-.163.163-.163h9.884c.09 0 .163.073.163.163v1.704c0 .09-.073.163-.163.163H90.19a.163.163 0 0 0-.164.164v10.22c0 .09-.073.164-.163.164h-2.1a.163.163 0 0 1-.164-.163V7.32a.163.163 0 0 0-.163-.164h-3.574a.163.163 0 0 1-.163-.163zm16.909 1.977a.16.16 0 0 1 .154-.11h.415c.07 0 .132.044.155.11l1.85 5.297a.163.163 0 0 1-.154.218h-2.083a.16.16 0 0 0-.153.108l-.61 1.704a.164.164 0 0 0 .154.218h3.516c.069 0 .131.044.154.11l.934 2.674c.023.065.085.11.155.11h2.15a.164.164 0 0 0 .154-.22l-4.395-12.251a.16.16 0 0 0-.154-.108h-3.779a.16.16 0 0 0-.153.108l-4.395 12.251a.163.163 0 0 0 .154.22h2.108c.07 0 .131-.044.154-.11l2.33-6.516zm20.928.054c0-.09.073-.164.163-.164h6.091c.09 0 .164-.073.164-.163V5.289a.164.164 0 0 0-.164-.163h-8.517a.163.163 0 0 0-.164.163v12.252c0 .09.073.163.164.163h8.517c.09 0 .164-.073.164-.163v-1.704a.164.164 0 0 0-.164-.163h-6.091a.163.163 0 0 1-.163-.164v-3.033c0-.09.073-.164.163-.164h4.473c.09 0 .164-.073.164-.163v-1.632a.164.164 0 0 0-.164-.163h-4.473a.163.163 0 0 1-.163-.164z" clip-rule="evenodd"/><path d="M16.265.143c.331-.19.74-.19 1.071 0l2.332 1.346c.331.192.536.545.536.928V5.11c0 .382-.205.736-.536.928l-1.629.94h.002l-.883.514a2.86 2.86 0 0 0-1.422 2.47v.087l.001.048v2.691c0 .383-.204.737-.535.928l-2.332 1.346c-.332.192-.74.192-1.071 0l-2.332-1.346a1.07 1.07 0 0 1-.536-.928v-2.69c0-.384.204-.737.536-.929l1.163-.671-.002-.002 1.346-.781a2.86 2.86 0 0 0 1.422-2.471l.001-2.826c0-.383.204-.736.536-.928zM8.405.144a1.07 1.07 0 0 0-1.071 0L5.002 1.49a1.07 1.07 0 0 0-.536.928v2.825c0 1.019-.543 1.96-1.423 2.471l-1.346.781.002.002-1.164.671a1.07 1.07 0 0 0-.535.928v2.692c0 .382.204.736.535.928l2.332 1.345c.332.192.74.192 1.072 0l2.331-1.345c.332-.192.536-.546.536-.928V9.96c0-1.018.54-1.959 1.42-2.47l.884-.513-.002-.001 1.629-.94c.331-.192.536-.545.536-.928V2.418c0-.383-.205-.737-.536-.928zM8.405 15.501a1.07 1.07 0 0 0-1.071 0l-2.332 1.346a1.07 1.07 0 0 0-.536.928v2.691c0 .383.204.737.536.928l2.332 1.346c.331.191.74.191 1.071 0l2.332-1.346c.331-.191.536-.545.536-.928v-2.691c0-.383-.205-.737-.536-.928zM21.8 7.856a1.07 1.07 0 0 0-1.07 0l-2.332 1.346a1.07 1.07 0 0 0-.536.928v2.826c0 1.018-.543 1.96-1.424 2.47l-1.346.782.003.002-1.164.671a1.07 1.07 0 0 0-.535.928V20.5c0 .383.204.737.535.928l2.332 1.346c.332.192.74.192 1.071 0l2.332-1.346c.332-.19.536-.545.536-.928v-2.826c0-1.018.54-1.96 1.42-2.47l.883-.514h-.001l1.629-.94c.331-.192.535-.546.535-.928V10.13c0-.383-.204-.736-.535-.928z"/></g><defs><clipPath id="logo_svg__a"><path fill="#fff" d="M0 0h128v24H0z"/></clipPath></defs></svg>