<svg xmlns="http://www.w3.org/2000/svg" fill="none" viewBox="0 0 77 44"><g clip-path="url(#google_svg__a)"><path fill="#ABAEBB" fill-rule="evenodd" d="M9.975 23.33v2.687l6.422-.003c-.197 1.482-.697 2.567-1.456 3.327-.937.937-2.4 1.967-4.966 1.967-3.958 0-7.054-3.19-7.054-7.147s3.096-7.148 7.054-7.148c2.136 0 3.695.84 4.846 1.92l1.896-1.897c-1.605-1.533-3.741-2.71-6.74-2.71-5.42 0-9.977 4.415-9.977 9.835s4.558 9.835 9.977 9.835c2.925 0 5.132-.96 6.86-2.759 1.776-1.776 2.327-4.269 2.327-6.285 0-.6-.046-1.154-.134-1.622zM64.15 33.61V15.05h-2.713V33.61zM26.596 34c3.5 0 6.354-2.688 6.354-6.334 0-3.672-2.853-6.334-6.354-6.334s-6.354 2.662-6.354 6.334c0 3.646 2.853 6.333 6.354 6.333m0-10.172c1.919 0 3.572 1.559 3.572 3.838 0 2.253-1.653 3.838-3.572 3.838s-3.573-1.582-3.573-3.838c0-2.279 1.654-3.838 3.573-3.838m13.703 10.171c3.501 0 6.354-2.687 6.354-6.333 0-3.672-2.853-6.334-6.354-6.334s-6.354 2.664-6.354 6.334c0 3.646 2.853 6.333 6.354 6.333m0-10.171c1.919 0 3.572 1.559 3.572 3.838 0 2.253-1.653 3.838-3.572 3.838s-3.572-1.582-3.572-3.838c0-2.279 1.653-3.838 3.572-3.838m19.5-2.11v11.368c0 4.677-2.76 6.588-6.02 6.588-3.07 0-4.918-2.054-5.615-3.733l2.422-1.008c.431 1.031 1.488 2.248 3.19 2.248 2.087 0 3.38-1.288 3.38-3.713v-.91h-.096c-.623.768-1.822 1.439-3.336 1.439-3.166 0-6.068-2.759-6.068-6.308 0-3.576 2.901-6.357 6.068-6.357 1.511 0 2.71.671 3.336 1.416h.097v-1.03zm-2.445 5.97c0-2.23-1.488-3.86-3.381-3.86-1.92 0-3.527 1.63-3.527 3.86 0 2.208 1.608 3.816 3.527 3.816 1.893 0 3.38-1.608 3.38-3.815m17.37 2.061 2.159 1.44c-.697 1.03-2.376 2.807-5.277 2.807-3.599 0-6.286-2.782-6.286-6.334 0-3.767 2.71-6.334 5.974-6.334 3.287 0 4.895 2.616 5.42 4.03l.289.719-8.467 3.507c.648 1.27 1.656 1.919 3.07 1.919 1.416 0 2.398-.697 3.118-1.754m-6.645-2.278 5.66-2.35c-.312-.792-1.248-1.343-2.35-1.343-1.414 0-3.382 1.248-3.31 3.693" clip-rule="evenodd"/></g><defs><clipPath id="google_svg__a"><path fill="#fff" d="M0 0h77v44H0z"/></clipPath></defs></svg>