<svg xmlns="http://www.w3.org/2000/svg" fill="none" viewBox="0 0 24 24"><path fill="#EEEFF1" fill-rule="evenodd" d="M11.98 1.19a.38.38 0 0 0-.658 0l-3.66 6.286a.38.38 0 0 1-.25.18l-7.11 1.54a.38.38 0 0 0-.203.626l4.847 5.425c.072.08.106.185.095.292l-.732 7.237a.38.38 0 0 0 .532.387l4.869-2.145V18.97c-.649.166-2.079.209-2.615-.946-.229-.581-.334-.729-.446-.88-.113-.152-.33-.373-.513-.455-.187-.1-.338-.26-.292-.334s.314-.148.61-.054c.295.093.691.33.97.812.28.481.918.92 1.68.777.444-.097.589-.16.606-.18.009-.224.125-.753.52-1.064-.831-.037-2.642-.458-3.234-1.835-.74-1.723-.332-3.164 0-3.675.193-.273.335-.457.383-.515.006-.008 0-.113-.07-.47-.09-.447-.063-.983.201-1.66.27-.049 1.087.044 2.19.808.633-.205 2.317-.491 3.993 0 .422-.328 1.447-.947 2.174-.807.129.3.348 1.057.193 1.686a5 5 0 0 1-.127.44c.369.314 1.03 1.361.728 3.035-.38 2.092-1.557 2.743-3.592 2.999.181.14.544.65.544 1.573v2.8l4.849 2.137a.38.38 0 0 0 .532-.387l-.732-7.237a.38.38 0 0 1 .095-.292l4.846-5.425A.38.38 0 0 0 23 9.196l-7.11-1.54a.38.38 0 0 1-.248-.18z" clip-rule="evenodd"/></svg>