<svg xmlns="http://www.w3.org/2000/svg" fill="none" viewBox="0 0 50 50"><rect width="48" height="48" x="1" y="1" fill="url(#youtube_svg__a)" rx="24"/><rect width="48" height="48" x="1" y="1" stroke="url(#youtube_svg__b)" rx="24"/><path fill="#EEEFF1" fill-rule="evenodd" d="M34.216 16.831a3.1 3.1 0 0 1 2.18 2.195c.516 1.936.516 5.974.516 5.974s0 4.04-.515 5.975a3.1 3.1 0 0 1-2.18 2.195c-1.924.518-9.636.518-9.636.518s-7.712 0-9.635-.518a3.1 3.1 0 0 1-2.18-2.195C12.25 29.039 12.25 25 12.25 25s0-4.039.515-5.974a3.1 3.1 0 0 1 2.18-2.195c1.924-.518 9.636-.518 9.636-.518s7.712 0 9.635.518M28.504 25l-6.445 3.667v-7.334z" clip-rule="evenodd"/><defs><linearGradient id="youtube_svg__a" x1="25" x2="16" y1="1" y2="49" gradientUnits="userSpaceOnUse"><stop stop-color="#241E1E"/><stop offset="1" stop-color="#100F12"/></linearGradient><linearGradient id="youtube_svg__b" x1="25" x2="8" y1="-4.5" y2="53.5" gradientUnits="userSpaceOnUse"><stop stop-color="#695352"/><stop offset=".539" stop-color="#312727"/><stop offset=".943" stop-color="#272930"/></linearGradient></defs></svg>