<svg xmlns="http://www.w3.org/2000/svg" fill="none" viewBox="0 0 358 1170"><path stroke="url(#pattern-white-right-2_svg__a)" stroke-width="2" d="M360.094 610h-360m103-.5V1156m0-549V407"/><path stroke="url(#pattern-white-right-2_svg__b)" stroke-width="2" d="M360.094 610h-360m103-.5V1156m0-549V407"/><path stroke="url(#pattern-white-right-2_svg__c)" stroke-width="2" d="M360.094 608h-360m101-201v727.5"/><path stroke="url(#pattern-white-right-2_svg__d)" stroke-width="2" d="M360.094 608h-360m101-201v727.5"/><mask id="pattern-white-right-2_svg__f" width="255" height="225" x="104" y="611" maskUnits="userSpaceOnUse" style="mask-type:alpha"><path fill="url(#pattern-white-right-2_svg__e)" d="M0 0h254v225H0z" transform="matrix(1 0 0 -1 104 836)"/></mask><g stroke-width="2" mask="url(#pattern-white-right-2_svg__f)"><circle cx="283.922" cy="790.209" r="234.34" stroke="#DBDCDE" transform="rotate(180 283.922 790.209)"/><circle cx="283.921" cy="790.21" r="220.755" stroke="#DBDCDE" transform="rotate(180 283.921 790.21)"/><circle cx="283.924" cy="790.211" r="207.17" stroke="#DBDCDE" transform="rotate(180 283.924 790.211)"/><circle cx="283.923" cy="790.208" r="193.585" stroke="#DBDCDE" transform="rotate(180 283.923 790.208)"/><circle cx="283.926" cy="790.209" r="180" stroke="#DBDCDE" transform="rotate(180 283.926 790.209)"/><circle cx="283.921" cy="790.21" r="166.415" stroke="#DBDCDE" transform="rotate(180 283.921 790.21)"/><circle cx="283.92" cy="790.209" r="152.83" stroke="#DBDCDE" transform="rotate(180 283.92 790.209)"/><circle cx="283.923" cy="790.21" r="139.245" stroke="#DBDCDE" transform="rotate(180 283.923 790.21)"/><circle cx="283.922" cy="790.211" r="125.66" stroke="#DBDCDE" transform="rotate(180 283.922 790.211)"/><circle cx="283.925" cy="790.208" r="112.075" stroke="#DBDCDE" transform="rotate(180 283.925 790.208)"/><circle cx="283.924" cy="790.209" r="98.491" stroke="#DBDCDE" transform="rotate(180 283.924 790.209)"/><circle cx="283.919" cy="790.21" r="84.906" stroke="#DBDCDE" transform="rotate(180 283.919 790.21)"/><circle cx="282.703" cy="788.989" r="234.34" stroke="#EFEFF0" transform="rotate(180 282.703 788.989)"/><circle cx="282.702" cy="788.989" r="220.755" stroke="#EFEFF0" transform="rotate(180 282.702 788.989)"/><circle cx="282.705" cy="788.99" r="207.17" stroke="#EFEFF0" transform="rotate(180 282.705 788.99)"/><circle cx="282.704" cy="788.987" r="193.585" stroke="#EFEFF0" transform="rotate(180 282.704 788.987)"/><circle cx="282.707" cy="788.988" r="180" stroke="#EFEFF0" transform="rotate(180 282.707 788.988)"/><circle cx="282.702" cy="788.989" r="166.415" stroke="#EFEFF0" transform="rotate(180 282.702 788.989)"/><circle cx="282.701" cy="788.988" r="152.83" stroke="#EFEFF0" transform="rotate(180 282.701 788.988)"/><circle cx="282.704" cy="788.989" r="139.245" stroke="#EFEFF0" transform="rotate(180 282.704 788.989)"/><circle cx="282.703" cy="788.99" r="125.66" stroke="#EFEFF0" transform="rotate(180 282.703 788.99)"/><circle cx="282.706" cy="788.987" r="112.075" stroke="#EFEFF0" transform="rotate(180 282.706 788.987)"/><circle cx="282.705" cy="788.988" r="98.491" stroke="#EFEFF0" transform="rotate(180 282.705 788.988)"/><circle cx="282.7" cy="788.989" r="84.906" stroke="#EFEFF0" transform="rotate(180 282.7 788.989)"/></g><defs><linearGradient id="pattern-white-right-2_svg__a" x1="231.688" x2="218.638" y1="416.3" y2="1146.89" gradientUnits="userSpaceOnUse"><stop offset=".001" stop-color="#E5E5E6"/><stop offset=".047" stop-color="#DADBDD"/><stop offset=".897" stop-color="#DADBDD"/><stop offset="1" stop-color="#DADBDD" stop-opacity="0"/></linearGradient><linearGradient id="pattern-white-right-2_svg__b" x1="17.188" x2="360.188" y1="869.972" y2="869.972" gradientUnits="userSpaceOnUse"><stop offset=".001" stop-color="#E2E2E3"/><stop offset=".13" stop-color="#E2E2E3" stop-opacity="0"/><stop offset=".835" stop-color="#E5E5E6" stop-opacity="0"/><stop offset="1" stop-color="#E5E5E6"/></linearGradient><linearGradient id="pattern-white-right-2_svg__c" x1="260.094" x2="260.094" y1="431.843" y2="1114.04" gradientUnits="userSpaceOnUse"><stop offset=".019" stop-color="#E5E5E6"/><stop offset=".085" stop-color="#EDEDEE"/><stop offset=".929" stop-color="#F0F0F0" stop-opacity=".7"/><stop offset="1" stop-color="#E5E5E6"/></linearGradient><linearGradient id="pattern-white-right-2_svg__d" x1="17.188" x2="360.188" y1="856.683" y2="856.683" gradientUnits="userSpaceOnUse"><stop offset=".001" stop-color="#E2E2E3"/><stop offset=".13" stop-color="#E2E2E3" stop-opacity="0"/><stop offset=".835" stop-color="#E5E5E6" stop-opacity="0"/><stop offset="1" stop-color="#E5E5E6"/></linearGradient><linearGradient id="pattern-white-right-2_svg__e" x1="88.713" x2="1.315" y1="73" y2="205.369" gradientUnits="userSpaceOnUse"><stop stop-color="#D9D9D9" stop-opacity="0"/><stop offset="1" stop-color="#F8F8F8"/></linearGradient></defs></svg>