<svg xmlns="http://www.w3.org/2000/svg" fill="none" viewBox="0 0 25 24"><path fill="#fff" fill-rule="evenodd" d="M1.12 17.809a.75.75 0 0 1 0-1.06l5.292-5.294L1.896 6.94a.75.75 0 0 1 0-1.06l4.659-4.66a.75.75 0 0 1 1.06 0l2.322 2.322.008.008.008.008 2.179 2.179 4.516-4.516a.75.75 0 0 1 1.06 0l5.436 5.434a.75.75 0 0 1 0 1.061l-4.517 4.516 4.518 4.518a.75.75 0 0 1 .212.424l.776 5.435a.75.75 0 0 1-.848.848l-5.42-.774a.75.75 0 0 1-.44-.214l-.014-.014-4.503-4.503-5.293 5.293a.75.75 0 0 1-1.06 0zm4.696-3.636 1.269-1.269 1.023 1.023a.75.75 0 1 0 1.06-1.06l-1.022-1.024 1.268-1.268 1.8 1.8a.75.75 0 1 0 1.06-1.062l-1.799-1.799 1.269-1.269 1.023 1.023a.75.75 0 1 0 1.06-1.06l-1.023-1.023 1.269-1.269 1.8 1.8a.75.75 0 0 0 1.06-1.061l-1.8-1.8 2.046-2.044 4.374 4.374L7.085 21.653 2.71 17.279l2.045-2.046 1.799 1.8a.75.75 0 0 0 1.06-1.06zm1.657-3.778 3.598-3.598L9.414 5.14 5.816 8.738zm6.496 6.495 3.598-3.598 3.986 3.987-3.597 3.598zM7.085 2.81l1.269 1.27-3.598 3.597L3.487 6.41zm14.999 16.06-2.538 2.537 2.96.423z" clip-rule="evenodd"/><path fill="url(#ruler_svg__a)" fill-rule="evenodd" d="M1.12 17.809a.75.75 0 0 1 0-1.06l5.292-5.294L1.896 6.94a.75.75 0 0 1 0-1.06l4.659-4.66a.75.75 0 0 1 1.06 0l2.322 2.322.008.008.008.008 2.179 2.179 4.516-4.516a.75.75 0 0 1 1.06 0l5.436 5.434a.75.75 0 0 1 0 1.061l-4.517 4.516 4.518 4.518a.75.75 0 0 1 .212.424l.776 5.435a.75.75 0 0 1-.848.848l-5.42-.774a.75.75 0 0 1-.44-.214l-.014-.014-4.503-4.503-5.293 5.293a.75.75 0 0 1-1.06 0zm4.696-3.636 1.269-1.269 1.023 1.023a.75.75 0 1 0 1.06-1.06l-1.022-1.024 1.268-1.268 1.8 1.8a.75.75 0 1 0 1.06-1.062l-1.799-1.799 1.269-1.269 1.023 1.023a.75.75 0 1 0 1.06-1.06l-1.023-1.023 1.269-1.269 1.8 1.8a.75.75 0 0 0 1.06-1.061l-1.8-1.8 2.046-2.044 4.374 4.374L7.085 21.653 2.71 17.279l2.045-2.046 1.799 1.8a.75.75 0 0 0 1.06-1.06zm1.657-3.778 3.598-3.598L9.414 5.14 5.816 8.738zm6.496 6.495 3.598-3.598 3.986 3.987-3.597 3.598zM7.085 2.81l1.269 1.27-3.598 3.597L3.487 6.41zm14.999 16.06-2.538 2.537 2.96.423z" clip-rule="evenodd"/><defs><linearGradient id="ruler_svg__a" x1="12.52" x2="12.52" y1="1" y2="23.464" gradientUnits="userSpaceOnUse"><stop stop-color="#9E71D7"/><stop offset="1" stop-color="#7659B3"/></linearGradient></defs></svg>