<svg xmlns="http://www.w3.org/2000/svg" fill="none" viewBox="0 0 358 1533"><path stroke="url(#pattern-white-left-2_svg__a)" stroke-width="2" d="M-2.094 239h360m-360 733h360m-103-3V240m0 731v550m0-1490v205"/><path stroke="url(#pattern-white-left-2_svg__b)" stroke-width="2" d="M-2.094 239h360m-360 733h360m-103-3V240m0 731v550m0-1490v205"/><path stroke="url(#pattern-white-left-2_svg__c)" stroke-width="2" d="M-2.094 237h360m-360 733h360m-101 551.5V28"/><path stroke="url(#pattern-white-left-2_svg__d)" stroke-width="2" d="M-2.094 237h360m-360 733h360m-101 551.5V28"/><mask id="pattern-white-left-2_svg__f" width="254" height="224" x="0" y="12" maskUnits="userSpaceOnUse" style="mask-type:alpha"><path fill="url(#pattern-white-left-2_svg__e)" d="M0 0h254v224H0z" transform="matrix(-1 0 0 1 254 12)"/></mask><g stroke-width="2" mask="url(#pattern-white-left-2_svg__f)"><circle cx="74.078" cy="57.791" r="234.34" stroke="#DBDCDE"/><circle cx="74.079" cy="57.79" r="220.755" stroke="#DBDCDE"/><circle cx="74.076" cy="57.789" r="207.17" stroke="#DBDCDE"/><circle cx="74.077" cy="57.792" r="193.585" stroke="#DBDCDE"/><circle cx="74.074" cy="57.791" r="180" stroke="#DBDCDE"/><circle cx="74.079" cy="57.79" r="166.415" stroke="#DBDCDE"/><circle cx="74.08" cy="57.791" r="152.83" stroke="#DBDCDE"/><circle cx="74.077" cy="57.79" r="139.245" stroke="#DBDCDE"/><circle cx="74.078" cy="57.789" r="125.66" stroke="#DBDCDE"/><circle cx="74.076" cy="57.792" r="112.075" stroke="#DBDCDE"/><circle cx="74.076" cy="57.791" r="98.491" stroke="#DBDCDE"/><circle cx="74.081" cy="57.79" r="84.906" stroke="#DBDCDE"/><circle cx="75.297" cy="59.011" r="234.34" stroke="#EFEFF0"/><circle cx="75.298" cy="59.011" r="220.755" stroke="#EFEFF0"/><circle cx="75.295" cy="59.01" r="207.17" stroke="#EFEFF0"/><circle cx="75.296" cy="59.013" r="193.585" stroke="#EFEFF0"/><circle cx="75.293" cy="59.012" r="180" stroke="#EFEFF0"/><circle cx="75.298" cy="59.011" r="166.415" stroke="#EFEFF0"/><circle cx="75.299" cy="59.012" r="152.83" stroke="#EFEFF0"/><circle cx="75.296" cy="59.011" r="139.245" stroke="#EFEFF0"/><circle cx="75.297" cy="59.01" r="125.66" stroke="#EFEFF0"/><circle cx="75.294" cy="59.013" r="112.075" stroke="#EFEFF0"/><circle cx="75.295" cy="59.012" r="98.491" stroke="#EFEFF0"/><circle cx="75.3" cy="59.011" r="84.906" stroke="#EFEFF0"/></g><defs><linearGradient id="pattern-white-left-2_svg__a" x1="229.5" x2="177.906" y1="49.5" y2="1501.5" gradientUnits="userSpaceOnUse"><stop offset=".001" stop-color="#E5E5E6"/><stop offset=".047" stop-color="#DADBDD"/><stop offset=".897" stop-color="#DADBDD"/><stop offset="1" stop-color="#DADBDD" stop-opacity="0"/></linearGradient><linearGradient id="pattern-white-left-2_svg__b" x1="15" x2="358" y1="952" y2="952" gradientUnits="userSpaceOnUse"><stop offset=".001" stop-color="#E5E5E6"/><stop offset=".13" stop-color="#E5E5E6" stop-opacity="0"/><stop offset=".835" stop-color="#E5E5E6" stop-opacity="0"/><stop offset="1" stop-color="#E5E5E6"/></linearGradient><linearGradient id="pattern-white-left-2_svg__c" x1="257.906" x2="257.906" y1="79" y2="1479.5" gradientUnits="userSpaceOnUse"><stop offset=".019" stop-color="#E5E5E6"/><stop offset=".085" stop-color="#EDEDEE"/><stop offset=".929" stop-color="#F0F0F0" stop-opacity=".7"/><stop offset="1" stop-color="#E5E5E6"/></linearGradient><linearGradient id="pattern-white-left-2_svg__d" x1="7.5" x2="355" y1="257.5" y2="257.5" gradientUnits="userSpaceOnUse"><stop offset=".019" stop-color="#E5E5E6"/><stop offset=".125" stop-color="#EFEFEF" stop-opacity="0"/><stop offset=".911" stop-color="#E8E8E8" stop-opacity="0"/><stop offset="1" stop-color="#E5E5E6"/></linearGradient><linearGradient id="pattern-white-left-2_svg__e" x1="88.713" x2="1.857" y1="72.676" y2="204.812" gradientUnits="userSpaceOnUse"><stop stop-color="#D9D9D9" stop-opacity="0"/><stop offset="1" stop-color="#F8F8F8"/></linearGradient></defs></svg>