<svg xmlns="http://www.w3.org/2000/svg" fill="none" viewBox="0 0 358 1702"><path stroke="url(#pattern-white-right-1_svg__a)" stroke-width="2" d="M360.094 657h-360m103 1v910.5m0-914.5V0m0 1671v-98m257-1h-360"/><path stroke="url(#pattern-white-right-1_svg__b)" stroke-width="2" d="M360.094 657h-360m103 1v910.5m0-914.5V0m0 1671v-98m257-1h-360"/><path stroke="url(#pattern-white-right-1_svg__c)" stroke-width="2" d="M360.094 655h-360m101-655v1674m259-104h-360"/><path stroke="url(#pattern-white-right-1_svg__d)" stroke-width="2" d="M360.094 655h-360m101-655v1674m259-104h-360"/><mask id="pattern-white-right-1_svg__f" width="273" height="225" x="104" y="658" maskUnits="userSpaceOnUse" style="mask-type:alpha"><path fill="url(#pattern-white-right-1_svg__e)" d="M0 0h272v225H0z" transform="matrix(1 0 0 -1 104 883)"/></mask><g stroke-width="2" mask="url(#pattern-white-right-1_svg__f)"><circle cx="283.922" cy="837.209" r="234.34" stroke="#DBDCDE" transform="rotate(180 283.922 837.209)"/><circle cx="283.921" cy="837.21" r="220.755" stroke="#DBDCDE" transform="rotate(180 283.921 837.21)"/><circle cx="283.924" cy="837.211" r="207.17" stroke="#DBDCDE" transform="rotate(180 283.924 837.211)"/><circle cx="283.923" cy="837.208" r="193.585" stroke="#DBDCDE" transform="rotate(180 283.923 837.208)"/><circle cx="283.926" cy="837.209" r="180" stroke="#DBDCDE" transform="rotate(180 283.926 837.209)"/><circle cx="283.921" cy="837.21" r="166.415" stroke="#DBDCDE" transform="rotate(180 283.921 837.21)"/><circle cx="283.92" cy="837.209" r="152.83" stroke="#DBDCDE" transform="rotate(180 283.92 837.209)"/><circle cx="283.923" cy="837.21" r="139.245" stroke="#DBDCDE" transform="rotate(180 283.923 837.21)"/><circle cx="283.922" cy="837.211" r="125.66" stroke="#DBDCDE" transform="rotate(180 283.922 837.211)"/><circle cx="283.925" cy="837.208" r="112.075" stroke="#DBDCDE" transform="rotate(180 283.925 837.208)"/><circle cx="283.924" cy="837.209" r="98.491" stroke="#DBDCDE" transform="rotate(180 283.924 837.209)"/><circle cx="283.919" cy="837.21" r="84.906" stroke="#DBDCDE" transform="rotate(180 283.919 837.21)"/><circle cx="282.703" cy="835.989" r="234.34" stroke="#EFEFF0" transform="rotate(180 282.703 835.989)"/><circle cx="282.702" cy="835.989" r="220.755" stroke="#EFEFF0" transform="rotate(180 282.702 835.989)"/><circle cx="282.705" cy="835.99" r="207.17" stroke="#EFEFF0" transform="rotate(180 282.705 835.99)"/><circle cx="282.704" cy="835.987" r="193.585" stroke="#EFEFF0" transform="rotate(180 282.704 835.987)"/><circle cx="282.707" cy="835.988" r="180" stroke="#EFEFF0" transform="rotate(180 282.707 835.988)"/><circle cx="282.702" cy="835.989" r="166.415" stroke="#EFEFF0" transform="rotate(180 282.702 835.989)"/><circle cx="282.701" cy="835.988" r="152.83" stroke="#EFEFF0" transform="rotate(180 282.701 835.988)"/><circle cx="282.704" cy="835.989" r="139.245" stroke="#EFEFF0" transform="rotate(180 282.704 835.989)"/><circle cx="282.703" cy="835.99" r="125.66" stroke="#EFEFF0" transform="rotate(180 282.703 835.99)"/><circle cx="282.706" cy="835.987" r="112.075" stroke="#EFEFF0" transform="rotate(180 282.706 835.987)"/><circle cx="282.705" cy="835.988" r="98.491" stroke="#EFEFF0" transform="rotate(180 282.705 835.988)"/><circle cx="282.7" cy="835.989" r="84.906" stroke="#EFEFF0" transform="rotate(180 282.7 835.989)"/></g><defs><linearGradient id="pattern-white-right-1_svg__a" x1="231.688" x2="166.819" y1="20.747" y2="1648.6" gradientUnits="userSpaceOnUse"><stop offset=".001" stop-color="#E5E5E6"/><stop offset=".047" stop-color="#DADBDD"/><stop offset=".897" stop-color="#DADBDD"/><stop offset="1" stop-color="#DADBDD" stop-opacity="0"/></linearGradient><linearGradient id="pattern-white-right-1_svg__b" x1="17.188" x2="360.188" y1="1032.88" y2="1032.88" gradientUnits="userSpaceOnUse"><stop offset=".001" stop-color="#E5E5E6"/><stop offset=".13" stop-color="#E5E5E6" stop-opacity="0"/><stop offset=".835" stop-color="#E5E5E6" stop-opacity="0"/><stop offset="1" stop-color="#E5E5E6"/></linearGradient><linearGradient id="pattern-white-right-1_svg__c" x1="260.094" x2="260.094" y1="57.164" y2="1626.92" gradientUnits="userSpaceOnUse"><stop offset=".019" stop-color="#E5E5E6"/><stop offset=".085" stop-color="#EDEDEE"/><stop offset=".929" stop-color="#F0F0F0" stop-opacity=".7"/><stop offset="1" stop-color="#E5E5E6"/></linearGradient><linearGradient id="pattern-white-right-1_svg__d" x1="9.688" x2="357.187" y1="257.237" y2="257.237" gradientUnits="userSpaceOnUse"><stop offset=".019" stop-color="#E5E5E6"/><stop offset=".125" stop-color="#EFEFEF" stop-opacity="0"/><stop offset=".911" stop-color="#E8E8E8" stop-opacity="0"/><stop offset="1" stop-color="#E5E5E6"/></linearGradient><linearGradient id="pattern-white-right-1_svg__e" x1="95" x2="10.087" y1="73" y2="210.72" gradientUnits="userSpaceOnUse"><stop stop-color="#D9D9D9" stop-opacity="0"/><stop offset="1" stop-color="#F8F8F8"/></linearGradient></defs></svg>