<svg xmlns="http://www.w3.org/2000/svg" fill="none" viewBox="0 0 20 20" width="20" height="20"><path fill="currentColor" fill-rule="evenodd" d="M10.013.038a9.87 9.87 0 0 0-6.489 2.436A10.3 10.3 0 0 0 .13 8.633a10.43 10.43 0 0 0 1.319 6.94 10.05 10.05 0 0 0 5.402 4.41c.498.094.682-.226.682-.496v-1.74c-2.782.628-3.371-1.37-3.371-1.37a2.73 2.73 0 0 0-1.111-1.501c-.903-.628.073-.628.073-.628.317.045.619.164.884.347s.485.425.645.708c.136.252.32.474.54.654s.472.312.742.392a2.1 2.1 0 0 0 1.629-.192 2.2 2.2 0 0 1 .614-1.37C5.954 14.53 3.62 13.652 3.62 9.732a4 4 0 0 1 1.025-2.745c-.3-.884-.265-1.85.098-2.708 0 0 .842-.276 2.751 1.05 1.64-.461 3.37-.461 5.01 0 1.91-1.326 2.745-1.05 2.745-1.05.368.857.405 1.824.105 2.708A4 4 0 0 1 16.38 9.73c0 3.932-2.34 4.793-4.568 5.026.239.245.423.54.541.866s.165.672.14 1.018v2.808c0 .333.178.59.688.496a10.06 10.06 0 0 0 5.381-4.417 10.44 10.44 0 0 0 1.308-6.93 10.3 10.3 0 0 0-3.386-6.15A9.88 9.88 0 0 0 10.013 0z" clip-rule="evenodd"/></svg>