<svg xmlns="http://www.w3.org/2000/svg" fill="none" viewBox="0 0 105 44"><path fill="#ABAEBB" d="M30.353 33.46a6.3 6.3 0 0 1-2.436-.47 5.5 5.5 0 0 1-1.956-1.369q-.83-.9-1.31-2.22t-.48-3.023q0-1.701.52-3.022.518-1.32 1.379-2.22a5.7 5.7 0 0 1 1.995-1.36 6.3 6.3 0 0 1 2.367-.46q.763 0 1.39.098a7.6 7.6 0 0 1 1.897.539q.333.146.509.264l-.43 1.154a8 8 0 0 0-1.243-.577q-.752-.285-1.868-.284-1.272 0-2.22.43a4.4 4.4 0 0 0-1.595 1.213 5.3 5.3 0 0 0-.969 1.858q-.323 1.077-.323 2.387c0 .875.108 1.712.323 2.436q.324 1.085.949 1.85.626.762 1.536 1.174.91.41 2.083.41 1.291 0 2.162-.245.87-.243 1.32-.499l.372 1.135q-.137.097-.47.225a9.081 9.081 0 0 1-2.015.489q-.665.088-1.487.088M39.402 22.817q.998 0 1.693.284.693.284 1.124.783.43.498.626 1.183.195.685.196 1.486v6.378q-.195.058-.568.127-.371.069-.86.147-.49.078-1.086.127-.598.048-1.223.048a5.9 5.9 0 0 1-1.477-.175 3.3 3.3 0 0 1-1.175-.558 2.63 2.63 0 0 1-.782-.978q-.284-.596-.284-1.457c0-.575.105-1.018.313-1.409q.313-.586.88-.968.568-.382 1.35-.558a7.8 7.8 0 0 1 1.702-.176q.273 0 .578.03a8 8 0 0 1 1.075.176q.206.049.284.088v-.626a6.7 6.7 0 0 0-.078-1.027 2.25 2.25 0 0 0-.343-.9 1.9 1.9 0 0 0-.743-.645q-.48-.245-1.262-.245-1.115 0-1.663.156-.547.158-.802.255l-.176-1.116q.333-.156 1.027-.293a9 9 0 0 1 1.672-.138zm.117 9.43q.743 0 1.301-.05.558-.048.949-.126v-3.56a4 4 0 0 0-.685-.206q-.47-.107-1.291-.108-.47 0-.978.069-.51.068-.94.293a1.96 1.96 0 0 0-.704.616q-.274.392-.274 1.037 0 .567.186.959t.529.626.821.343q.48.108 1.086.108zM45.79 23.403q.567-.157 1.526-.352.957-.195 2.347-.195 1.155 0 1.927.332.773.333 1.232.949.46.615.656 1.477a8.6 8.6 0 0 1 .195 1.898v5.653h-1.272v-5.242q0-1.076-.146-1.82-.147-.743-.49-1.213a1.9 1.9 0 0 0-.899-.675q-.558-.206-1.399-.206-.9 0-1.555.098t-.851.176v8.882h-1.272zM65.087 28.117q0 1.194-.343 2.172a4.85 4.85 0 0 1-.959 1.663q-.615.685-1.457 1.067a4.45 4.45 0 0 1-1.859.38 4.45 4.45 0 0 1-1.858-.38 4.4 4.4 0 0 1-1.458-1.067 4.8 4.8 0 0 1-.959-1.663q-.343-.978-.342-2.172 0-1.193.342-2.171t.959-1.673q.616-.693 1.458-1.075a4.45 4.45 0 0 1 1.858-.382 4.45 4.45 0 0 1 1.858.382 4.3 4.3 0 0 1 1.458 1.075q.616.696.959 1.673t.343 2.171m-1.35 0q0-1.896-.88-3.022-.881-1.125-2.388-1.125t-2.387 1.125q-.88 1.125-.88 3.022 0 1.898.88 3.014t2.387 1.115 2.387-1.115.88-3.014M67.376 23.403q.566-.157 1.526-.352.958-.195 2.347-.195 1.155 0 1.927.332.773.333 1.232.949.46.615.656 1.477a8.6 8.6 0 0 1 .195 1.898v5.653h-1.272v-5.242q0-1.076-.146-1.82-.147-.743-.49-1.213a1.9 1.9 0 0 0-.899-.675q-.558-.206-1.399-.206-.9 0-1.555.098-.656.098-.851.176v8.882h-1.272v-9.762M79.518 20q0 .45-.274.713a.92.92 0 0 1-.665.265.92.92 0 0 1-.665-.265q-.274-.264-.273-.713 0-.45.273-.714a.92.92 0 0 1 .665-.265q.391 0 .665.265.274.264.274.713m-.294 13.166h-1.272V23.052h1.272zM86.262 33.381q-1.174 0-2.074-.372a3.9 3.9 0 0 1-1.496-1.066 4.8 4.8 0 0 1-.91-1.663 7 7 0 0 1-.313-2.142c0-.783.108-1.52.323-2.172a4.9 4.9 0 0 1 .93-1.683 4.1 4.1 0 0 1 1.466-1.085q.861-.382 1.937-.382.822 0 1.536.138.714.137 1.105.351l-.332 1.096a4 4 0 0 0-.88-.313q-.49-.117-1.311-.117-1.683 0-2.553 1.086-.87 1.085-.87 3.081 0 .9.195 1.653.195.754.635 1.292t1.135.84 1.692.304q.821 0 1.38-.186.557-.186.812-.324l.273 1.096q-.353.196-1.105.381a6.6 6.6 0 0 1-1.575.186zM93.918 22.817q.998 0 1.691.284t1.126.783q.43.498.626 1.183.195.685.195 1.486v6.378q-.196.058-.567.127-.372.069-.861.147t-1.086.127q-.596.048-1.223.048a5.9 5.9 0 0 1-1.477-.175 3.3 3.3 0 0 1-1.174-.558 2.6 2.6 0 0 1-.783-.978q-.283-.596-.283-1.457c0-.575.103-1.018.313-1.409q.313-.586.88-.968.568-.382 1.35-.558a7.8 7.8 0 0 1 1.702-.176q.273 0 .577.03a8 8 0 0 1 1.076.176q.206.049.284.088v-.626a6.7 6.7 0 0 0-.079-1.027 2.25 2.25 0 0 0-.342-.9 1.9 1.9 0 0 0-.743-.645q-.48-.245-1.262-.245-1.115 0-1.663.156-.548.158-.802.255l-.176-1.116q.332-.156 1.027-.293a9 9 0 0 1 1.672-.138zm.117 9.43q.743 0 1.301-.05.557-.048.949-.126v-3.56a4 4 0 0 0-.685-.206q-.47-.107-1.29-.108-.47 0-.979.069-.51.068-.94.293a1.96 1.96 0 0 0-.704.616q-.274.392-.273 1.037 0 .567.186.959t.528.626.822.343 1.085.108zM102.825 33.343a4.3 4.3 0 0 1-1.125-.167 2 2 0 0 1-.802-.45 1.9 1.9 0 0 1-.489-.783q-.167-.48-.167-1.203V18.22l1.272-.236v12.717q0 .47.088.753.088.285.265.45.175.167.459.245t.675.137z"/><path fill="#ABAEBB" fill-rule="evenodd" d="M0 6h19.564v31H0zm12.924 17.287a2.025 2.025 0 1 0 0-4.05 2.025 2.025 0 0 0 0 4.05m-8.438 4.44a2.025 2.025 0 1 0 0-4.05 2.025 2.025 0 0 0 0 4.05m1.198.625a4.93 4.93 0 0 0 3.364 2.565q.246.053.498.081a2.9 2.9 0 0 0 .592 1.694 6.7 6.7 0 0 1-1.438-.148 6.6 6.6 0 0 1-4.747-3.98 2.9 2.9 0 0 0 1.731-.212m6.779 4.599a2.025 2.025 0 1 0 0-4.05 2.025 2.025 0 0 0 0 4.05m2.819-2.765v.001m0 0a6.6 6.6 0 0 0 1.287-2.73 6.64 6.64 0 0 0-.955-5.044 2.9 2.9 0 0 1-1.14 1.334 4.96 4.96 0 0 1-.162 4.932c.477.39.813.916.97 1.508M4.328 22.8a2.912 2.912 0 0 1 1.69.433 4.94 4.94 0 0 1 3.978-2.127 2.93 2.93 0 0 1 .615-1.642A6.66 6.66 0 0 0 4.327 22.8" clip-rule="evenodd"/></svg>