<svg xmlns="http://www.w3.org/2000/svg" fill="none" viewBox="0 0 78 44"><path fill="#ABAEBB" fill-rule="evenodd" d="M7.022 26.298v.643c.001.873.002 1.614-.445 2.4-.38.67-.98 1.083-1.65 1.083-.915 0-1.448-.697-1.448-1.726 0-2.032 1.82-2.4 3.543-2.4m1.84 6.382a.5.5 0 0 0 .564-.057l.006.007c.476-.423 1.341-1.177 1.827-1.583.195-.16.161-.419.007-.633l-.14-.191c-.39-.524-.758-1.021-.758-2.018v-3.714l.001-.378c.008-1.425.016-2.726-1.05-3.721-.916-.878-2.43-1.187-3.59-1.187-2.266 0-4.797.845-5.33 3.647-.054.298.16.456.355.5l2.313.247c.215-.01.372-.22.412-.435.198-.966 1.01-1.432 1.918-1.432.489 0 1.045.181 1.337.62.298.44.293 1.025.29 1.55l-.002.177v.308q-.336.038-.698.074c-1.253.129-2.698.276-3.783.754C1.049 25.86 0 27.176 0 29.11c0 2.477 1.562 3.714 3.566 3.714 1.697 0 2.622-.399 3.929-1.733l.188.276c.309.456.514.76 1.18 1.313m29.41-5.866v-.516c-1.723 0-3.543.369-3.543 2.4 0 1.029.533 1.726 1.448 1.726.67 0 1.27-.412 1.65-1.083.447-.787.446-1.527.445-2.4zm2.404 5.809a.5.5 0 0 1-.564.057c-.665-.553-.87-.857-1.179-1.313l-.188-.276c-1.307 1.334-2.232 1.733-3.928 1.733-2.005 0-3.567-1.237-3.567-3.714 0-1.934 1.05-3.251 2.54-3.895 1.086-.478 2.53-.625 3.784-.754q.362-.035.698-.074v-.308l.001-.178c.004-.524.009-1.11-.289-1.548-.292-.44-.848-.62-1.337-.62-.909 0-1.72.465-1.918 1.43-.04.215-.197.426-.412.436l-2.313-.248c-.194-.043-.409-.2-.355-.499.533-2.802 3.064-3.647 5.33-3.647 1.16 0 2.674.309 3.59 1.187 1.066.995 1.058 2.296 1.05 3.721v.001l-.001.377v3.714c0 .997.368 1.494.757 2.018q.07.094.14.191c.155.214.189.473-.006.633-.486.406-1.35 1.16-1.827 1.583zm-27.117.035h2.383a.45.45 0 0 0 .459-.442v-6.637c-.003-1.398-.006-3.218 1.646-3.218 1.52 0 1.494 1.619 1.473 2.937q-.005.226-.005.435l.003 6.483a.45.45 0 0 0 .43.442h2.38a.45.45 0 0 0 .458-.442v-6.651c-.002-.684-.004-1.606.222-2.175.244-.617.848-1.002 1.424-1.002.69 0 1.224.231 1.401 1.052.092.394.08 1.305.071 1.915-.002.147-.004.277-.004.378v6.483c0 .234.191.425.43.442h2.38a.45.45 0 0 0 .459-.442l.003-7.72q0-.282.006-.574c.02-1.156.04-2.38-.606-3.26-.667-.925-1.76-1.338-2.759-1.338-1.404 0-2.715.72-3.291 2.266-.67-1.545-1.603-2.266-3.094-2.266-1.468 0-2.558.72-3.138 2.266h-.043v-1.599a.45.45 0 0 0-.433-.409h-2.222a.447.447 0 0 0-.46.44v12.23a.45.45 0 0 0 .427.406m30.957-10.917v-1.75c0-.264.201-.442.443-.442h7.833c.252 0 .453.18.453.442v1.499c-.004.251-.215.58-.59 1.099l-4.06 5.796c1.509-.037 3.101.187 4.469.958.308.174.392.43.415.68v1.868c0 .254-.281.553-.576.399-2.41-1.264-5.611-1.401-8.276.013-.272.148-.557-.147-.557-.402v-1.773c0-.285.004-.771.289-1.204l4.702-6.744H44.97c-.252 0-.453-.177-.453-.439m-.08 13.305c1.453-.172 4.63-.55 5.197.178.573.733-.635 3.75-1.175 5.099l-.001.002c-.165.41.187.573.556.265 2.404-2.008 3.02-6.215 2.53-6.821-.489-.604-4.685-1.123-7.243.677-.395.275-.328.657.11.603zM31.22 42.41c5.584 0 12.07-1.76 16.545-5.058.74-.55.107-1.368-.65-1.046C42.1 38.435 36.648 39.46 31.69 39.46c-7.35 0-14.467-2.014-20.222-5.363-.503-.295-.878.221-.46.6 5.334 4.817 12.383 7.713 20.213 7.713m28.76-23.086c3.536 0 5.45 3.037 5.45 6.898 0 3.731-2.115 6.691-5.45 6.691-3.473 0-5.364-3.037-5.364-6.821 0-3.808 1.914-6.768 5.363-6.768m.02 2.497c-1.757 0-1.868 2.394-1.868 3.885v.055c0 1.517 0 4.631 1.847 4.631s1.934-2.574 1.934-4.143c0-1.032-.043-2.266-.355-3.244-.268-.852-.801-1.184-1.559-1.184m7.642 10.837h2.373a.46.46 0 0 0 .466-.442v-6.587c0-.824.044-1.569.38-2.316.264-.59.797-.979 1.377-.979 1.519 0 1.504 1.668 1.493 2.976l-.001.32v6.643a.45.45 0 0 0 .422.385h2.39a.46.46 0 0 0 .459-.385v-7.7c0-1.183 0-2.829-.623-3.807-.67-1.056-1.713-1.442-2.783-1.442-1.645 0-2.58.798-3.248 2.47h-.043v-1.87a.46.46 0 0 0-.426-.342H67.67a.45.45 0 0 0-.46.4l.004 12.234c0 .234.191.425.43.442" clip-rule="evenodd"/></svg>