<svg xmlns="http://www.w3.org/2000/svg" fill="none" viewBox="0 0 50 50"><rect width="48" height="48" x="1" y="1" fill="url(#discord_svg__a)" rx="24"/><rect width="48" height="48" x="1" y="1" stroke="url(#discord_svg__b)" rx="24"/><path fill="#EEEFF1" d="M34.303 16.027a21.5 21.5 0 0 0-5.371-1.652q-.38.68-.688 1.399a20 20 0 0 0-5.96 0 15 15 0 0 0-.689-1.399 21.7 21.7 0 0 0-5.375 1.657c-3.399 5.029-4.32 9.933-3.86 14.767a21.7 21.7 0 0 0 6.588 3.307 16 16 0 0 0 1.41-2.275 14 14 0 0 1-2.221-1.06q.28-.206.545-.41a15.47 15.47 0 0 0 13.17 0q.267.22.545.41c-.71.418-1.455.774-2.226 1.062.405.796.877 1.557 1.41 2.273 2.371-.715 4.601-1.833 6.592-3.305.54-5.606-.924-10.465-3.87-14.774m-13.36 11.799c-1.285 0-2.345-1.165-2.345-2.599 0-1.433 1.023-2.608 2.34-2.608s2.37 1.175 2.347 2.608-1.034 2.599-2.343 2.599m8.648 0c-1.286 0-2.342-1.165-2.342-2.599 0-1.433 1.024-2.608 2.342-2.608s2.363 1.175 2.34 2.608c-.022 1.434-1.031 2.599-2.34 2.599"/><defs><linearGradient id="discord_svg__a" x1="33" x2="6.5" y1="-1.5" y2="46" gradientUnits="userSpaceOnUse"><stop stop-color="#222231"/><stop offset="1" stop-color="#111117"/></linearGradient><linearGradient id="discord_svg__b" x1="32.5" x2="16" y1="-8" y2="49" gradientUnits="userSpaceOnUse"><stop stop-color="#5F608A"/><stop offset="1" stop-color="#1B1D2C"/></linearGradient></defs></svg>