<svg xmlns="http://www.w3.org/2000/svg" fill="none" viewBox="0 0 24 24"><path fill="#fff" fill-rule="evenodd" d="M11 3a1 1 0 1 1 2 .025 1 1 0 0 0-.015.152A1 1 0 0 1 11 3m3.654 1.4a3 3 0 1 1 .286-2 11 11 0 0 1 8.024 9.67 1 1 0 1 1-1.993.169A9 9 0 0 0 14.654 4.4M3.023 17.053a1 1 0 1 1-.175.078q.093-.03.175-.079m.206-2.05a8.965 8.965 0 0 1 3.62-9.375 1 1 0 0 0-1.14-1.643 10.965 10.965 0 0 0-4.355 11.77 3 3 0 1 0 1.874-.752M20.664 17a1 1 0 0 0-.662 1.75 1 1 0 0 1 .149.108l.002.002a1 1 0 1 0 .511-1.86m-3 1c0 .584.167 1.129.455 1.59a8.955 8.955 0 0 1-9.948 1.546 1 1 0 0 0-.857 1.807 10.95 10.95 0 0 0 12.388-2.1A3 3 0 1 0 17.664 18" clip-rule="evenodd"/><path fill="url(#sync_svg__a)" fill-rule="evenodd" d="M11 3a1 1 0 1 1 2 .025 1 1 0 0 0-.015.152A1 1 0 0 1 11 3m3.654 1.4a3 3 0 1 1 .286-2 11 11 0 0 1 8.024 9.67 1 1 0 1 1-1.993.169A9 9 0 0 0 14.654 4.4M3.023 17.053a1 1 0 1 1-.175.078q.093-.03.175-.079m.206-2.05a8.965 8.965 0 0 1 3.62-9.375 1 1 0 0 0-1.14-1.643 10.965 10.965 0 0 0-4.355 11.77 3 3 0 1 0 1.874-.752M20.664 17a1 1 0 0 0-.662 1.75 1 1 0 0 1 .149.108l.002.002a1 1 0 1 0 .511-1.86m-3 1c0 .584.167 1.129.455 1.59a8.955 8.955 0 0 1-9.948 1.546 1 1 0 0 0-.857 1.807 10.95 10.95 0 0 0 12.388-2.1A3 3 0 1 0 17.664 18" clip-rule="evenodd"/><defs><linearGradient id="sync_svg__a" x1="12.004" x2="12.004" y1="0" y2="24" gradientUnits="userSpaceOnUse"><stop stop-color="#99E6DF"/><stop offset="1" stop-color="#70DCD3"/></linearGradient></defs></svg>