<svg xmlns="http://www.w3.org/2000/svg" fill="none" viewBox="0 0 158 52" height="52" width="158">
<path fill="#EEEFF1" d="M40.5635 21.0096V24.6636L49.2965 24.6597C49.0286 26.675 48.3491 28.1505 47.3162 29.1834C46.0425 30.4571 44.0544 31.8589 40.5635 31.8589C35.1816 31.8589 30.9724 27.5215 30.9724 22.1396C30.9724 16.7577 35.1816 12.4203 40.5635 12.4203C43.468 12.4203 45.5882 13.5619 47.1531 15.0297L49.7314 12.4514C47.5491 10.3662 44.6446 8.76636 40.5674 8.76636C33.1974 8.76636 27 14.7696 27 22.1396C27 29.5096 33.1974 35.5128 40.5674 35.5128C44.5437 35.5128 47.5453 34.2081 49.8945 31.7618C52.3098 29.3465 53.0592 25.9566 53.0592 23.2152C53.0592 22.3997 52.9971 21.6464 52.8767 21.0096H40.5635ZM114.232 34.989V9.7492H110.543V34.989H114.232ZM63.1653 35.5184C67.9259 35.5184 71.8051 31.8645 71.8051 26.9058C71.8051 21.9122 67.9259 18.2932 63.1653 18.2932C58.4046 18.2932 54.5255 21.9122 54.5255 26.9058C54.5255 31.8645 58.4046 35.5184 63.1653 35.5184ZM63.1653 21.687C65.7747 21.687 68.023 23.8071 68.023 26.9058C68.023 29.9695 65.7747 32.1246 63.1653 32.1246C60.5558 32.1246 58.3076 29.9734 58.3076 26.9058C58.3076 23.8071 60.5558 21.687 63.1653 21.687ZM81.7987 35.5184C86.5594 35.5184 90.4385 31.8645 90.4385 26.9058C90.4385 21.9122 86.5594 18.2932 81.7987 18.2932C77.0381 18.2932 73.1589 21.9161 73.1589 26.9058C73.1589 31.8645 77.0381 35.5184 81.7987 35.5184ZM81.7987 21.687C84.4082 21.687 86.6564 23.8071 86.6564 26.9058C86.6564 29.9695 84.4082 32.1246 81.7987 32.1246C79.1893 32.1246 76.941 29.9734 76.941 26.9058C76.941 23.8071 79.1893 21.687 81.7987 21.687ZM108.314 18.8174V34.2758C108.314 40.6363 104.563 43.234 100.128 43.234C95.9541 43.234 93.4418 40.4421 92.4943 38.1589L95.7872 36.7882C96.3735 38.19 97.8102 39.8441 100.125 39.8441C102.963 39.8441 104.722 38.0929 104.722 34.7962V33.5575H104.59C103.744 34.602 102.113 35.5145 100.055 35.5145C95.7483 35.5145 91.8032 31.7635 91.8032 26.9369C91.8032 22.0753 95.7483 18.2932 100.055 18.2932C102.109 18.2932 103.74 19.2057 104.59 20.2192H104.722V18.8174H108.314ZM104.99 26.9369C104.99 23.9042 102.967 21.687 100.392 21.687C97.7831 21.687 95.5969 23.9042 95.5969 26.9369C95.5969 29.9385 97.7831 32.1246 100.392 32.1246C102.967 32.1246 104.99 29.9385 104.99 26.9369ZM128.61 29.7388L131.545 31.6959C130.598 33.0976 128.314 35.5129 124.369 35.5129C119.477 35.5129 115.823 31.7308 115.823 26.9003C115.823 21.7785 119.508 18.2877 123.946 18.2877C128.415 18.2877 130.602 21.8446 131.316 23.7667L131.708 24.7452L120.195 29.5136C121.076 31.2415 122.447 32.123 124.369 32.123C126.295 32.123 127.631 31.1755 128.61 29.7388ZM119.574 26.6401L127.27 23.4444C126.847 22.3688 125.573 21.6193 124.074 21.6193C122.152 21.6193 119.477 23.3162 119.574 26.6401Z" clip-rule="evenodd" fill-rule="evenodd"></path>
</svg>
