<svg xmlns="http://www.w3.org/2000/svg" xmlns:xlink="http://www.w3.org/1999/xlink" width="1200" zoomAndPan="magnify" viewBox="0 0 900 1124.99995" height="1500" preserveAspectRatio="xMidYMid meet" version="1.0"><defs><clipPath id="3b592e7f45"><path d="M 270 333.347656 L 630 333.347656 L 630 693.347656 L 270 693.347656 Z M 270 333.347656 " clip-rule="nonzero"/></clipPath><clipPath id="cc9c906837"><path d="M 270 333.347656 L 630 333.347656 L 630 693.347656 L 270 693.347656 Z M 270 333.347656 " clip-rule="nonzero"/></clipPath></defs><rect x="-90" width="1080" fill="#ffffff" y="-112.499995" height="1349.99994" fill-opacity="1"/><rect x="-90" width="1080" fill="#393535" y="-112.499995" height="1349.99994" fill-opacity="1"/><g clip-path="url(#3b592e7f45)"><path fill="#e6e6e6" d="M 630 513.34375 C 630 516.292969 629.925781 519.234375 629.78125 522.175781 C 629.636719 525.121094 629.421875 528.054688 629.132812 530.988281 C 628.84375 533.917969 628.484375 536.84375 628.050781 539.757812 C 627.621094 542.671875 627.117188 545.570312 626.542969 548.460938 C 625.964844 551.351562 625.320312 554.222656 624.605469 557.082031 C 623.890625 559.9375 623.105469 562.777344 622.25 565.597656 C 621.394531 568.414062 620.46875 571.210938 619.476562 573.984375 C 618.484375 576.757812 617.425781 579.507812 616.296875 582.226562 C 615.171875 584.949219 613.976562 587.640625 612.71875 590.304688 C 611.457031 592.96875 610.132812 595.597656 608.746094 598.195312 C 607.355469 600.792969 605.90625 603.355469 604.390625 605.882812 C 602.875 608.410156 601.300781 610.898438 599.664062 613.347656 C 598.027344 615.796875 596.332031 618.203125 594.578125 620.570312 C 592.824219 622.9375 591.011719 625.257812 589.140625 627.535156 C 587.273438 629.8125 585.347656 632.042969 583.371094 634.226562 C 581.394531 636.410156 579.363281 638.542969 577.277344 640.625 C 575.195312 642.707031 573.0625 644.738281 570.878906 646.714844 C 568.699219 648.695312 566.46875 650.617188 564.191406 652.488281 C 561.914062 654.355469 559.59375 656.167969 557.226562 657.921875 C 554.859375 659.675781 552.453125 661.371094 550.003906 663.007812 C 547.554688 664.644531 545.066406 666.222656 542.539062 667.734375 C 540.011719 669.25 537.449219 670.703125 534.851562 672.089844 C 532.253906 673.480469 529.621094 674.804688 526.960938 676.0625 C 524.296875 677.324219 521.605469 678.515625 518.882812 679.644531 C 516.160156 680.769531 513.414062 681.832031 510.640625 682.824219 C 507.867188 683.816406 505.070312 684.738281 502.25 685.59375 C 499.433594 686.449219 496.59375 687.234375 493.738281 687.949219 C 490.878906 688.667969 488.003906 689.3125 485.117188 689.886719 C 482.226562 690.460938 479.324219 690.964844 476.410156 691.398438 C 473.496094 691.828125 470.574219 692.191406 467.644531 692.476562 C 464.710938 692.765625 461.773438 692.984375 458.832031 693.128906 C 455.890625 693.273438 452.945312 693.34375 450 693.34375 C 447.054688 693.34375 444.109375 693.273438 441.167969 693.128906 C 438.226562 692.984375 435.289062 692.765625 432.355469 692.476562 C 429.425781 692.191406 426.503906 691.828125 423.589844 691.398438 C 420.675781 690.964844 417.773438 690.460938 414.882812 689.886719 C 411.996094 689.3125 409.121094 688.667969 406.261719 687.949219 C 403.40625 687.234375 400.566406 686.449219 397.75 685.59375 C 394.929688 684.738281 392.132812 683.816406 389.359375 682.824219 C 386.585938 681.832031 383.839844 680.769531 381.117188 679.644531 C 378.394531 678.515625 375.703125 677.324219 373.039062 676.0625 C 370.378906 674.804688 367.746094 673.480469 365.148438 672.089844 C 362.550781 670.703125 359.988281 669.25 357.460938 667.734375 C 354.933594 666.222656 352.445312 664.644531 349.996094 663.007812 C 347.546875 661.371094 345.140625 659.675781 342.773438 657.921875 C 340.40625 656.167969 338.085938 654.355469 335.808594 652.488281 C 333.53125 650.617188 331.300781 648.695312 329.121094 646.714844 C 326.9375 644.738281 324.804688 642.707031 322.71875 640.625 C 320.636719 638.542969 318.605469 636.410156 316.628906 634.226562 C 314.648438 632.042969 312.726562 629.8125 310.859375 627.535156 C 308.988281 625.257812 307.175781 622.9375 305.421875 620.570312 C 303.667969 618.203125 301.972656 615.796875 300.335938 613.347656 C 298.699219 610.898438 297.125 608.410156 295.609375 605.882812 C 294.09375 603.355469 292.644531 600.792969 291.253906 598.195312 C 289.867188 595.597656 288.542969 592.96875 287.28125 590.304688 C 286.023438 587.640625 284.828125 584.949219 283.703125 582.226562 C 282.574219 579.507812 281.515625 576.757812 280.523438 573.984375 C 279.53125 571.210938 278.605469 568.414062 277.75 565.597656 C 276.894531 562.777344 276.109375 559.9375 275.394531 557.082031 C 274.679688 554.222656 274.035156 551.351562 273.457031 548.460938 C 272.882812 545.570312 272.378906 542.671875 271.949219 539.757812 C 271.515625 536.84375 271.15625 533.921875 270.867188 530.988281 C 270.578125 528.058594 270.359375 525.121094 270.214844 522.175781 C 270.070312 519.234375 270 516.292969 270 513.34375 C 270 510.398438 270.070312 507.457031 270.214844 504.511719 C 270.359375 501.570312 270.578125 498.632812 270.867188 495.703125 C 271.15625 492.769531 271.515625 489.847656 271.949219 486.933594 C 272.378906 484.019531 272.882812 481.117188 273.457031 478.230469 C 274.035156 475.339844 274.679688 472.464844 275.394531 469.609375 C 276.109375 466.75 276.894531 463.914062 277.75 461.09375 C 278.605469 458.273438 279.53125 455.480469 280.523438 452.703125 C 281.515625 449.929688 282.574219 447.183594 283.703125 444.460938 C 284.828125 441.742188 286.023438 439.046875 287.28125 436.386719 C 288.542969 433.722656 289.867188 431.089844 291.253906 428.492188 C 292.644531 425.894531 294.09375 423.332031 295.609375 420.808594 C 297.125 418.28125 298.699219 415.792969 300.335938 413.34375 C 301.972656 410.894531 303.667969 408.484375 305.421875 406.121094 C 307.175781 403.753906 308.988281 401.429688 310.859375 399.15625 C 312.726562 396.878906 314.648438 394.648438 316.628906 392.464844 C 318.605469 390.28125 320.636719 388.148438 322.71875 386.066406 C 324.804688 383.984375 326.9375 381.953125 329.121094 379.972656 C 331.300781 377.996094 333.53125 376.070312 335.808594 374.203125 C 338.085938 372.335938 340.40625 370.523438 342.773438 368.769531 C 345.140625 367.011719 347.546875 365.316406 349.996094 363.679688 C 352.445312 362.042969 354.933594 360.46875 357.460938 358.953125 C 359.988281 357.441406 362.550781 355.988281 365.148438 354.597656 C 367.746094 353.210938 370.378906 351.886719 373.039062 350.628906 C 375.703125 349.367188 378.394531 348.175781 381.117188 347.046875 C 383.839844 345.917969 386.585938 344.859375 389.359375 343.867188 C 392.132812 342.875 394.929688 341.953125 397.75 341.097656 C 400.566406 340.242188 403.40625 339.457031 406.261719 338.738281 C 409.121094 338.023438 411.996094 337.378906 414.882812 336.804688 C 417.773438 336.230469 420.675781 335.726562 423.589844 335.292969 C 426.503906 334.859375 429.425781 334.5 432.355469 334.210938 C 435.289062 333.921875 438.226562 333.707031 441.167969 333.5625 C 444.109375 333.417969 447.054688 333.34375 450 333.34375 C 452.945312 333.34375 455.890625 333.417969 458.832031 333.5625 C 461.773438 333.707031 464.710938 333.921875 467.644531 334.210938 C 470.574219 334.5 473.496094 334.859375 476.410156 335.292969 C 479.324219 335.726562 482.226562 336.230469 485.117188 336.804688 C 488.003906 337.378906 490.878906 338.023438 493.738281 338.738281 C 496.59375 339.457031 499.433594 340.242188 502.25 341.097656 C 505.070312 341.953125 507.867188 342.875 510.640625 343.867188 C 513.414062 344.859375 516.160156 345.917969 518.882812 347.046875 C 521.605469 348.175781 524.296875 349.367188 526.960938 350.628906 C 529.621094 351.886719 532.253906 353.210938 534.851562 354.597656 C 537.449219 355.988281 540.011719 357.441406 542.539062 358.953125 C 545.066406 360.46875 547.554688 362.042969 550.003906 363.679688 C 552.453125 365.316406 554.859375 367.011719 557.226562 368.769531 C 559.59375 370.523438 561.914062 372.335938 564.191406 374.203125 C 566.46875 376.070312 568.699219 377.996094 570.878906 379.972656 C 573.0625 381.953125 575.195312 383.984375 577.277344 386.066406 C 579.363281 388.148438 581.394531 390.28125 583.371094 392.464844 C 585.347656 394.648438 587.273438 396.878906 589.140625 399.15625 C 591.011719 401.429688 592.824219 403.753906 594.578125 406.121094 C 596.332031 408.484375 598.027344 410.894531 599.664062 413.34375 C 601.300781 415.792969 602.875 418.28125 604.390625 420.808594 C 605.90625 423.332031 607.355469 425.894531 608.746094 428.492188 C 610.132812 431.089844 611.457031 433.722656 612.71875 436.386719 C 613.976562 439.046875 615.171875 441.742188 616.296875 444.460938 C 617.425781 447.183594 618.484375 449.929688 619.476562 452.703125 C 620.46875 455.480469 621.394531 458.273438 622.25 461.09375 C 623.105469 463.914062 623.890625 466.75 624.605469 469.609375 C 625.320312 472.464844 625.964844 475.339844 626.542969 478.230469 C 627.117188 481.117188 627.621094 484.019531 628.050781 486.933594 C 628.484375 489.847656 628.84375 492.769531 629.132812 495.703125 C 629.421875 498.632812 629.636719 501.570312 629.78125 504.511719 C 629.925781 507.457031 630 510.398438 630 513.34375 Z M 630 513.34375 " fill-opacity="1" fill-rule="nonzero"/></g><path fill="#1a1617" d="M 394.359375 542.917969 C 393.738281 543.410156 392.820312 543.609375 390.460938 544.425781 C 378.066406 548.722656 365.738281 553.804688 353.476562 559.804688 C 345.738281 563.574219 346.492188 562.199219 343.148438 570.035156 C 334.523438 590.097656 326.328125 611.082031 320.296875 631.246094 C 340.589844 653.117188 366.359375 669.835938 395.410156 679.246094 C 406.328125 682.199219 417.671875 684.625 429.246094 686.625 C 435.476562 687.34375 441.835938 687.773438 448.261719 687.835938 L 452.230469 687.835938 C 458.492188 687.738281 464.65625 687.34375 470.753906 686.625 C 482.296875 684.625 493.671875 682.199219 504.589844 679.246094 C 533.640625 669.835938 559.378906 653.117188 579.707031 631.246094 C 573.671875 611.082031 565.476562 590.097656 556.851562 570.035156 C 553.507812 562.199219 554.261719 563.574219 546.492188 559.804688 C 534.261719 553.804688 521.933594 548.722656 509.542969 544.425781 C 507.871094 543.835938 506.953125 543.574219 506.296875 543.3125 L 506.132812 542.917969 C 503.769531 538.855469 500.984375 535.082031 497.804688 531.542969 C 512.851562 532.589844 525.082031 528.855469 532.753906 519.574219 C 540.164062 510.558594 540.589844 503.871094 540.984375 492.953125 C 541.738281 471.542969 540.097656 448.527344 534.195312 427.082031 C 528.460938 406.132812 518.6875 386.691406 503.179688 371.738281 C 488.328125 357.445312 470.984375 346.164062 450 346.164062 C 435.214844 346.164062 422.394531 348.886719 413.34375 363.214844 C 404.425781 362.066406 399.574219 366.035156 393.640625 371.738281 C 378.132812 386.691406 368.359375 406.132812 362.625 427.082031 C 356.722656 448.527344 355.082031 471.542969 355.835938 492.953125 C 356.230469 503.871094 356.625 510.558594 364.066406 519.574219 C 372.261719 529.507812 385.707031 533.082031 402.195312 531.28125 L 402.394531 531.28125 C 399.34375 534.753906 396.6875 538.65625 394.359375 542.917969 Z M 394.359375 542.917969 " fill-opacity="1" fill-rule="nonzero"/><path fill="#3d3d3d" d="M 402.195312 531.3125 C 405.441406 527.835938 409.3125 524.589844 413.640625 521.507812 L 415.902344 511.019531 C 408.066406 501.902344 402.164062 489.707031 399.214844 475.773438 C 393.277344 475.902344 387.015625 468.984375 384.589844 459.082031 C 382.625 451.214844 382.492188 444.855469 384.6875 440.820312 C 388.425781 433.96875 395.113281 438.230469 397.769531 443.3125 C 400.230469 422.527344 409.050781 404.691406 421.410156 393.738281 C 430.359375 403.835938 440.953125 412.199219 454.886719 413.738281 C 481.542969 416.691406 495.640625 426.164062 502.066406 441.902344 C 505.082031 437.507812 510.886719 434.625 514.296875 440.820312 C 516.460938 444.855469 516.328125 451.214844 514.394531 459.082031 C 512.097656 468.394531 506.425781 475.082031 500.820312 475.707031 C 497.933594 489.179688 492.359375 501.019531 484.917969 510.035156 L 484.753906 511.019531 L 487.148438 522.066406 C 490.886719 524.589844 494.625 527.773438 497.640625 531.609375 C 512.753906 532.691406 525.050781 528.953125 532.753906 519.640625 C 540.164062 510.625 540.589844 503.9375 540.984375 493.019531 C 541.738281 471.609375 540.097656 448.558594 534.195312 427.117188 C 528.460938 406.164062 518.6875 386.722656 503.179688 371.804688 C 488.328125 357.507812 470.984375 346.199219 450 346.199219 C 435.214844 346.199219 422.394531 348.953125 413.34375 363.246094 C 404.425781 362.101562 399.574219 366.101562 393.640625 371.804688 C 378.132812 386.722656 368.359375 406.164062 362.625 427.117188 C 356.722656 448.558594 355.082031 471.609375 355.835938 493.019531 C 356.230469 503.9375 356.625 510.625 364.066406 519.640625 C 372.261719 529.574219 385.707031 533.148438 402.195312 531.3125 Z M 402.195312 531.3125 " fill-opacity="1" fill-rule="nonzero"/><path fill="#f6d5b8" d="M 502.066406 441.902344 C 505.082031 437.507812 510.886719 434.625 514.296875 440.820312 C 516.460938 444.855469 516.328125 451.214844 514.394531 459.082031 C 512.097656 468.394531 506.425781 475.082031 500.820312 475.707031 C 497.933594 489.179688 492.359375 501.019531 484.917969 510.035156 L 484.753906 511.019531 L 487.050781 521.542969 L 486.851562 521.507812 C 487.050781 522.132812 487.246094 522.722656 487.410156 523.3125 L 487.507812 523.671875 C 488.296875 526.558594 489.050781 529.609375 489.707031 532.855469 C 494.261719 558.984375 484.917969 583.445312 473.902344 608.789062 C 467.804688 615.28125 458.65625 620.296875 450.328125 619.9375 C 441.871094 620.296875 432.523438 615.117188 426.460938 608.425781 C 416.195312 584.855469 407.441406 562 410.066406 537.835938 C 410.851562 532.753906 411.96875 527.96875 413.179688 523.671875 L 413.640625 521.507812 L 415.902344 511.019531 C 408.066406 501.902344 402.164062 489.707031 399.214844 475.773438 C 393.277344 475.902344 387.015625 468.984375 384.589844 459.082031 C 382.625 451.214844 382.492188 444.855469 384.6875 440.820312 C 388.425781 433.96875 395.113281 438.230469 397.769531 443.3125 C 400.230469 422.527344 409.050781 404.691406 421.410156 393.738281 C 430.359375 403.835938 440.953125 412.199219 454.886719 413.738281 C 481.542969 416.691406 495.640625 426.164062 502.066406 441.902344 Z M 502.066406 441.902344 " fill-opacity="1" fill-rule="nonzero"/><path fill="#e6c6aa" d="M 398.753906 473.542969 C 397.574219 468.097656 396.953125 462.589844 396.820312 457.050781 C 396.722656 453.476562 396.851562 449.9375 397.179688 446.363281 C 396.886719 445.96875 396.589844 445.574219 396.230469 445.179688 C 395.117188 443.96875 393.082031 442.394531 391.246094 442.527344 C 389.871094 442.65625 388.984375 443.773438 388.425781 444.820312 C 386.097656 449.019531 387.640625 456.066406 388.886719 460.363281 C 389.96875 464.035156 391.871094 467.835938 394.65625 470.65625 C 395.738281 471.773438 397.179688 472.886719 398.753906 473.542969 Z M 500.917969 473.542969 C 502.097656 468.097656 502.722656 462.589844 502.851562 457.050781 C 502.953125 453.476562 502.820312 449.9375 502.492188 446.363281 C 502.789062 445.96875 503.082031 445.574219 503.441406 445.179688 C 504.558594 443.96875 506.589844 442.394531 508.425781 442.527344 C 509.804688 442.65625 510.6875 443.773438 511.277344 444.820312 C 513.574219 449.019531 512.03125 456.066406 510.789062 460.363281 C 509.707031 464.035156 507.804688 467.835938 505.015625 470.65625 C 503.933594 471.773438 502.523438 472.886719 500.917969 473.542969 Z M 500.917969 473.542969 " fill-opacity="1" fill-rule="nonzero"/><path fill="#e6c6aa" d="M 415.902344 511.019531 Z M 487.050781 521.542969 L 484.753906 511.019531 L 484.917969 510.035156 C 475.605469 521.3125 463.378906 528.164062 450 528.164062 C 437.015625 528.164062 425.113281 521.707031 415.902344 511.019531 L 415.246094 514 C 419.082031 519.179688 423.476562 523.28125 428.359375 526.492188 C 434.953125 530.789062 442.394531 533.476562 450.523438 534.953125 C 458.953125 536.492188 468.097656 536.722656 477.707031 536.132812 C 480.195312 535.96875 479.804688 535.542969 480.460938 538 C 488.425781 569.246094 474.851562 620.199219 426.753906 608.753906 C 432.820312 615.28125 442 620.296875 450.328125 619.9375 C 458.65625 620.296875 467.804688 615.28125 473.902344 608.789062 C 485.835938 581.3125 496.953125 551.542969 487.050781 521.542969 Z M 487.050781 521.542969 " fill-opacity="1" fill-rule="nonzero"/><path fill="#e6c6aa" d="M 502.066406 441.902344 C 495.640625 426.164062 481.542969 416.691406 454.886719 413.738281 C 440.953125 412.199219 430.359375 403.835938 421.410156 393.738281 C 409.050781 404.691406 400.230469 422.527344 397.769531 443.28125 C 404.886719 428.589844 410.492188 411.738281 421.050781 401.378906 C 434.753906 433.804688 481.34375 413.476562 502.066406 441.902344 Z M 502.066406 441.902344 " fill-opacity="1" fill-rule="nonzero"/><path fill="#383032" d="M 506.132812 542.917969 C 507.769531 546.492188 509.179688 550.164062 510.296875 553.9375 C 511.410156 557.707031 512.230469 561.609375 512.722656 565.609375 C 512.851562 566.722656 513.015625 567.34375 512.984375 567.9375 C 512.984375 568.492188 512.753906 569.050781 512.132812 569.96875 C 510.886719 571.871094 509.410156 573.609375 507.671875 575.28125 C 505.933594 576.917969 503.96875 578.460938 501.804688 579.9375 L 509.605469 588.261719 L 517.441406 596.589844 L 483.835938 639.476562 L 450.261719 682.363281 L 383.050781 596.589844 L 390.886719 588.261719 L 398.6875 579.933594 C 396.523438 578.460938 394.558594 576.917969 392.820312 575.28125 C 391.117188 573.609375 389.605469 571.871094 388.359375 569.96875 C 387.738281 569.050781 387.507812 568.492188 387.507812 567.9375 C 387.476562 567.34375 387.640625 566.722656 387.769531 565.609375 C 388.261719 561.609375 389.082031 557.707031 390.199219 553.9375 C 391.3125 550.164062 392.722656 546.492188 394.359375 542.917969 C 396.789062 538.492188 399.542969 534.460938 402.753906 530.855469 C 405.933594 527.246094 409.542969 524.132812 413.640625 521.507812 C 405.015625 547.609375 411.441406 571.804688 421.378906 596.394531 C 431.3125 621.015625 444.789062 646.066406 450.261719 673.933594 C 455.707031 646.066406 469.214844 621.015625 479.214844 596.425781 C 489.214844 571.804688 495.671875 547.640625 487.050781 521.542969 C 491.050781 524.625 494.625 527.902344 497.804688 531.476562 C 500.984375 535.015625 503.769531 538.820312 506.132812 542.917969 Z M 506.132812 542.917969 " fill-opacity="1" fill-rule="nonzero"/><path fill="#ffffff" d="M 450.261719 673.9375 C 454.789062 650.722656 464.886719 629.476562 473.902344 608.789062 C 467.804688 615.28125 458.65625 620.296875 450.328125 619.9375 C 442 620.296875 432.820312 615.28125 426.753906 608.753906 C 426.65625 608.65625 426.558594 608.527344 426.460938 608.425781 C 435.476562 629.214844 445.671875 650.589844 450.261719 673.9375 Z M 450.261719 673.9375 " fill-opacity="1" fill-rule="nonzero"/><g clip-path="url(#cc9c906837)"><path fill="#e6e6e6" d="M 630 513.34375 C 630 516.292969 629.925781 519.234375 629.78125 522.175781 C 629.636719 525.121094 629.421875 528.054688 629.132812 530.988281 C 628.84375 533.917969 628.484375 536.84375 628.050781 539.757812 C 627.621094 542.671875 627.117188 545.570312 626.542969 548.460938 C 625.964844 551.351562 625.320312 554.222656 624.605469 557.082031 C 623.890625 559.9375 623.105469 562.777344 622.25 565.597656 C 621.394531 568.414062 620.46875 571.210938 619.476562 573.984375 C 618.484375 576.757812 617.425781 579.507812 616.296875 582.226562 C 615.171875 584.949219 613.976562 587.640625 612.71875 590.304688 C 611.457031 592.96875 610.132812 595.597656 608.746094 598.195312 C 607.355469 600.792969 605.90625 603.355469 604.390625 605.882812 C 602.875 608.410156 601.300781 610.898438 599.664062 613.347656 C 598.027344 615.796875 596.332031 618.203125 594.578125 620.570312 C 592.824219 622.9375 591.011719 625.257812 589.140625 627.535156 C 587.273438 629.8125 585.347656 632.042969 583.371094 634.226562 C 581.394531 636.410156 579.363281 638.542969 577.277344 640.625 C 575.195312 642.707031 573.0625 644.738281 570.878906 646.714844 C 568.699219 648.695312 566.46875 650.617188 564.191406 652.488281 C 561.914062 654.355469 559.59375 656.167969 557.226562 657.921875 C 554.859375 659.675781 552.453125 661.371094 550.003906 663.007812 C 547.554688 664.644531 545.066406 666.222656 542.539062 667.734375 C 540.011719 669.25 537.449219 670.703125 534.851562 672.089844 C 532.253906 673.480469 529.621094 674.804688 526.960938 676.0625 C 524.296875 677.324219 521.605469 678.515625 518.882812 679.644531 C 516.160156 680.769531 513.414062 681.832031 510.640625 682.824219 C 507.867188 683.816406 505.070312 684.738281 502.25 685.59375 C 499.433594 686.449219 496.59375 687.234375 493.738281 687.949219 C 490.878906 688.667969 488.003906 689.3125 485.117188 689.886719 C 482.226562 690.460938 479.324219 690.964844 476.410156 691.398438 C 473.496094 691.828125 470.574219 692.191406 467.644531 692.476562 C 464.710938 692.765625 461.773438 692.984375 458.832031 693.128906 C 455.890625 693.273438 452.945312 693.34375 450 693.34375 C 447.054688 693.34375 444.109375 693.273438 441.167969 693.128906 C 438.226562 692.984375 435.289062 692.765625 432.355469 692.476562 C 429.425781 692.191406 426.503906 691.828125 423.589844 691.398438 C 420.675781 690.964844 417.773438 690.460938 414.882812 689.886719 C 411.996094 689.3125 409.121094 688.667969 406.261719 687.949219 C 403.40625 687.234375 400.566406 686.449219 397.75 685.59375 C 394.929688 684.738281 392.132812 683.816406 389.359375 682.824219 C 386.585938 681.832031 383.839844 680.769531 381.117188 679.644531 C 378.394531 678.515625 375.703125 677.324219 373.039062 676.0625 C 370.378906 674.804688 367.746094 673.480469 365.148438 672.089844 C 362.550781 670.703125 359.988281 669.25 357.460938 667.734375 C 354.933594 666.222656 352.445312 664.644531 349.996094 663.007812 C 347.546875 661.371094 345.140625 659.675781 342.773438 657.921875 C 340.40625 656.167969 338.085938 654.355469 335.808594 652.488281 C 333.53125 650.617188 331.300781 648.695312 329.121094 646.714844 C 326.9375 644.738281 324.804688 642.707031 322.71875 640.625 C 320.636719 638.542969 318.605469 636.410156 316.628906 634.226562 C 314.648438 632.042969 312.726562 629.8125 310.859375 627.535156 C 308.988281 625.257812 307.175781 622.9375 305.421875 620.570312 C 303.667969 618.203125 301.972656 615.796875 300.335938 613.347656 C 298.699219 610.898438 297.125 608.410156 295.609375 605.882812 C 294.09375 603.355469 292.644531 600.792969 291.253906 598.195312 C 289.867188 595.597656 288.542969 592.96875 287.28125 590.304688 C 286.023438 587.640625 284.828125 584.949219 283.703125 582.226562 C 282.574219 579.507812 281.515625 576.757812 280.523438 573.984375 C 279.53125 571.210938 278.605469 568.414062 277.75 565.597656 C 276.894531 562.777344 276.109375 559.9375 275.394531 557.082031 C 274.679688 554.222656 274.035156 551.351562 273.457031 548.460938 C 272.882812 545.570312 272.378906 542.671875 271.949219 539.757812 C 271.515625 536.84375 271.15625 533.921875 270.867188 530.988281 C 270.578125 528.058594 270.359375 525.121094 270.214844 522.175781 C 270.070312 519.234375 270 516.292969 270 513.34375 C 270 510.398438 270.070312 507.457031 270.214844 504.511719 C 270.359375 501.570312 270.578125 498.632812 270.867188 495.703125 C 271.15625 492.769531 271.515625 489.847656 271.949219 486.933594 C 272.378906 484.019531 272.882812 481.117188 273.457031 478.230469 C 274.035156 475.339844 274.679688 472.464844 275.394531 469.609375 C 276.109375 466.75 276.894531 463.914062 277.75 461.09375 C 278.605469 458.273438 279.53125 455.480469 280.523438 452.703125 C 281.515625 449.929688 282.574219 447.183594 283.703125 444.460938 C 284.828125 441.742188 286.023438 439.046875 287.28125 436.386719 C 288.542969 433.722656 289.867188 431.089844 291.253906 428.492188 C 292.644531 425.894531 294.09375 423.332031 295.609375 420.808594 C 297.125 418.28125 298.699219 415.792969 300.335938 413.34375 C 301.972656 410.894531 303.667969 408.484375 305.421875 406.121094 C 307.175781 403.753906 308.988281 401.429688 310.859375 399.15625 C 312.726562 396.878906 314.648438 394.648438 316.628906 392.464844 C 318.605469 390.28125 320.636719 388.148438 322.71875 386.066406 C 324.804688 383.984375 326.9375 381.953125 329.121094 379.972656 C 331.300781 377.996094 333.53125 376.070312 335.808594 374.203125 C 338.085938 372.335938 340.40625 370.523438 342.773438 368.769531 C 345.140625 367.011719 347.546875 365.316406 349.996094 363.679688 C 352.445312 362.042969 354.933594 360.46875 357.460938 358.953125 C 359.988281 357.441406 362.550781 355.988281 365.148438 354.597656 C 367.746094 353.210938 370.378906 351.886719 373.039062 350.628906 C 375.703125 349.367188 378.394531 348.175781 381.117188 347.046875 C 383.839844 345.917969 386.585938 344.859375 389.359375 343.867188 C 392.132812 342.875 394.929688 341.953125 397.75 341.097656 C 400.566406 340.242188 403.40625 339.457031 406.261719 338.738281 C 409.121094 338.023438 411.996094 337.378906 414.882812 336.804688 C 417.773438 336.230469 420.675781 335.726562 423.589844 335.292969 C 426.503906 334.859375 429.425781 334.5 432.355469 334.210938 C 435.289062 333.921875 438.226562 333.707031 441.167969 333.5625 C 444.109375 333.417969 447.054688 333.34375 450 333.34375 C 452.945312 333.34375 455.890625 333.417969 458.832031 333.5625 C 461.773438 333.707031 464.710938 333.921875 467.644531 334.210938 C 470.574219 334.5 473.496094 334.859375 476.410156 335.292969 C 479.324219 335.726562 482.226562 336.230469 485.117188 336.804688 C 488.003906 337.378906 490.878906 338.023438 493.738281 338.738281 C 496.59375 339.457031 499.433594 340.242188 502.25 341.097656 C 505.070312 341.953125 507.867188 342.875 510.640625 343.867188 C 513.414062 344.859375 516.160156 345.917969 518.882812 347.046875 C 521.605469 348.175781 524.296875 349.367188 526.960938 350.628906 C 529.621094 351.886719 532.253906 353.210938 534.851562 354.597656 C 537.449219 355.988281 540.011719 357.441406 542.539062 358.953125 C 545.066406 360.46875 547.554688 362.042969 550.003906 363.679688 C 552.453125 365.316406 554.859375 367.011719 557.226562 368.769531 C 559.59375 370.523438 561.914062 372.335938 564.191406 374.203125 C 566.46875 376.070312 568.699219 377.996094 570.878906 379.972656 C 573.0625 381.953125 575.195312 383.984375 577.277344 386.066406 C 579.363281 388.148438 581.394531 390.28125 583.371094 392.464844 C 585.347656 394.648438 587.273438 396.878906 589.140625 399.15625 C 591.011719 401.429688 592.824219 403.753906 594.578125 406.121094 C 596.332031 408.484375 598.027344 410.894531 599.664062 413.34375 C 601.300781 415.792969 602.875 418.28125 604.390625 420.808594 C 605.90625 423.332031 607.355469 425.894531 608.746094 428.492188 C 610.132812 431.089844 611.457031 433.722656 612.71875 436.386719 C 613.976562 439.046875 615.171875 441.742188 616.296875 444.460938 C 617.425781 447.183594 618.484375 449.929688 619.476562 452.703125 C 620.46875 455.480469 621.394531 458.273438 622.25 461.09375 C 623.105469 463.914062 623.890625 466.75 624.605469 469.609375 C 625.320312 472.464844 625.964844 475.339844 626.542969 478.230469 C 627.117188 481.117188 627.621094 484.019531 628.050781 486.933594 C 628.484375 489.847656 628.84375 492.769531 629.132812 495.703125 C 629.421875 498.632812 629.636719 501.570312 629.78125 504.511719 C 629.925781 507.457031 630 510.398438 630 513.34375 Z M 630 513.34375 " fill-opacity="1" fill-rule="nonzero"/></g><path fill="#1a1617" d="M 394.359375 542.917969 C 393.738281 543.410156 392.820312 543.609375 390.460938 544.425781 C 378.066406 548.722656 365.738281 553.804688 353.476562 559.804688 C 345.738281 563.574219 346.492188 562.199219 343.148438 570.035156 C 334.523438 590.097656 326.328125 611.082031 320.296875 631.246094 C 340.589844 653.117188 366.359375 669.835938 395.410156 679.246094 C 406.328125 682.199219 417.671875 684.625 429.246094 686.625 C 435.476562 687.34375 441.835938 687.773438 448.261719 687.835938 L 452.230469 687.835938 C 458.492188 687.738281 464.65625 687.34375 470.753906 686.625 C 482.296875 684.625 493.671875 682.199219 504.589844 679.246094 C 533.640625 669.835938 559.378906 653.117188 579.707031 631.246094 C 573.671875 611.082031 565.476562 590.097656 556.851562 570.035156 C 553.507812 562.199219 554.261719 563.574219 546.492188 559.804688 C 534.261719 553.804688 521.933594 548.722656 509.542969 544.425781 C 507.871094 543.835938 506.953125 543.574219 506.296875 543.3125 L 506.132812 542.917969 C 503.769531 538.855469 500.984375 535.082031 497.804688 531.542969 C 512.851562 532.589844 525.082031 528.855469 532.753906 519.574219 C 540.164062 510.558594 540.589844 503.871094 540.984375 492.953125 C 541.738281 471.542969 540.097656 448.527344 534.195312 427.082031 C 528.460938 406.132812 518.6875 386.691406 503.179688 371.738281 C 488.328125 357.445312 470.984375 346.164062 450 346.164062 C 435.214844 346.164062 422.394531 348.886719 413.34375 363.214844 C 404.425781 362.066406 399.574219 366.035156 393.640625 371.738281 C 378.132812 386.691406 368.359375 406.132812 362.625 427.082031 C 356.722656 448.527344 355.082031 471.542969 355.835938 492.953125 C 356.230469 503.871094 356.625 510.558594 364.066406 519.574219 C 372.261719 529.507812 385.707031 533.082031 402.195312 531.28125 L 402.394531 531.28125 C 399.34375 534.753906 396.6875 538.65625 394.359375 542.917969 Z M 394.359375 542.917969 " fill-opacity="1" fill-rule="nonzero"/><path fill="#3d3d3d" d="M 402.195312 531.3125 C 405.441406 527.835938 409.3125 524.589844 413.640625 521.507812 L 415.902344 511.019531 C 408.066406 501.902344 402.164062 489.707031 399.214844 475.773438 C 393.277344 475.902344 387.015625 468.984375 384.589844 459.082031 C 382.625 451.214844 382.492188 444.855469 384.6875 440.820312 C 388.425781 433.96875 395.113281 438.230469 397.769531 443.3125 C 400.230469 422.527344 409.050781 404.691406 421.410156 393.738281 C 430.359375 403.835938 440.953125 412.199219 454.886719 413.738281 C 481.542969 416.691406 495.640625 426.164062 502.066406 441.902344 C 505.082031 437.507812 510.886719 434.625 514.296875 440.820312 C 516.460938 444.855469 516.328125 451.214844 514.394531 459.082031 C 512.097656 468.394531 506.425781 475.082031 500.820312 475.707031 C 497.933594 489.179688 492.359375 501.019531 484.917969 510.035156 L 484.753906 511.019531 L 487.148438 522.066406 C 490.886719 524.589844 494.625 527.773438 497.640625 531.609375 C 512.753906 532.691406 525.050781 528.953125 532.753906 519.640625 C 540.164062 510.625 540.589844 503.9375 540.984375 493.019531 C 541.738281 471.609375 540.097656 448.558594 534.195312 427.117188 C 528.460938 406.164062 518.6875 386.722656 503.179688 371.804688 C 488.328125 357.507812 470.984375 346.199219 450 346.199219 C 435.214844 346.199219 422.394531 348.953125 413.34375 363.246094 C 404.425781 362.101562 399.574219 366.101562 393.640625 371.804688 C 378.132812 386.722656 368.359375 406.164062 362.625 427.117188 C 356.722656 448.558594 355.082031 471.609375 355.835938 493.019531 C 356.230469 503.9375 356.625 510.625 364.066406 519.640625 C 372.261719 529.574219 385.707031 533.148438 402.195312 531.3125 Z M 402.195312 531.3125 " fill-opacity="1" fill-rule="nonzero"/><path fill="#f6d5b8" d="M 502.066406 441.902344 C 505.082031 437.507812 510.886719 434.625 514.296875 440.820312 C 516.460938 444.855469 516.328125 451.214844 514.394531 459.082031 C 512.097656 468.394531 506.425781 475.082031 500.820312 475.707031 C 497.933594 489.179688 492.359375 501.019531 484.917969 510.035156 L 484.753906 511.019531 L 487.050781 521.542969 L 486.851562 521.507812 C 487.050781 522.132812 487.246094 522.722656 487.410156 523.3125 L 487.507812 523.671875 C 488.296875 526.558594 489.050781 529.609375 489.707031 532.855469 C 494.261719 558.984375 484.917969 583.445312 473.902344 608.789062 C 467.804688 615.28125 458.65625 620.296875 450.328125 619.9375 C 441.871094 620.296875 432.523438 615.117188 426.460938 608.425781 C 416.195312 584.855469 407.441406 562 410.066406 537.835938 C 410.851562 532.753906 411.96875 527.96875 413.179688 523.671875 L 413.640625 521.507812 L 415.902344 511.019531 C 408.066406 501.902344 402.164062 489.707031 399.214844 475.773438 C 393.277344 475.902344 387.015625 468.984375 384.589844 459.082031 C 382.625 451.214844 382.492188 444.855469 384.6875 440.820312 C 388.425781 433.96875 395.113281 438.230469 397.769531 443.3125 C 400.230469 422.527344 409.050781 404.691406 421.410156 393.738281 C 430.359375 403.835938 440.953125 412.199219 454.886719 413.738281 C 481.542969 416.691406 495.640625 426.164062 502.066406 441.902344 Z M 502.066406 441.902344 " fill-opacity="1" fill-rule="nonzero"/><path fill="#e6c6aa" d="M 398.753906 473.542969 C 397.574219 468.097656 396.953125 462.589844 396.820312 457.050781 C 396.722656 453.476562 396.851562 449.9375 397.179688 446.363281 C 396.886719 445.96875 396.589844 445.574219 396.230469 445.179688 C 395.117188 443.96875 393.082031 442.394531 391.246094 442.527344 C 389.871094 442.65625 388.984375 443.773438 388.425781 444.820312 C 386.097656 449.019531 387.640625 456.066406 388.886719 460.363281 C 389.96875 464.035156 391.871094 467.835938 394.65625 470.65625 C 395.738281 471.773438 397.179688 472.886719 398.753906 473.542969 Z M 500.917969 473.542969 C 502.097656 468.097656 502.722656 462.589844 502.851562 457.050781 C 502.953125 453.476562 502.820312 449.9375 502.492188 446.363281 C 502.789062 445.96875 503.082031 445.574219 503.441406 445.179688 C 504.558594 443.96875 506.589844 442.394531 508.425781 442.527344 C 509.804688 442.65625 510.6875 443.773438 511.277344 444.820312 C 513.574219 449.019531 512.03125 456.066406 510.789062 460.363281 C 509.707031 464.035156 507.804688 467.835938 505.015625 470.65625 C 503.933594 471.773438 502.523438 472.886719 500.917969 473.542969 Z M 500.917969 473.542969 " fill-opacity="1" fill-rule="nonzero"/><path fill="#e6c6aa" d="M 415.902344 511.019531 Z M 487.050781 521.542969 L 484.753906 511.019531 L 484.917969 510.035156 C 475.605469 521.3125 463.378906 528.164062 450 528.164062 C 437.015625 528.164062 425.113281 521.707031 415.902344 511.019531 L 415.246094 514 C 419.082031 519.179688 423.476562 523.28125 428.359375 526.492188 C 434.953125 530.789062 442.394531 533.476562 450.523438 534.953125 C 458.953125 536.492188 468.097656 536.722656 477.707031 536.132812 C 480.195312 535.96875 479.804688 535.542969 480.460938 538 C 488.425781 569.246094 474.851562 620.199219 426.753906 608.753906 C 432.820312 615.28125 442 620.296875 450.328125 619.9375 C 458.65625 620.296875 467.804688 615.28125 473.902344 608.789062 C 485.835938 581.3125 496.953125 551.542969 487.050781 521.542969 Z M 487.050781 521.542969 " fill-opacity="1" fill-rule="nonzero"/><path fill="#e6c6aa" d="M 502.066406 441.902344 C 495.640625 426.164062 481.542969 416.691406 454.886719 413.738281 C 440.953125 412.199219 430.359375 403.835938 421.410156 393.738281 C 409.050781 404.691406 400.230469 422.527344 397.769531 443.28125 C 404.886719 428.589844 410.492188 411.738281 421.050781 401.378906 C 434.753906 433.804688 481.34375 413.476562 502.066406 441.902344 Z M 502.066406 441.902344 " fill-opacity="1" fill-rule="nonzero"/><path fill="#383032" d="M 506.132812 542.917969 C 507.769531 546.492188 509.179688 550.164062 510.296875 553.9375 C 511.410156 557.707031 512.230469 561.609375 512.722656 565.609375 C 512.851562 566.722656 513.015625 567.34375 512.984375 567.9375 C 512.984375 568.492188 512.753906 569.050781 512.132812 569.96875 C 510.886719 571.871094 509.410156 573.609375 507.671875 575.28125 C 505.933594 576.917969 503.96875 578.460938 501.804688 579.9375 L 509.605469 588.261719 L 517.441406 596.589844 L 483.835938 639.476562 L 450.261719 682.363281 L 383.050781 596.589844 L 390.886719 588.261719 L 398.6875 579.933594 C 396.523438 578.460938 394.558594 576.917969 392.820312 575.28125 C 391.117188 573.609375 389.605469 571.871094 388.359375 569.96875 C 387.738281 569.050781 387.507812 568.492188 387.507812 567.9375 C 387.476562 567.34375 387.640625 566.722656 387.769531 565.609375 C 388.261719 561.609375 389.082031 557.707031 390.199219 553.9375 C 391.3125 550.164062 392.722656 546.492188 394.359375 542.917969 C 396.789062 538.492188 399.542969 534.460938 402.753906 530.855469 C 405.933594 527.246094 409.542969 524.132812 413.640625 521.507812 C 405.015625 547.609375 411.441406 571.804688 421.378906 596.394531 C 431.3125 621.015625 444.789062 646.066406 450.261719 673.933594 C 455.707031 646.066406 469.214844 621.015625 479.214844 596.425781 C 489.214844 571.804688 495.671875 547.640625 487.050781 521.542969 C 491.050781 524.625 494.625 527.902344 497.804688 531.476562 C 500.984375 535.015625 503.769531 538.820312 506.132812 542.917969 Z M 506.132812 542.917969 " fill-opacity="1" fill-rule="nonzero"/><path fill="#ffffff" d="M 450.261719 673.9375 C 454.789062 650.722656 464.886719 629.476562 473.902344 608.789062 C 467.804688 615.28125 458.65625 620.296875 450.328125 619.9375 C 442 620.296875 432.820312 615.28125 426.753906 608.753906 C 426.65625 608.65625 426.558594 608.527344 426.460938 608.425781 C 435.476562 629.214844 445.671875 650.589844 450.261719 673.9375 Z M 450.261719 673.9375 " fill-opacity="1" fill-rule="nonzero"/></svg>