<svg xmlns="http://www.w3.org/2000/svg" xmlns:xlink="http://www.w3.org/1999/xlink" width="1200" zoomAndPan="magnify" viewBox="0 0 900 1124.99995" height="1500" preserveAspectRatio="xMidYMid meet" version="1.0"><defs><clipPath id="2586089594"><path d="M 270 316 L 630 316 L 630 675.765625 L 270 675.765625 Z M 270 316 " clip-rule="nonzero"/></clipPath><clipPath id="5e0deda518"><path d="M 289 472 L 616 472 L 616 675.765625 L 289 675.765625 Z M 289 472 " clip-rule="nonzero"/></clipPath><clipPath id="40b892b6c7"><path d="M 270 316 L 630 316 L 630 675.765625 L 270 675.765625 Z M 270 316 " clip-rule="nonzero"/></clipPath><clipPath id="f1e86f5436"><path d="M 289 472 L 616 472 L 616 675.765625 L 289 675.765625 Z M 289 472 " clip-rule="nonzero"/></clipPath></defs><rect x="-90" width="1080" fill="#ffffff" y="-112.499995" height="1349.99994" fill-opacity="1"/><rect x="-90" width="1080" fill="#393535" y="-112.499995" height="1349.99994" fill-opacity="1"/><g clip-path="url(#2586089594)"><path fill="#f3a61e" d="M 629.949219 495.917969 C 629.949219 521.222656 624.722656 545.316406 615.253906 567.140625 C 587.660156 631.023438 524.058594 675.734375 450.007812 675.734375 C 375.957031 675.734375 318.570312 635.289062 289.054688 576.351562 C 276.910156 552.15625 270.066406 524.832031 270.066406 495.917969 C 270.066406 396.609375 350.632812 316.125 450.007812 316.125 C 549.382812 316.125 629.949219 396.609375 629.949219 495.917969 Z M 629.949219 495.917969 " fill-opacity="1" fill-rule="nonzero"/></g><g clip-path="url(#5e0deda518)"><path fill="#3d3b3c" d="M 615.253906 567.140625 C 587.660156 631.023438 524.058594 675.734375 450.007812 675.734375 C 375.957031 675.734375 318.570312 635.289062 289.054688 576.351562 C 294.253906 573.449219 300.113281 571.101562 306.652344 569.335938 C 328.894531 563.382812 361.816406 555.660156 361.816406 555.660156 L 371.941406 530.683594 L 370.328125 473.183594 C 370.328125 473.183594 392.773438 471.46875 405.066406 473.183594 C 417.363281 474.875 463.691406 493.570312 463.691406 493.570312 L 489.699219 477.523438 C 489.699219 477.523438 509.820312 475.175781 519.816406 475.707031 C 529.816406 476.261719 542.945312 534.191406 542.945312 534.191406 L 552.539062 550.816406 C 552.539062 550.816406 569.355469 559.066406 592.050781 563.710938 C 601.089844 565.550781 608.613281 565.929688 615.253906 567.140625 Z M 615.253906 567.140625 " fill-opacity="1" fill-rule="nonzero"/></g><path fill="#56352c" d="M 396.070312 433.832031 C 396.070312 433.832031 382.539062 424.480469 379.777344 420.957031 C 377.015625 417.433594 371.066406 409.445312 367.355469 399.941406 C 363.644531 390.4375 352.753906 376.929688 356.75 368.386719 C 360.75 359.839844 381.714844 342.339844 381.714844 342.339844 C 381.714844 342.339844 385.5 318.976562 402.550781 311.792969 C 419.601562 304.601562 473.941406 301.523438 502.441406 316.109375 C 517.082031 323.601562 535.546875 326.148438 540.023438 331.492188 C 540.023438 331.492188 532.230469 332.988281 528.738281 338.875 C 527.511719 340.953125 537.273438 346.914062 538.660156 348.261719 C 546.65625 355.980469 550.644531 354.914062 550.644531 354.914062 C 550.644531 354.914062 541.058594 358.90625 530.40625 357.308594 C 530.40625 357.308594 537.0625 362.632812 544.789062 377.003906 C 552.515625 391.378906 546.117188 397.324219 546.117188 397.324219 C 546.117188 397.324219 547.101562 389.519531 532.222656 386.59375 C 532.222656 386.59375 533.535156 394.339844 530.398438 402.722656 C 527.257812 411.109375 515.746094 424.128906 515.746094 424.128906 L 450 466.179688 L 396.0625 433.824219 Z M 396.070312 433.832031 " fill-opacity="1" fill-rule="nonzero"/><path fill="#da8059" d="M 390.421875 427.230469 C 390.421875 427.230469 384.917969 413.09375 376.351562 414.449219 C 367.785156 415.800781 365.058594 431.519531 369.367188 446.019531 C 373.667969 460.519531 383.128906 474.847656 393.25 467.171875 C 400.953125 461.324219 390.421875 427.230469 390.421875 427.230469 Z M 390.421875 427.230469 " fill-opacity="1" fill-rule="nonzero"/><path fill="#da8059" d="M 509.855469 421.546875 C 509.855469 421.546875 513.566406 407.753906 521.71875 408.140625 C 529.875 408.527344 534.042969 422.976562 531.492188 436.988281 C 528.949219 451.007812 521.550781 465.386719 511.292969 459.230469 C 503.484375 454.546875 509.855469 421.546875 509.855469 421.546875 Z M 509.855469 421.546875 " fill-opacity="1" fill-rule="nonzero"/><path fill="#fbc092" d="M 519.816406 551.09375 L 509.1875 582.078125 L 426.074219 599.964844 L 381.714844 556.972656 C 381.714844 556.972656 401.734375 547.613281 406.027344 537.191406 C 407.542969 533.460938 407.542969 525.992188 406.910156 517.917969 C 405.75 503.382812 402.542969 486.910156 402.542969 486.910156 L 499.570312 481.914062 C 499.570312 481.914062 498.710938 497.179688 498.457031 512.011719 C 498.257812 523.292969 498.410156 534.34375 499.570312 538.277344 C 502.246094 547.359375 519.816406 551.09375 519.816406 551.09375 Z M 519.816406 551.09375 " fill-opacity="1" fill-rule="nonzero"/><path fill="#da8059" d="M 499.570312 481.914062 C 499.570312 481.914062 498.710938 497.179688 498.457031 512.011719 C 483.6875 526.015625 458.515625 548.75 439 545.871094 C 425.390625 543.878906 412.273438 533.460938 406.910156 517.917969 C 405.75 503.382812 402.542969 486.910156 402.542969 486.910156 Z M 499.570312 481.914062 " fill-opacity="1" fill-rule="nonzero"/><path fill="#fbc092" d="M 385.515625 417.746094 C 385.515625 417.746094 391.347656 459.996094 390.929688 468.945312 C 390.515625 477.894531 391.550781 484.34375 397.171875 488.925781 C 402.796875 493.503906 431.332031 519.523438 442.15625 521.1875 C 452.980469 522.855469 462.773438 522.230469 470.0625 517.859375 C 477.351562 513.484375 499.425781 495.378906 504.636719 491.011719 C 509.84375 486.648438 511.511719 482.082031 511.511719 469.894531 C 511.511719 457.710938 510.46875 427.324219 511.511719 409.847656 C 512.023438 401.269531 507.765625 349.285156 507.765625 349.285156 L 435.078125 329.515625 L 394.050781 348.242188 L 376.34375 365.105469 L 385.507812 417.761719 Z M 385.515625 417.746094 " fill-opacity="1" fill-rule="nonzero"/><path stroke-linecap="round" transform="matrix(0.84159, 0, 0, 0.841011, 270.067936, 290.5835)" fill="none" stroke-linejoin="round" d="M 206.619608 148.359455 C 206.619608 148.359455 210.787684 184.30948 209.659797 190.138586 " stroke="#da8059" stroke-width="6" stroke-opacity="1" stroke-miterlimit="4"/><path stroke-linecap="round" transform="matrix(0.84159, 0, 0, 0.841011, 270.067936, 290.5835)" fill="none" stroke-linejoin="round" d="M 145.908667 144.01201 C 145.908667 144.01201 167.241044 127.871656 178.000062 127.100635 C 188.759081 126.329614 192.031345 128.452245 192.031345 128.452245 " stroke="#7d2929" stroke-width="6" stroke-opacity="1" stroke-miterlimit="4"/><path stroke-linecap="round" transform="matrix(0.84159, 0, 0, 0.841011, 270.067936, 290.5835)" fill="none" stroke-linejoin="round" d="M 230.077796 128.43831 C 230.077796 128.43831 234.120551 127.137793 242.568098 126.928781 C 251.020286 126.719769 269.279983 139.771393 269.279983 139.771393 " stroke="#7d2929" stroke-width="6" stroke-opacity="1" stroke-miterlimit="4"/><path fill="#3d1119" d="M 426.335938 423.605469 C 426.390625 424.179688 426.40625 424.753906 426.390625 425.324219 C 426.375 425.894531 426.320312 426.449219 426.230469 426.992188 C 426.144531 427.539062 426.023438 428.058594 425.867188 428.554688 C 425.710938 429.050781 425.523438 429.515625 425.308594 429.945312 C 425.089844 430.375 424.847656 430.765625 424.578125 431.113281 C 424.304688 431.460938 424.015625 431.757812 423.699219 432.011719 C 423.386719 432.261719 423.058594 432.460938 422.714844 432.605469 C 422.371094 432.75 422.019531 432.839844 421.65625 432.875 C 421.296875 432.910156 420.933594 432.886719 420.566406 432.808594 C 420.203125 432.730469 419.84375 432.597656 419.488281 432.410156 C 419.132812 432.21875 418.789062 431.980469 418.460938 431.691406 C 418.128906 431.398438 417.816406 431.0625 417.523438 430.679688 C 417.230469 430.296875 416.957031 429.878906 416.710938 429.417969 C 416.464844 428.960938 416.25 428.472656 416.0625 427.953125 C 415.871094 427.4375 415.714844 426.898438 415.59375 426.34375 C 415.46875 425.785156 415.378906 425.21875 415.324219 424.644531 C 415.269531 424.070312 415.253906 423.5 415.269531 422.929688 C 415.285156 422.359375 415.339844 421.800781 415.425781 421.257812 C 415.515625 420.714844 415.636719 420.195312 415.792969 419.695312 C 415.949219 419.199219 416.136719 418.738281 416.351562 418.304688 C 416.570312 417.875 416.8125 417.488281 417.082031 417.140625 C 417.355469 416.792969 417.644531 416.492188 417.957031 416.242188 C 418.273438 415.988281 418.601562 415.792969 418.945312 415.644531 C 419.289062 415.5 419.640625 415.410156 420.003906 415.375 C 420.363281 415.34375 420.726562 415.363281 421.09375 415.441406 C 421.457031 415.519531 421.816406 415.65625 422.171875 415.84375 C 422.527344 416.03125 422.871094 416.269531 423.199219 416.5625 C 423.53125 416.851562 423.84375 417.1875 424.136719 417.570312 C 424.429688 417.953125 424.699219 418.375 424.945312 418.832031 C 425.191406 419.292969 425.410156 419.777344 425.597656 420.296875 C 425.789062 420.816406 425.945312 421.351562 426.066406 421.910156 C 426.191406 422.464844 426.28125 423.03125 426.335938 423.605469 Z M 426.335938 423.605469 " fill-opacity="1" fill-rule="nonzero"/><path fill="#3d1119" d="M 477.113281 412.304688 C 477.46875 412.371094 477.8125 412.492188 478.140625 412.667969 C 478.472656 412.84375 478.78125 413.070312 479.070312 413.347656 C 479.359375 413.628906 479.621094 413.953125 479.859375 414.324219 C 480.097656 414.695312 480.304688 415.101562 480.484375 415.550781 C 480.660156 416 480.804688 416.476562 480.914062 416.988281 C 481.023438 417.496094 481.097656 418.023438 481.136719 418.574219 C 481.175781 419.125 481.179688 419.683594 481.144531 420.253906 C 481.109375 420.820312 481.039062 421.390625 480.933594 421.957031 C 480.828125 422.523438 480.6875 423.078125 480.511719 423.625 C 480.339844 424.167969 480.136719 424.6875 479.902344 425.1875 C 479.667969 425.683594 479.40625 426.152344 479.121094 426.585938 C 478.832031 427.019531 478.527344 427.414062 478.199219 427.769531 C 477.871094 428.125 477.53125 428.429688 477.175781 428.691406 C 476.820312 428.949219 476.457031 429.15625 476.085938 429.3125 C 475.714844 429.46875 475.34375 429.570312 474.972656 429.613281 C 474.605469 429.660156 474.238281 429.648438 473.882812 429.582031 C 473.527344 429.515625 473.183594 429.394531 472.855469 429.21875 C 472.523438 429.042969 472.214844 428.816406 471.925781 428.535156 C 471.636719 428.257812 471.375 427.933594 471.136719 427.5625 C 470.898438 427.191406 470.691406 426.78125 470.511719 426.335938 C 470.335938 425.886719 470.191406 425.40625 470.082031 424.898438 C 469.972656 424.390625 469.898438 423.859375 469.859375 423.3125 C 469.820312 422.761719 469.816406 422.203125 469.851562 421.632812 C 469.886719 421.0625 469.957031 420.496094 470.0625 419.929688 C 470.167969 419.359375 470.308594 418.804688 470.480469 418.261719 C 470.65625 417.71875 470.859375 417.199219 471.09375 416.699219 C 471.328125 416.199219 471.589844 415.734375 471.875 415.300781 C 472.160156 414.863281 472.46875 414.46875 472.796875 414.117188 C 473.125 413.761719 473.464844 413.457031 473.820312 413.195312 C 474.175781 412.9375 474.539062 412.730469 474.910156 412.574219 C 475.28125 412.417969 475.648438 412.316406 476.019531 412.273438 C 476.390625 412.226562 476.753906 412.238281 477.113281 412.304688 Z M 477.113281 412.304688 " fill-opacity="1" fill-rule="nonzero"/><path stroke-linecap="round" transform="matrix(0.84159, 0, 0, 0.841011, 270.067936, 290.5835)" fill="none" stroke-linejoin="round" d="M 174.282213 217.110394 C 174.282213 217.110394 186.559005 230.468568 203.147759 230.468568 C 229.650777 230.468568 244.118362 217.110394 244.118362 217.110394 " stroke="#7d2929" stroke-width="3" stroke-opacity="1" stroke-miterlimit="4"/><path fill="#3d3b3c" d="M 454.425781 590.707031 C 454.425781 590.707031 431.03125 584.59375 414.433594 569.742188 C 397.839844 554.886719 381.738281 537.816406 374.804688 517.027344 C 367.871094 496.234375 372.203125 490.492188 380.511719 488.011719 L 370.308594 473.175781 C 370.308594 473.175781 347.570312 473.300781 344.363281 483.199219 C 341.15625 493.105469 359.378906 523.105469 358.941406 527.621094 C 358.503906 532.140625 352.0625 529.953125 343.984375 534.46875 C 335.914062 538.984375 336.351562 554.570312 344.945312 566.214844 C 353.546875 577.863281 363.300781 601.253906 379.683594 606.425781 C 396.070312 611.597656 446.121094 599.976562 446.121094 599.976562 C 446.121094 599.976562 483.03125 613.320312 507.394531 605.566406 C 531.761719 597.8125 555.621094 566.492188 561.949219 560.75 C 568.269531 555.003906 574.023438 552.414062 568.269531 544.375 C 562.519531 536.335938 552.742188 529.152344 552.742188 529.152344 C 552.742188 529.152344 561.941406 492.820312 555.90625 484.410156 C 549.871094 476 519.808594 475.714844 519.808594 475.714844 C 519.808594 475.714844 524.574219 489.988281 523.714844 495.925781 C 522.855469 501.863281 527.871094 500.464844 528.890625 508.179688 C 530.128906 517.554688 466.554688 587.34375 454.425781 590.707031 Z M 454.425781 590.707031 " fill-opacity="1" fill-rule="nonzero"/><path fill="#56352c" d="M 386.375 424.136719 C 386.375 424.136719 388.453125 416.171875 389.144531 408.132812 C 389.835938 400.089844 385.171875 378.863281 389.144531 374.027344 C 391.324219 371.378906 401.421875 363.515625 412.269531 359.628906 C 421.191406 356.433594 430.945312 357.03125 434.398438 355.90625 C 439.269531 354.316406 458.632812 350.394531 472.621094 354.886719 C 486.609375 359.378906 496.230469 366.957031 497.960938 379.03125 C 499.6875 391.117188 507.84375 412.253906 511.570312 411.699219 C 515.300781 411.140625 515.6875 342.296875 515.6875 342.296875 L 470.070312 324.292969 L 410.378906 326.257812 L 367.355469 364.804688 Z M 386.375 424.136719 " fill-opacity="1" fill-rule="nonzero"/><g clip-path="url(#40b892b6c7)"><path fill="#f3a61e" d="M 629.949219 495.917969 C 629.949219 521.222656 624.722656 545.316406 615.253906 567.140625 C 587.660156 631.023438 524.058594 675.734375 450.007812 675.734375 C 375.957031 675.734375 318.570312 635.289062 289.054688 576.351562 C 276.910156 552.15625 270.066406 524.832031 270.066406 495.917969 C 270.066406 396.609375 350.632812 316.125 450.007812 316.125 C 549.382812 316.125 629.949219 396.609375 629.949219 495.917969 Z M 629.949219 495.917969 " fill-opacity="1" fill-rule="nonzero"/></g><g clip-path="url(#f1e86f5436)"><path fill="#3d3b3c" d="M 615.253906 567.140625 C 587.660156 631.023438 524.058594 675.734375 450.007812 675.734375 C 375.957031 675.734375 318.570312 635.289062 289.054688 576.351562 C 294.253906 573.449219 300.113281 571.101562 306.652344 569.335938 C 328.894531 563.382812 361.816406 555.660156 361.816406 555.660156 L 371.941406 530.683594 L 370.328125 473.183594 C 370.328125 473.183594 392.773438 471.46875 405.066406 473.183594 C 417.363281 474.875 463.691406 493.570312 463.691406 493.570312 L 489.699219 477.523438 C 489.699219 477.523438 509.820312 475.175781 519.816406 475.707031 C 529.816406 476.261719 542.945312 534.191406 542.945312 534.191406 L 552.539062 550.816406 C 552.539062 550.816406 569.355469 559.066406 592.050781 563.710938 C 601.089844 565.550781 608.613281 565.929688 615.253906 567.140625 Z M 615.253906 567.140625 " fill-opacity="1" fill-rule="nonzero"/></g><path fill="#56352c" d="M 396.070312 433.832031 C 396.070312 433.832031 382.539062 424.480469 379.777344 420.957031 C 377.015625 417.433594 371.066406 409.445312 367.355469 399.941406 C 363.644531 390.4375 352.753906 376.929688 356.75 368.386719 C 360.75 359.839844 381.714844 342.339844 381.714844 342.339844 C 381.714844 342.339844 385.5 318.976562 402.550781 311.792969 C 419.601562 304.601562 473.941406 301.523438 502.441406 316.109375 C 517.082031 323.601562 535.546875 326.148438 540.023438 331.492188 C 540.023438 331.492188 532.230469 332.988281 528.738281 338.875 C 527.511719 340.953125 537.273438 346.914062 538.660156 348.261719 C 546.65625 355.980469 550.644531 354.914062 550.644531 354.914062 C 550.644531 354.914062 541.058594 358.90625 530.40625 357.308594 C 530.40625 357.308594 537.0625 362.632812 544.789062 377.003906 C 552.515625 391.378906 546.117188 397.324219 546.117188 397.324219 C 546.117188 397.324219 547.101562 389.519531 532.222656 386.59375 C 532.222656 386.59375 533.535156 394.339844 530.398438 402.722656 C 527.257812 411.109375 515.746094 424.128906 515.746094 424.128906 L 450 466.179688 L 396.0625 433.824219 Z M 396.070312 433.832031 " fill-opacity="1" fill-rule="nonzero"/><path fill="#da8059" d="M 390.421875 427.230469 C 390.421875 427.230469 384.917969 413.09375 376.351562 414.449219 C 367.785156 415.800781 365.058594 431.519531 369.367188 446.019531 C 373.667969 460.519531 383.128906 474.847656 393.25 467.171875 C 400.953125 461.324219 390.421875 427.230469 390.421875 427.230469 Z M 390.421875 427.230469 " fill-opacity="1" fill-rule="nonzero"/><path fill="#da8059" d="M 509.855469 421.546875 C 509.855469 421.546875 513.566406 407.753906 521.71875 408.140625 C 529.875 408.527344 534.042969 422.976562 531.492188 436.988281 C 528.949219 451.007812 521.550781 465.386719 511.292969 459.230469 C 503.484375 454.546875 509.855469 421.546875 509.855469 421.546875 Z M 509.855469 421.546875 " fill-opacity="1" fill-rule="nonzero"/><path fill="#fbc092" d="M 519.816406 551.09375 L 509.1875 582.078125 L 426.074219 599.964844 L 381.714844 556.972656 C 381.714844 556.972656 401.734375 547.613281 406.027344 537.191406 C 407.542969 533.460938 407.542969 525.992188 406.910156 517.917969 C 405.75 503.382812 402.542969 486.910156 402.542969 486.910156 L 499.570312 481.914062 C 499.570312 481.914062 498.710938 497.179688 498.457031 512.011719 C 498.257812 523.292969 498.410156 534.34375 499.570312 538.277344 C 502.246094 547.359375 519.816406 551.09375 519.816406 551.09375 Z M 519.816406 551.09375 " fill-opacity="1" fill-rule="nonzero"/><path fill="#da8059" d="M 499.570312 481.914062 C 499.570312 481.914062 498.710938 497.179688 498.457031 512.011719 C 483.6875 526.015625 458.515625 548.75 439 545.871094 C 425.390625 543.878906 412.273438 533.460938 406.910156 517.917969 C 405.75 503.382812 402.542969 486.910156 402.542969 486.910156 Z M 499.570312 481.914062 " fill-opacity="1" fill-rule="nonzero"/><path fill="#fbc092" d="M 385.515625 417.746094 C 385.515625 417.746094 391.347656 459.996094 390.929688 468.945312 C 390.515625 477.894531 391.550781 484.34375 397.171875 488.925781 C 402.796875 493.503906 431.332031 519.523438 442.15625 521.1875 C 452.980469 522.855469 462.773438 522.230469 470.0625 517.859375 C 477.351562 513.484375 499.425781 495.378906 504.636719 491.011719 C 509.84375 486.648438 511.511719 482.082031 511.511719 469.894531 C 511.511719 457.710938 510.46875 427.324219 511.511719 409.847656 C 512.023438 401.269531 507.765625 349.285156 507.765625 349.285156 L 435.078125 329.515625 L 394.050781 348.242188 L 376.34375 365.105469 L 385.507812 417.761719 Z M 385.515625 417.746094 " fill-opacity="1" fill-rule="nonzero"/><path stroke-linecap="round" transform="matrix(0.84159, 0, 0, 0.841011, 270.067936, 290.5835)" fill="none" stroke-linejoin="round" d="M 206.619608 148.359455 C 206.619608 148.359455 210.787684 184.30948 209.659797 190.138586 " stroke="#da8059" stroke-width="6" stroke-opacity="1" stroke-miterlimit="4"/><path stroke-linecap="round" transform="matrix(0.84159, 0, 0, 0.841011, 270.067936, 290.5835)" fill="none" stroke-linejoin="round" d="M 145.908667 144.01201 C 145.908667 144.01201 167.241044 127.871656 178.000062 127.100635 C 188.759081 126.329614 192.031345 128.452245 192.031345 128.452245 " stroke="#7d2929" stroke-width="6" stroke-opacity="1" stroke-miterlimit="4"/><path stroke-linecap="round" transform="matrix(0.84159, 0, 0, 0.841011, 270.067936, 290.5835)" fill="none" stroke-linejoin="round" d="M 230.077796 128.43831 C 230.077796 128.43831 234.120551 127.137793 242.568098 126.928781 C 251.020286 126.719769 269.279983 139.771393 269.279983 139.771393 " stroke="#7d2929" stroke-width="6" stroke-opacity="1" stroke-miterlimit="4"/><path fill="#3d1119" d="M 426.335938 423.605469 C 426.390625 424.179688 426.40625 424.753906 426.390625 425.324219 C 426.375 425.894531 426.320312 426.449219 426.230469 426.992188 C 426.144531 427.539062 426.023438 428.058594 425.867188 428.554688 C 425.710938 429.050781 425.523438 429.515625 425.308594 429.945312 C 425.089844 430.375 424.847656 430.765625 424.578125 431.113281 C 424.304688 431.460938 424.015625 431.757812 423.699219 432.011719 C 423.386719 432.261719 423.058594 432.460938 422.714844 432.605469 C 422.371094 432.75 422.019531 432.839844 421.65625 432.875 C 421.296875 432.910156 420.933594 432.886719 420.566406 432.808594 C 420.203125 432.730469 419.84375 432.597656 419.488281 432.410156 C 419.132812 432.21875 418.789062 431.980469 418.460938 431.691406 C 418.128906 431.398438 417.816406 431.0625 417.523438 430.679688 C 417.230469 430.296875 416.957031 429.878906 416.710938 429.417969 C 416.464844 428.960938 416.25 428.472656 416.0625 427.953125 C 415.871094 427.4375 415.714844 426.898438 415.59375 426.34375 C 415.46875 425.785156 415.378906 425.21875 415.324219 424.644531 C 415.269531 424.070312 415.253906 423.5 415.269531 422.929688 C 415.285156 422.359375 415.339844 421.800781 415.425781 421.257812 C 415.515625 420.714844 415.636719 420.195312 415.792969 419.695312 C 415.949219 419.199219 416.136719 418.738281 416.351562 418.304688 C 416.570312 417.875 416.8125 417.488281 417.082031 417.140625 C 417.355469 416.792969 417.644531 416.492188 417.957031 416.242188 C 418.273438 415.988281 418.601562 415.792969 418.945312 415.644531 C 419.289062 415.5 419.640625 415.410156 420.003906 415.375 C 420.363281 415.34375 420.726562 415.363281 421.09375 415.441406 C 421.457031 415.519531 421.816406 415.65625 422.171875 415.84375 C 422.527344 416.03125 422.871094 416.269531 423.199219 416.5625 C 423.53125 416.851562 423.84375 417.1875 424.136719 417.570312 C 424.429688 417.953125 424.699219 418.375 424.945312 418.832031 C 425.191406 419.292969 425.410156 419.777344 425.597656 420.296875 C 425.789062 420.816406 425.945312 421.351562 426.066406 421.910156 C 426.191406 422.464844 426.28125 423.03125 426.335938 423.605469 Z M 426.335938 423.605469 " fill-opacity="1" fill-rule="nonzero"/><path fill="#3d1119" d="M 477.113281 412.304688 C 477.46875 412.371094 477.8125 412.492188 478.140625 412.667969 C 478.472656 412.84375 478.78125 413.070312 479.070312 413.347656 C 479.359375 413.628906 479.621094 413.953125 479.859375 414.324219 C 480.097656 414.695312 480.304688 415.101562 480.484375 415.550781 C 480.660156 416 480.804688 416.476562 480.914062 416.988281 C 481.023438 417.496094 481.097656 418.023438 481.136719 418.574219 C 481.175781 419.125 481.179688 419.683594 481.144531 420.253906 C 481.109375 420.820312 481.039062 421.390625 480.933594 421.957031 C 480.828125 422.523438 480.6875 423.078125 480.511719 423.625 C 480.339844 424.167969 480.136719 424.6875 479.902344 425.1875 C 479.667969 425.683594 479.40625 426.152344 479.121094 426.585938 C 478.832031 427.019531 478.527344 427.414062 478.199219 427.769531 C 477.871094 428.125 477.53125 428.429688 477.175781 428.691406 C 476.820312 428.949219 476.457031 429.15625 476.085938 429.3125 C 475.714844 429.46875 475.34375 429.570312 474.972656 429.613281 C 474.605469 429.660156 474.238281 429.648438 473.882812 429.582031 C 473.527344 429.515625 473.183594 429.394531 472.855469 429.21875 C 472.523438 429.042969 472.214844 428.816406 471.925781 428.535156 C 471.636719 428.257812 471.375 427.933594 471.136719 427.5625 C 470.898438 427.191406 470.691406 426.78125 470.511719 426.335938 C 470.335938 425.886719 470.191406 425.40625 470.082031 424.898438 C 469.972656 424.390625 469.898438 423.859375 469.859375 423.3125 C 469.820312 422.761719 469.816406 422.203125 469.851562 421.632812 C 469.886719 421.0625 469.957031 420.496094 470.0625 419.929688 C 470.167969 419.359375 470.308594 418.804688 470.480469 418.261719 C 470.65625 417.71875 470.859375 417.199219 471.09375 416.699219 C 471.328125 416.199219 471.589844 415.734375 471.875 415.300781 C 472.160156 414.863281 472.46875 414.46875 472.796875 414.117188 C 473.125 413.761719 473.464844 413.457031 473.820312 413.195312 C 474.175781 412.9375 474.539062 412.730469 474.910156 412.574219 C 475.28125 412.417969 475.648438 412.316406 476.019531 412.273438 C 476.390625 412.226562 476.753906 412.238281 477.113281 412.304688 Z M 477.113281 412.304688 " fill-opacity="1" fill-rule="nonzero"/><path stroke-linecap="round" transform="matrix(0.84159, 0, 0, 0.841011, 270.067936, 290.5835)" fill="none" stroke-linejoin="round" d="M 174.282213 217.110394 C 174.282213 217.110394 186.559005 230.468568 203.147759 230.468568 C 229.650777 230.468568 244.118362 217.110394 244.118362 217.110394 " stroke="#7d2929" stroke-width="3" stroke-opacity="1" stroke-miterlimit="4"/><path fill="#3d3b3c" d="M 454.425781 590.707031 C 454.425781 590.707031 431.03125 584.59375 414.433594 569.742188 C 397.839844 554.886719 381.738281 537.816406 374.804688 517.027344 C 367.871094 496.234375 372.203125 490.492188 380.511719 488.011719 L 370.308594 473.175781 C 370.308594 473.175781 347.570312 473.300781 344.363281 483.199219 C 341.15625 493.105469 359.378906 523.105469 358.941406 527.621094 C 358.503906 532.140625 352.0625 529.953125 343.984375 534.46875 C 335.914062 538.984375 336.351562 554.570312 344.945312 566.214844 C 353.546875 577.863281 363.300781 601.253906 379.683594 606.425781 C 396.070312 611.597656 446.121094 599.976562 446.121094 599.976562 C 446.121094 599.976562 483.03125 613.320312 507.394531 605.566406 C 531.761719 597.8125 555.621094 566.492188 561.949219 560.75 C 568.269531 555.003906 574.023438 552.414062 568.269531 544.375 C 562.519531 536.335938 552.742188 529.152344 552.742188 529.152344 C 552.742188 529.152344 561.941406 492.820312 555.90625 484.410156 C 549.871094 476 519.808594 475.714844 519.808594 475.714844 C 519.808594 475.714844 524.574219 489.988281 523.714844 495.925781 C 522.855469 501.863281 527.871094 500.464844 528.890625 508.179688 C 530.128906 517.554688 466.554688 587.34375 454.425781 590.707031 Z M 454.425781 590.707031 " fill-opacity="1" fill-rule="nonzero"/><path fill="#56352c" d="M 386.375 424.136719 C 386.375 424.136719 388.453125 416.171875 389.144531 408.132812 C 389.835938 400.089844 385.171875 378.863281 389.144531 374.027344 C 391.324219 371.378906 401.421875 363.515625 412.269531 359.628906 C 421.191406 356.433594 430.945312 357.03125 434.398438 355.90625 C 439.269531 354.316406 458.632812 350.394531 472.621094 354.886719 C 486.609375 359.378906 496.230469 366.957031 497.960938 379.03125 C 499.6875 391.117188 507.84375 412.253906 511.570312 411.699219 C 515.300781 411.140625 515.6875 342.296875 515.6875 342.296875 L 470.070312 324.292969 L 410.378906 326.257812 L 367.355469 364.804688 Z M 386.375 424.136719 " fill-opacity="1" fill-rule="nonzero"/></svg>