<svg width="180" height="40" viewBox="0 0 180 40" fill="none" xmlns="http://www.w3.org/2000/svg">
  <path d="M20 0C8.954 0 0 8.954 0 20C0 31.046 8.954 40 20 40C31.046 40 40 31.046 40 20C40 8.954 31.046 0 20 0ZM20 30C14.477 30 10 25.523 10 20C10 14.477 14.477 10 20 10C25.523 10 30 14.477 30 20C30 25.523 25.523 30 20 30Z" fill="#3B82F6"/>
  <path d="M50 10H60C65.523 10 70 14.477 70 20C70 25.523 65.523 30 60 30H50V10Z" fill="#3B82F6"/>
  <path d="M75 10H85V30H75V10Z" fill="#3B82F6"/>
  <path d="M90 10H100C105.523 10 110 14.477 110 20C110 25.523 105.523 30 100 30H90V10Z" fill="#3B82F6"/>
  <path d="M115 10H135V15H115V10Z" fill="#3B82F6"/>
  <path d="M115 17.5H130V22.5H115V17.5Z" fill="#3B82F6"/>
  <path d="M115 25H135V30H115V25Z" fill="#3B82F6"/>
  <path d="M140 10H150V30H140V10Z" fill="#3B82F6"/>
  <path d="M155 10H175C177.761 10 180 12.239 180 15V25C180 27.761 177.761 30 175 30H155V10Z" fill="#3B82F6"/>
  <path d="M165 15H170V25H165V15Z" fill="white"/>
</svg>