<svg xmlns="http://www.w3.org/2000/svg" xmlns:xlink="http://www.w3.org/1999/xlink" width="500" zoomAndPan="magnify" viewBox="0 0 375 149.999998" height="200" preserveAspectRatio="xMidYMid meet" version="1.0"><defs><g/><clipPath id="f1b770bc67"><path d="M 15 15 L 137.8125 15 L 137.8125 135 L 15 135 Z M 15 15 " clip-rule="nonzero"/></clipPath><clipPath id="6e104545b1"><path d="M 30.75 15 L 121.613281 15 C 130.3125 15 137.363281 22.050781 137.363281 30.75 L 137.363281 119.25 C 137.363281 127.949219 130.3125 135 121.613281 135 L 30.75 135 C 22.050781 135 15 127.949219 15 119.25 L 15 30.75 C 15 22.050781 22.050781 15 30.75 15 Z M 30.75 15 " clip-rule="nonzero"/></clipPath><clipPath id="d0e2aee6e3"><path d="M 45.589844 32.949219 L 106.902344 32.949219 L 106.902344 116.648438 L 45.589844 116.648438 Z M 45.589844 32.949219 " clip-rule="nonzero"/></clipPath></defs><g clip-path="url(#f1b770bc67)"><g clip-path="url(#6e104545b1)"><path fill="#c71f1f" d="M 15 15 L 137.34375 15 L 137.34375 135 L 15 135 Z M 15 15 " fill-opacity="1" fill-rule="nonzero"/></g></g><g clip-path="url(#d0e2aee6e3)"><path fill="#ffffff" d="M 53.527344 54.476562 C 53.644531 54.339844 53.746094 54.238281 53.863281 54.121094 L 53.863281 95.875 C 48.738281 90.390625 45.609375 83.058594 45.609375 74.988281 C 45.609375 67.101562 48.617188 59.90625 53.527344 54.476562 Z M 106.75 74.988281 C 106.75 66.917969 103.621094 59.585938 98.492188 54.105469 L 98.492188 95.855469 C 98.609375 95.738281 98.710938 95.621094 98.8125 95.503906 C 103.753906 90.074219 106.75 82.875 106.75 74.988281 Z M 65.25 49.800781 L 86 78.050781 L 86 49.800781 L 93.480469 49.800781 C 88.554688 46.402344 82.585938 44.417969 76.160156 44.417969 C 73.839844 44.417969 71.589844 44.671875 69.417969 45.175781 L 52.871094 32.949219 L 63.367188 47.226562 Z M 88.890625 102.785156 L 87.09375 100.347656 L 66.359375 71.996094 L 66.359375 72.164062 L 66.171875 71.929688 L 66.359375 72.28125 L 66.359375 100.347656 L 59.09375 100.347656 C 63.972656 103.640625 69.855469 105.574219 76.179688 105.574219 C 78.449219 105.574219 80.652344 105.324219 82.789062 104.851562 L 99.316406 117.042969 L 88.859375 102.820312 C 88.875 102.800781 88.890625 102.785156 88.890625 102.785156 Z M 88.890625 102.785156 " fill-opacity="1" fill-rule="nonzero"/></g><g fill="#ffffff" fill-opacity="1"><g transform="translate(147.916577, 57.177291)"><g><path d="M 21.078125 0 L 14.03125 0 L 6.765625 -14 L 6.640625 -14 C 6.691406 -13.570312 6.734375 -13.054688 6.765625 -12.453125 C 6.804688 -11.859375 6.835938 -11.25 6.859375 -10.625 C 6.890625 -10.007812 6.90625 -9.453125 6.90625 -8.953125 L 6.90625 0 L 2.140625 0 L 2.140625 -19.875 L 9.15625 -19.875 L 16.390625 -6.0625 L 16.484375 -6.0625 C 16.453125 -6.5 16.421875 -7.003906 16.390625 -7.578125 C 16.367188 -8.148438 16.34375 -8.726562 16.3125 -9.3125 C 16.289062 -9.90625 16.28125 -10.429688 16.28125 -10.890625 L 16.28125 -19.875 L 21.078125 -19.875 Z M 21.078125 0 "/></g></g></g><g fill="#ffffff" fill-opacity="1"><g transform="translate(173.169321, 57.177291)"><g><path d="M 13.953125 0 L 2.140625 0 L 2.140625 -19.875 L 13.953125 -19.875 L 13.953125 -15.5625 L 7.515625 -15.5625 L 7.515625 -12.4375 L 13.46875 -12.4375 L 13.46875 -8.125 L 7.515625 -8.125 L 7.515625 -4.375 L 13.953125 -4.375 Z M 13.953125 0 "/></g></g></g><g fill="#ffffff" fill-opacity="1"><g transform="translate(190.482697, 57.177291)"><g><path d="M 19.046875 -19.875 L 19.046875 -7.90625 C 19.046875 -6.238281 18.726562 -4.789062 18.09375 -3.5625 C 17.457031 -2.34375 16.503906 -1.398438 15.234375 -0.734375 C 13.972656 -0.0664062 12.382812 0.265625 10.46875 0.265625 C 7.726562 0.265625 5.640625 -0.429688 4.203125 -1.828125 C 2.765625 -3.234375 2.046875 -5.222656 2.046875 -7.796875 L 2.046875 -19.875 L 7.4375 -19.875 L 7.4375 -8.21875 C 7.4375 -6.8125 7.695312 -5.789062 8.21875 -5.15625 C 8.75 -4.519531 9.523438 -4.203125 10.546875 -4.203125 C 11.285156 -4.203125 11.882812 -4.335938 12.34375 -4.609375 C 12.800781 -4.890625 13.132812 -5.328125 13.34375 -5.921875 C 13.5625 -6.523438 13.671875 -7.296875 13.671875 -8.234375 L 13.671875 -19.875 Z M 19.046875 -19.875 "/></g></g></g><g fill="#ffffff" fill-opacity="1"><g transform="translate(213.587464, 57.177291)"><g><path d="M 9.03125 -19.875 C 11.550781 -19.875 13.4375 -19.328125 14.6875 -18.234375 C 15.945312 -17.140625 16.578125 -15.582031 16.578125 -13.5625 C 16.578125 -12.644531 16.445312 -11.769531 16.1875 -10.9375 C 15.925781 -10.101562 15.503906 -9.359375 14.921875 -8.703125 C 14.335938 -8.054688 13.5625 -7.539062 12.59375 -7.15625 C 11.625 -6.78125 10.4375 -6.59375 9.03125 -6.59375 L 7.515625 -6.59375 L 7.515625 0 L 2.140625 0 L 2.140625 -19.875 Z M 8.90625 -15.546875 L 7.515625 -15.546875 L 7.515625 -10.96875 L 8.578125 -10.96875 C 9.035156 -10.96875 9.460938 -11.046875 9.859375 -11.203125 C 10.265625 -11.367188 10.585938 -11.628906 10.828125 -11.984375 C 11.066406 -12.335938 11.1875 -12.816406 11.1875 -13.421875 C 11.1875 -14.046875 11 -14.554688 10.625 -14.953125 C 10.257812 -15.347656 9.6875 -15.546875 8.90625 -15.546875 Z M 8.90625 -15.546875 "/></g></g></g><g fill="#ffffff" fill-opacity="1"><g transform="translate(233.21196, 57.177291)"><g><path d="M 2.140625 0 L 2.140625 -19.875 L 7.546875 -19.875 L 7.546875 0 Z M 2.140625 0 "/></g></g></g><g fill="#ffffff" fill-opacity="1"><g transform="translate(244.937872, 57.177291)"><g><path d="M 20.046875 0 L 13.84375 0 L 9.96875 -6.21875 L 6.125 0 L 0.046875 0 L 6.640625 -10.171875 L 0.453125 -19.875 L 6.40625 -19.875 L 10 -13.734375 L 13.453125 -19.875 L 19.578125 -19.875 L 13.28125 -9.75 Z M 20.046875 0 "/></g></g></g><g fill="#ffffff" fill-opacity="1"><g transform="translate(267.104592, 57.177291)"><g><path d="M 13.953125 0 L 2.140625 0 L 2.140625 -19.875 L 13.953125 -19.875 L 13.953125 -15.5625 L 7.515625 -15.5625 L 7.515625 -12.4375 L 13.46875 -12.4375 L 13.46875 -8.125 L 7.515625 -8.125 L 7.515625 -4.375 L 13.953125 -4.375 Z M 13.953125 0 "/></g></g></g><g fill="#ffffff" fill-opacity="1"><g transform="translate(284.41797, 57.177291)"><g><path d="M 2.140625 0 L 2.140625 -19.875 L 7.515625 -19.875 L 7.515625 -4.34375 L 15.171875 -4.34375 L 15.171875 0 Z M 2.140625 0 "/></g></g></g><g fill="#ffffff" fill-opacity="1"><g transform="translate(302.655796, 57.177291)"><g><path d="M 21.078125 0 L 14.03125 0 L 6.765625 -14 L 6.640625 -14 C 6.691406 -13.570312 6.734375 -13.054688 6.765625 -12.453125 C 6.804688 -11.859375 6.835938 -11.25 6.859375 -10.625 C 6.890625 -10.007812 6.90625 -9.453125 6.90625 -8.953125 L 6.90625 0 L 2.140625 0 L 2.140625 -19.875 L 9.15625 -19.875 L 16.390625 -6.0625 L 16.484375 -6.0625 C 16.453125 -6.5 16.421875 -7.003906 16.390625 -7.578125 C 16.367188 -8.148438 16.34375 -8.726562 16.3125 -9.3125 C 16.289062 -9.90625 16.28125 -10.429688 16.28125 -10.890625 L 16.28125 -19.875 L 21.078125 -19.875 Z M 21.078125 0 "/></g></g></g><g fill="#ffffff" fill-opacity="1"><g transform="translate(327.908543, 57.177291)"><g><path d="M 13.953125 0 L 2.140625 0 L 2.140625 -19.875 L 13.953125 -19.875 L 13.953125 -15.5625 L 7.515625 -15.5625 L 7.515625 -12.4375 L 13.46875 -12.4375 L 13.46875 -8.125 L 7.515625 -8.125 L 7.515625 -4.375 L 13.953125 -4.375 Z M 13.953125 0 "/></g></g></g><g fill="#ffffff" fill-opacity="1"><g transform="translate(345.221922, 57.177291)"><g><path d="M 10.921875 0 L 5.546875 0 L 5.546875 -15.484375 L 0.6875 -15.484375 L 0.6875 -19.875 L 15.75 -19.875 L 15.75 -15.484375 L 10.921875 -15.484375 Z M 10.921875 0 "/></g></g></g><g fill="#ffffff" fill-opacity="1"><g transform="translate(192.048348, 92.753395)"><g><path d="M 19.015625 -10.359375 C 19.015625 -8.046875 18.582031 -6.125 17.71875 -4.59375 C 16.863281 -3.0625 15.65625 -1.910156 14.09375 -1.140625 C 12.53125 -0.378906 10.691406 0 8.578125 0 L 2.140625 0 L 2.140625 -19.875 L 9.03125 -19.875 C 11.164062 -19.875 12.976562 -19.503906 14.46875 -18.765625 C 15.957031 -18.035156 17.085938 -16.960938 17.859375 -15.546875 C 18.628906 -14.140625 19.015625 -12.410156 19.015625 -10.359375 Z M 13.453125 -10.171875 C 13.453125 -11.378906 13.289062 -12.378906 12.96875 -13.171875 C 12.644531 -13.960938 12.160156 -14.554688 11.515625 -14.953125 C 10.867188 -15.347656 10.054688 -15.546875 9.078125 -15.546875 L 7.515625 -15.546875 L 7.515625 -4.40625 L 8.71875 -4.40625 C 10.34375 -4.40625 11.535156 -4.878906 12.296875 -5.828125 C 13.066406 -6.773438 13.453125 -8.222656 13.453125 -10.171875 Z M 13.453125 -10.171875 "/></g></g></g><g fill="#ffffff" fill-opacity="1"><g transform="translate(214.514157, 92.753395)"><g><path d="M 2.140625 0 L 2.140625 -19.875 L 7.546875 -19.875 L 7.546875 0 Z M 2.140625 0 "/></g></g></g><g fill="#ffffff" fill-opacity="1"><g transform="translate(226.240068, 92.753395)"><g><path d="M 10.125 -11.640625 L 18.703125 -11.640625 L 18.703125 -0.921875 C 17.679688 -0.566406 16.507812 -0.28125 15.1875 -0.0625 C 13.863281 0.15625 12.476562 0.265625 11.03125 0.265625 C 9.113281 0.265625 7.429688 -0.101562 5.984375 -0.84375 C 4.546875 -1.582031 3.421875 -2.710938 2.609375 -4.234375 C 1.804688 -5.753906 1.40625 -7.675781 1.40625 -10 C 1.40625 -12.082031 1.804688 -13.878906 2.609375 -15.390625 C 3.410156 -16.910156 4.585938 -18.082031 6.140625 -18.90625 C 7.691406 -19.738281 9.597656 -20.15625 11.859375 -20.15625 C 13.097656 -20.15625 14.273438 -20.035156 15.390625 -19.796875 C 16.503906 -19.566406 17.472656 -19.269531 18.296875 -18.90625 L 16.59375 -14.703125 C 15.882812 -15.054688 15.144531 -15.316406 14.375 -15.484375 C 13.601562 -15.660156 12.769531 -15.75 11.875 -15.75 C 10.6875 -15.75 9.734375 -15.484375 9.015625 -14.953125 C 8.296875 -14.421875 7.773438 -13.707031 7.453125 -12.8125 C 7.128906 -11.914062 6.96875 -10.929688 6.96875 -9.859375 C 6.96875 -8.617188 7.140625 -7.578125 7.484375 -6.734375 C 7.828125 -5.890625 8.335938 -5.242188 9.015625 -4.796875 C 9.691406 -4.359375 10.507812 -4.140625 11.46875 -4.140625 C 11.789062 -4.140625 12.179688 -4.160156 12.640625 -4.203125 C 13.097656 -4.253906 13.441406 -4.3125 13.671875 -4.375 L 13.671875 -7.484375 L 10.125 -7.484375 Z M 10.125 -11.640625 "/></g></g></g><g fill="#ffffff" fill-opacity="1"><g transform="translate(248.882608, 92.753395)"><g><path d="M 2.140625 0 L 2.140625 -19.875 L 7.546875 -19.875 L 7.546875 0 Z M 2.140625 0 "/></g></g></g><g fill="#ffffff" fill-opacity="1"><g transform="translate(260.608521, 92.753395)"><g><path d="M 10.921875 0 L 5.546875 0 L 5.546875 -15.484375 L 0.6875 -15.484375 L 0.6875 -19.875 L 15.75 -19.875 L 15.75 -15.484375 L 10.921875 -15.484375 Z M 10.921875 0 "/></g></g></g><g fill="#ffffff" fill-opacity="1"><g transform="translate(279.091052, 92.753395)"><g><path d="M 14.34375 0 L 13.359375 -3.71875 L 6.90625 -3.71875 L 5.90625 0 L 0 0 L 6.484375 -19.953125 L 13.65625 -19.953125 L 20.21875 0 Z M 12.25 -8.125 L 11.390625 -11.390625 C 11.296875 -11.742188 11.160156 -12.25 10.984375 -12.90625 C 10.816406 -13.5625 10.648438 -14.238281 10.484375 -14.9375 C 10.316406 -15.644531 10.1875 -16.226562 10.09375 -16.6875 C 10.019531 -16.226562 9.90625 -15.664062 9.75 -15 C 9.601562 -14.332031 9.445312 -13.671875 9.28125 -13.015625 C 9.125 -12.367188 8.988281 -11.828125 8.875 -11.390625 L 8.015625 -8.125 Z M 12.25 -8.125 "/></g></g></g><g fill="#ffffff" fill-opacity="1"><g transform="translate(301.33934, 92.753395)"><g><path d="M 2.140625 0 L 2.140625 -19.875 L 7.515625 -19.875 L 7.515625 -4.34375 L 15.171875 -4.34375 L 15.171875 0 Z M 2.140625 0 "/></g></g></g><g fill="#ffffff" fill-opacity="1"><g transform="translate(164.697275, 117.483522)"><g><path d="M 4.015625 -3.640625 L 6.375 -3.640625 L 6.375 -0.265625 C 6.007812 -0.140625 5.632812 -0.0507812 5.25 0 C 4.875 0.0625 4.4375 0.09375 3.9375 0.09375 C 2.882812 0.09375 2.0625 -0.21875 1.46875 -0.84375 C 0.882812 -1.46875 0.59375 -2.34375 0.59375 -3.46875 C 0.59375 -4.195312 0.738281 -4.832031 1.03125 -5.375 C 1.320312 -5.914062 1.738281 -6.328125 2.28125 -6.609375 C 2.820312 -6.898438 3.460938 -7.046875 4.203125 -7.046875 C 4.941406 -7.046875 5.628906 -6.910156 6.265625 -6.640625 L 5.953125 -5.921875 C 5.328125 -6.191406 4.722656 -6.328125 4.140625 -6.328125 C 3.296875 -6.328125 2.632812 -6.070312 2.15625 -5.5625 C 1.6875 -5.0625 1.453125 -4.363281 1.453125 -3.46875 C 1.453125 -2.53125 1.679688 -1.816406 2.140625 -1.328125 C 2.597656 -0.847656 3.269531 -0.609375 4.15625 -0.609375 C 4.632812 -0.609375 5.101562 -0.664062 5.5625 -0.78125 L 5.5625 -2.921875 L 4.015625 -2.921875 Z M 4.015625 -3.640625 "/></g></g></g><g fill="#ffffff" fill-opacity="1"><g transform="translate(179.573566, 117.483522)"><g><path d="M 1.765625 -2.890625 L 1.765625 0 L 0.953125 0 L 0.953125 -6.953125 L 2.859375 -6.953125 C 3.710938 -6.953125 4.34375 -6.785156 4.75 -6.453125 C 5.15625 -6.128906 5.359375 -5.640625 5.359375 -4.984375 C 5.359375 -4.066406 4.894531 -3.445312 3.96875 -3.125 L 5.84375 0 L 4.890625 0 L 3.21875 -2.890625 Z M 1.765625 -3.578125 L 2.875 -3.578125 C 3.4375 -3.578125 3.851562 -3.691406 4.125 -3.921875 C 4.394531 -4.148438 4.53125 -4.488281 4.53125 -4.9375 C 4.53125 -5.394531 4.394531 -5.722656 4.125 -5.921875 C 3.851562 -6.128906 3.414062 -6.234375 2.8125 -6.234375 L 1.765625 -6.234375 Z M 1.765625 -3.578125 "/></g></g></g><g fill="#ffffff" fill-opacity="1"><g transform="translate(193.380729, 117.483522)"><g><path d="M 6.984375 -3.484375 C 6.984375 -2.367188 6.703125 -1.492188 6.140625 -0.859375 C 5.578125 -0.222656 4.796875 0.09375 3.796875 0.09375 C 2.773438 0.09375 1.984375 -0.21875 1.421875 -0.84375 C 0.867188 -1.46875 0.59375 -2.351562 0.59375 -3.5 C 0.59375 -4.625 0.867188 -5.5 1.421875 -6.125 C 1.984375 -6.75 2.78125 -7.0625 3.8125 -7.0625 C 4.800781 -7.0625 5.578125 -6.742188 6.140625 -6.109375 C 6.703125 -5.472656 6.984375 -4.597656 6.984375 -3.484375 Z M 1.453125 -3.484375 C 1.453125 -2.546875 1.648438 -1.832031 2.046875 -1.34375 C 2.453125 -0.851562 3.035156 -0.609375 3.796875 -0.609375 C 4.566406 -0.609375 5.144531 -0.847656 5.53125 -1.328125 C 5.925781 -1.816406 6.125 -2.535156 6.125 -3.484375 C 6.125 -4.421875 5.925781 -5.128906 5.53125 -5.609375 C 5.144531 -6.085938 4.570312 -6.328125 3.8125 -6.328125 C 3.039062 -6.328125 2.453125 -6.082031 2.046875 -5.59375 C 1.648438 -5.113281 1.453125 -4.410156 1.453125 -3.484375 Z M 1.453125 -3.484375 "/></g></g></g><g fill="#ffffff" fill-opacity="1"><g transform="translate(208.751193, 117.483522)"><g><path d="M 7.015625 0 L 6.21875 0 L 4.8125 -4.65625 C 4.75 -4.863281 4.675781 -5.125 4.59375 -5.4375 C 4.507812 -5.75 4.46875 -5.9375 4.46875 -6 C 4.394531 -5.582031 4.285156 -5.125 4.140625 -4.625 L 2.78125 0 L 1.984375 0 L 0.125 -6.953125 L 0.984375 -6.953125 L 2.078125 -2.65625 C 2.234375 -2.050781 2.347656 -1.503906 2.421875 -1.015625 C 2.503906 -1.597656 2.628906 -2.164062 2.796875 -2.71875 L 4.046875 -6.953125 L 4.890625 -6.953125 L 6.203125 -2.6875 C 6.359375 -2.195312 6.488281 -1.640625 6.59375 -1.015625 C 6.644531 -1.472656 6.757812 -2.023438 6.9375 -2.671875 L 8.015625 -6.953125 L 8.875 -6.953125 Z M 7.015625 0 "/></g></g></g><g fill="#ffffff" fill-opacity="1"><g transform="translate(225.551902, 117.483522)"><g/></g></g><g fill="#ffffff" fill-opacity="1"><g transform="translate(235.871347, 117.483522)"><g><path d="M 6.5 -3.546875 C 6.5 -2.398438 6.1875 -1.519531 5.5625 -0.90625 C 4.945312 -0.300781 4.050781 0 2.875 0 L 0.953125 0 L 0.953125 -6.953125 L 3.078125 -6.953125 C 4.160156 -6.953125 5 -6.648438 5.59375 -6.046875 C 6.195312 -5.453125 6.5 -4.617188 6.5 -3.546875 Z M 5.640625 -3.515625 C 5.640625 -4.421875 5.410156 -5.101562 4.953125 -5.5625 C 4.503906 -6.019531 3.832031 -6.25 2.9375 -6.25 L 1.765625 -6.25 L 1.765625 -0.703125 L 2.75 -0.703125 C 3.707031 -0.703125 4.425781 -0.9375 4.90625 -1.40625 C 5.394531 -1.882812 5.640625 -2.585938 5.640625 -3.515625 Z M 5.640625 -3.515625 "/></g></g></g><g fill="#ffffff" fill-opacity="1"><g transform="translate(250.757142, 117.483522)"><g><path d="M 0.953125 0 L 0.953125 -6.953125 L 1.765625 -6.953125 L 1.765625 0 Z M 0.953125 0 "/></g></g></g><g fill="#ffffff" fill-opacity="1"><g transform="translate(261.261906, 117.483522)"><g><path d="M 4.015625 -3.640625 L 6.375 -3.640625 L 6.375 -0.265625 C 6.007812 -0.140625 5.632812 -0.0507812 5.25 0 C 4.875 0.0625 4.4375 0.09375 3.9375 0.09375 C 2.882812 0.09375 2.0625 -0.21875 1.46875 -0.84375 C 0.882812 -1.46875 0.59375 -2.34375 0.59375 -3.46875 C 0.59375 -4.195312 0.738281 -4.832031 1.03125 -5.375 C 1.320312 -5.914062 1.738281 -6.328125 2.28125 -6.609375 C 2.820312 -6.898438 3.460938 -7.046875 4.203125 -7.046875 C 4.941406 -7.046875 5.628906 -6.910156 6.265625 -6.640625 L 5.953125 -5.921875 C 5.328125 -6.191406 4.722656 -6.328125 4.140625 -6.328125 C 3.296875 -6.328125 2.632812 -6.070312 2.15625 -5.5625 C 1.6875 -5.0625 1.453125 -4.363281 1.453125 -3.46875 C 1.453125 -2.53125 1.679688 -1.816406 2.140625 -1.328125 C 2.597656 -0.847656 3.269531 -0.609375 4.15625 -0.609375 C 4.632812 -0.609375 5.101562 -0.664062 5.5625 -0.78125 L 5.5625 -2.921875 L 4.015625 -2.921875 Z M 4.015625 -3.640625 "/></g></g></g><g fill="#ffffff" fill-opacity="1"><g transform="translate(276.138197, 117.483522)"><g><path d="M 0.953125 0 L 0.953125 -6.953125 L 1.765625 -6.953125 L 1.765625 0 Z M 0.953125 0 "/></g></g></g><g fill="#ffffff" fill-opacity="1"><g transform="translate(286.642961, 117.483522)"><g><path d="M 3.09375 0 L 2.28125 0 L 2.28125 -6.234375 L 0.078125 -6.234375 L 0.078125 -6.953125 L 5.296875 -6.953125 L 5.296875 -6.234375 L 3.09375 -6.234375 Z M 3.09375 0 "/></g></g></g><g fill="#ffffff" fill-opacity="1"><g transform="translate(299.818157, 117.483522)"><g><path d="M 5.328125 0 L 4.453125 -2.203125 L 1.671875 -2.203125 L 0.8125 0 L 0 0 L 2.75 -6.984375 L 3.421875 -6.984375 L 6.15625 0 Z M 4.203125 -2.9375 L 3.40625 -5.09375 C 3.289062 -5.363281 3.179688 -5.695312 3.078125 -6.09375 C 3.003906 -5.789062 2.90625 -5.457031 2.78125 -5.09375 L 1.953125 -2.9375 Z M 4.203125 -2.9375 "/></g></g></g><g fill="#ffffff" fill-opacity="1"><g transform="translate(313.76787, 117.483522)"><g><path d="M 0.953125 0 L 0.953125 -6.953125 L 1.765625 -6.953125 L 1.765625 -0.734375 L 4.828125 -0.734375 L 4.828125 0 Z M 0.953125 0 "/></g></g></g><g fill="#ffffff" fill-opacity="1"><g transform="translate(326.61046, 117.483522)"><g><path d="M 0.953125 0 L 0.953125 -6.953125 L 1.765625 -6.953125 L 1.765625 -0.734375 L 4.828125 -0.734375 L 4.828125 0 Z M 0.953125 0 "/></g></g></g><g fill="#ffffff" fill-opacity="1"><g transform="translate(339.453032, 117.483522)"><g><path d="M 2.71875 -3.46875 L 4.578125 -6.953125 L 5.453125 -6.953125 L 3.125 -2.6875 L 3.125 0 L 2.3125 0 L 2.3125 -2.65625 L 0 -6.953125 L 0.890625 -6.953125 Z M 2.71875 -3.46875 "/></g></g></g></svg>