<svg xmlns="http://www.w3.org/2000/svg" xmlns:xlink="http://www.w3.org/1999/xlink" width="700" zoomAndPan="magnify" viewBox="0 0 525 149.999998" height="200" preserveAspectRatio="xMidYMid meet" version="1.0"><defs><g/><clipPath id="6eefd3d1a6"><path d="M 8.472656 15 L 129.222656 15 L 129.222656 135.75 L 8.472656 135.75 Z M 8.472656 15 " clip-rule="nonzero"/></clipPath></defs><g clip-path="url(#6eefd3d1a6)"><path fill="#ffffff" d="M 68.898438 75.269531 L 68.898438 116.695312 C 68.84375 116.695312 68.789062 116.699219 68.734375 116.699219 C 45.890625 116.699219 27.304688 98.113281 27.304688 75.269531 C 27.304688 52.425781 45.890625 33.839844 68.734375 33.839844 C 91.578125 33.839844 110.164062 52.425781 110.164062 75.269531 C 110.164062 82.691406 108.199219 89.664062 104.765625 95.695312 L 118.433594 109.359375 C 120.71875 106.035156 122.667969 102.484375 124.257812 98.730469 C 127.402344 91.292969 128.996094 83.402344 128.996094 75.269531 C 128.996094 67.136719 127.402344 59.246094 124.257812 51.808594 C 121.222656 44.632812 116.878906 38.191406 111.347656 32.660156 C 105.816406 27.128906 99.371094 22.785156 92.195312 19.75 C 84.757812 16.601562 76.867188 15.007812 68.734375 15.007812 C 60.605469 15.007812 52.710938 16.601562 45.277344 19.75 C 38.097656 22.785156 31.65625 27.128906 26.125 32.660156 C 20.59375 38.191406 16.25 44.632812 13.214844 51.808594 C 10.070312 59.246094 8.472656 67.136719 8.472656 75.269531 C 8.472656 83.402344 10.070312 91.292969 13.214844 98.730469 C 16.25 105.90625 20.59375 112.347656 26.125 117.878906 C 31.65625 123.410156 38.097656 127.753906 45.277344 130.789062 C 52.710938 133.9375 60.605469 135.53125 68.734375 135.53125 C 75.257812 135.53125 81.628906 134.5 87.730469 132.472656 L 87.730469 120.734375 L 102.527344 135.53125 L 129.160156 135.53125 L 68.898438 75.269531 " fill-opacity="1" fill-rule="nonzero"/></g><g fill="#ffffff" fill-opacity="1"><g transform="translate(130.966286, 123.049939)"><g><path d="M 12.046875 0.5625 C 10.117188 0.5625 8.425781 0.175781 6.96875 -0.59375 C 5.507812 -1.363281 4.378906 -2.4375 3.578125 -3.8125 C 2.785156 -5.195312 2.390625 -6.8125 2.390625 -8.65625 L 2.390625 -20.515625 L 7.9375 -20.515625 L 7.9375 -9.3125 C 7.9375 -7.84375 8.296875 -6.695312 9.015625 -5.875 C 9.742188 -5.050781 10.753906 -4.640625 12.046875 -4.640625 C 13.335938 -4.640625 14.335938 -5.054688 15.046875 -5.890625 C 15.753906 -6.722656 16.109375 -7.863281 16.109375 -9.3125 L 16.109375 -20.515625 L 21.65625 -20.515625 L 21.65625 -8.65625 C 21.65625 -6.8125 21.253906 -5.195312 20.453125 -3.8125 C 19.660156 -2.4375 18.539062 -1.363281 17.09375 -0.59375 C 15.65625 0.175781 13.972656 0.5625 12.046875 0.5625 Z M 12.046875 0.5625 "/></g></g></g><g fill="#ffffff" fill-opacity="1"><g transform="translate(155.015369, 123.049939)"><g><path d="M 13.828125 -21.09375 C 15.929688 -21.09375 17.789062 -20.625 19.40625 -19.6875 C 21.03125 -18.75 22.304688 -17.460938 23.234375 -15.828125 C 24.160156 -14.191406 24.625 -12.335938 24.625 -10.265625 C 24.625 -8.179688 24.160156 -6.320312 23.234375 -4.6875 C 22.304688 -3.050781 21.03125 -1.765625 19.40625 -0.828125 C 17.789062 0.0976562 15.929688 0.5625 13.828125 0.5625 C 12.585938 0.5625 11.421875 0.367188 10.328125 -0.015625 C 9.242188 -0.410156 8.269531 -0.972656 7.40625 -1.703125 L 6.765625 0 L 2.65625 0 L 2.65625 -27.9375 L 8.203125 -27.9375 L 8.203125 -19.421875 C 8.992188 -19.953125 9.863281 -20.363281 10.8125 -20.65625 C 11.757812 -20.945312 12.765625 -21.09375 13.828125 -21.09375 Z M 13.375 -4.671875 C 14.46875 -4.671875 15.429688 -4.910156 16.265625 -5.390625 C 17.097656 -5.878906 17.753906 -6.546875 18.234375 -7.390625 C 18.722656 -8.234375 18.96875 -9.191406 18.96875 -10.265625 C 18.96875 -11.328125 18.722656 -12.28125 18.234375 -13.125 C 17.753906 -13.976562 17.097656 -14.648438 16.265625 -15.140625 C 15.429688 -15.640625 14.46875 -15.890625 13.375 -15.890625 C 12.3125 -15.890625 11.351562 -15.640625 10.5 -15.140625 C 9.65625 -14.648438 8.992188 -13.976562 8.515625 -13.125 C 8.035156 -12.28125 7.796875 -11.328125 7.796875 -10.265625 C 7.796875 -9.191406 8.035156 -8.238281 8.515625 -7.40625 C 8.992188 -6.570312 9.65625 -5.90625 10.5 -5.40625 C 11.351562 -4.914062 12.3125 -4.671875 13.375 -4.671875 Z M 13.375 -4.671875 "/></g></g></g><g fill="#ffffff" fill-opacity="1"><g transform="translate(180.964067, 123.049939)"><g><path d="M 2.65625 -23.25 L 2.65625 -28.421875 L 8.203125 -28.421875 L 8.203125 -23.25 Z M 2.65625 0 L 2.65625 -20.515625 L 8.203125 -20.515625 L 8.203125 0 Z M 2.65625 0 "/></g></g></g><g fill="#ffffff" fill-opacity="1"><g transform="translate(191.829843, 123.049939)"><g><path d="M 12.6875 -4.9375 L 15.203125 -4.9375 L 15.203125 0 L 11.28125 0 C 9.03125 0 7.25 -0.648438 5.9375 -1.953125 C 4.632812 -3.253906 3.984375 -5.046875 3.984375 -7.328125 L 3.984375 -16.078125 L 0.265625 -16.078125 L 0.265625 -17.25 L 8.390625 -25.875 L 9.421875 -25.875 L 9.421875 -20.515625 L 15.09375 -20.515625 L 15.09375 -16.078125 L 9.53125 -16.078125 L 9.53125 -8.0625 C 9.53125 -7.070312 9.800781 -6.300781 10.34375 -5.75 C 10.894531 -5.207031 11.675781 -4.9375 12.6875 -4.9375 Z M 12.6875 -4.9375 "/></g></g></g><g fill="#ffffff" fill-opacity="1"><g transform="translate(208.1665, 123.049939)"><g/></g></g><g fill="#ffffff" fill-opacity="1"><g transform="translate(217.246643, 123.049939)"><g><path d="M 13.109375 -26.59375 C 15.054688 -26.59375 16.851562 -26.265625 18.5 -25.609375 C 20.144531 -24.953125 21.570312 -24.023438 22.78125 -22.828125 C 23.988281 -21.640625 24.925781 -20.238281 25.59375 -18.625 C 26.257812 -17.019531 26.59375 -15.257812 26.59375 -13.34375 C 26.59375 -11.414062 26.257812 -9.640625 25.59375 -8.015625 C 24.925781 -6.398438 23.988281 -4.988281 22.78125 -3.78125 C 21.570312 -2.570312 20.144531 -1.640625 18.5 -0.984375 C 16.851562 -0.328125 15.054688 0 13.109375 0 L 3.046875 0 L 3.046875 -26.59375 Z M 12.953125 -5.359375 C 14.472656 -5.359375 15.816406 -5.695312 16.984375 -6.375 C 18.148438 -7.0625 19.0625 -8.003906 19.71875 -9.203125 C 20.375 -10.410156 20.703125 -11.789062 20.703125 -13.34375 C 20.703125 -14.882812 20.375 -16.25 19.71875 -17.4375 C 19.0625 -18.632812 18.148438 -19.566406 16.984375 -20.234375 C 15.816406 -20.898438 14.472656 -21.234375 12.953125 -21.234375 L 8.8125 -21.234375 L 8.8125 -5.359375 Z M 12.953125 -5.359375 "/></g></g></g><g fill="#ffffff" fill-opacity="1"><g transform="translate(245.398889, 123.049939)"><g><path d="M 2.65625 -23.25 L 2.65625 -28.421875 L 8.203125 -28.421875 L 8.203125 -23.25 Z M 2.65625 0 L 2.65625 -20.515625 L 8.203125 -20.515625 L 8.203125 0 Z M 2.65625 0 "/></g></g></g><g fill="#ffffff" fill-opacity="1"><g transform="translate(256.264665, 123.049939)"><g><path d="M 19.234375 -20.515625 L 22.84375 -20.515625 L 22.84375 -2.390625 C 22.84375 -0.234375 22.414062 1.613281 21.5625 3.15625 C 20.71875 4.695312 19.507812 5.882812 17.9375 6.71875 C 16.363281 7.5625 14.5 7.984375 12.34375 7.984375 C 9.5625 7.984375 7.238281 7.3125 5.375 5.96875 C 3.507812 4.625 2.351562 2.785156 1.90625 0.453125 L 7.40625 0.453125 C 7.707031 1.367188 8.332031 2.0625 9.28125 2.53125 C 10.238281 3 11.222656 3.234375 12.234375 3.234375 C 13.648438 3.234375 14.859375 2.804688 15.859375 1.953125 C 16.859375 1.109375 17.359375 -0.0703125 17.359375 -1.59375 L 17.359375 -2.359375 C 16.554688 -1.773438 15.660156 -1.320312 14.671875 -1 C 13.679688 -0.6875 12.628906 -0.53125 11.515625 -0.53125 C 9.609375 -0.53125 7.882812 -0.984375 6.34375 -1.890625 C 4.800781 -2.804688 3.578125 -4.035156 2.671875 -5.578125 C 1.773438 -7.128906 1.328125 -8.867188 1.328125 -10.796875 C 1.328125 -12.722656 1.773438 -14.460938 2.671875 -16.015625 C 3.578125 -17.578125 4.800781 -18.8125 6.34375 -19.71875 C 7.882812 -20.632812 9.609375 -21.09375 11.515625 -21.09375 C 12.859375 -21.09375 14.113281 -20.863281 15.28125 -20.40625 C 16.445312 -19.945312 17.472656 -19.300781 18.359375 -18.46875 Z M 12.15625 -5.46875 C 13.675781 -5.46875 14.929688 -5.96875 15.921875 -6.96875 C 16.910156 -7.96875 17.40625 -9.242188 17.40625 -10.796875 C 17.40625 -12.316406 16.914062 -13.578125 15.9375 -14.578125 C 14.96875 -15.578125 13.707031 -16.078125 12.15625 -16.078125 C 10.664062 -16.078125 9.425781 -15.578125 8.4375 -14.578125 C 7.445312 -13.578125 6.953125 -12.316406 6.953125 -10.796875 C 6.953125 -9.242188 7.4375 -7.96875 8.40625 -6.96875 C 9.382812 -5.96875 10.632812 -5.46875 12.15625 -5.46875 Z M 12.15625 -5.46875 "/></g></g></g><g fill="#ffffff" fill-opacity="1"><g transform="translate(281.757453, 123.049939)"><g><path d="M 2.65625 -23.25 L 2.65625 -28.421875 L 8.203125 -28.421875 L 8.203125 -23.25 Z M 2.65625 0 L 2.65625 -20.515625 L 8.203125 -20.515625 L 8.203125 0 Z M 2.65625 0 "/></g></g></g><g fill="#ffffff" fill-opacity="1"><g transform="translate(292.623229, 123.049939)"><g><path d="M 12.6875 -4.9375 L 15.203125 -4.9375 L 15.203125 0 L 11.28125 0 C 9.03125 0 7.25 -0.648438 5.9375 -1.953125 C 4.632812 -3.253906 3.984375 -5.046875 3.984375 -7.328125 L 3.984375 -16.078125 L 0.265625 -16.078125 L 0.265625 -17.25 L 8.390625 -25.875 L 9.421875 -25.875 L 9.421875 -20.515625 L 15.09375 -20.515625 L 15.09375 -16.078125 L 9.53125 -16.078125 L 9.53125 -8.0625 C 9.53125 -7.070312 9.800781 -6.300781 10.34375 -5.75 C 10.894531 -5.207031 11.675781 -4.9375 12.6875 -4.9375 Z M 12.6875 -4.9375 "/></g></g></g><g fill="#ffffff" fill-opacity="1"><g transform="translate(308.959886, 123.049939)"><g><path d="M 19.421875 -20.5625 L 23.5625 -20.5625 L 23.5625 -0.03125 L 19.1875 -0.03125 L 18.734375 -1.859375 C 17.847656 -1.097656 16.835938 -0.503906 15.703125 -0.078125 C 14.578125 0.347656 13.367188 0.5625 12.078125 0.5625 C 10.023438 0.5625 8.1875 0.0859375 6.5625 -0.859375 C 4.945312 -1.804688 3.671875 -3.097656 2.734375 -4.734375 C 1.796875 -6.367188 1.328125 -8.222656 1.328125 -10.296875 C 1.328125 -12.347656 1.796875 -14.191406 2.734375 -15.828125 C 3.671875 -17.460938 4.945312 -18.75 6.5625 -19.6875 C 8.1875 -20.625 10.023438 -21.09375 12.078125 -21.09375 C 13.398438 -21.09375 14.628906 -20.867188 15.765625 -20.421875 C 16.910156 -19.984375 17.925781 -19.367188 18.8125 -18.578125 Z M 12.546875 -4.671875 C 13.609375 -4.671875 14.5625 -4.910156 15.40625 -5.390625 C 16.257812 -5.878906 16.925781 -6.546875 17.40625 -7.390625 C 17.882812 -8.234375 18.125 -9.203125 18.125 -10.296875 C 18.125 -11.359375 17.882812 -12.3125 17.40625 -13.15625 C 16.925781 -14.007812 16.257812 -14.679688 15.40625 -15.171875 C 14.5625 -15.671875 13.609375 -15.921875 12.546875 -15.921875 C 11.453125 -15.921875 10.484375 -15.671875 9.640625 -15.171875 C 8.804688 -14.679688 8.148438 -14.007812 7.671875 -13.15625 C 7.191406 -12.3125 6.953125 -11.359375 6.953125 -10.296875 C 6.953125 -9.203125 7.191406 -8.238281 7.671875 -7.40625 C 8.148438 -6.570312 8.804688 -5.90625 9.640625 -5.40625 C 10.484375 -4.914062 11.453125 -4.671875 12.546875 -4.671875 Z M 12.546875 -4.671875 "/></g></g></g><g fill="#ffffff" fill-opacity="1"><g transform="translate(335.174534, 123.049939)"><g><path d="M 2.65625 0 L 2.65625 -27.9375 L 8.203125 -27.9375 L 8.203125 0 Z M 2.65625 0 "/></g></g></g><g fill="#ffffff" fill-opacity="1"><g transform="translate(346.040309, 123.049939)"><g/></g></g><g fill="#ffffff" fill-opacity="1"><g transform="translate(355.120463, 123.049939)"><g><path d="M 11.859375 0.53125 C 9.828125 0.53125 8.039062 0.164062 6.5 -0.5625 C 4.957031 -1.300781 3.75 -2.351562 2.875 -3.71875 C 2 -5.09375 1.5625 -6.726562 1.5625 -8.625 L 7.375 -8.625 C 7.375 -7.332031 7.820312 -6.375 8.71875 -5.75 C 9.613281 -5.132812 10.644531 -4.828125 11.8125 -4.828125 C 12.550781 -4.828125 13.242188 -4.945312 13.890625 -5.1875 C 14.535156 -5.425781 15.066406 -5.78125 15.484375 -6.25 C 15.898438 -6.71875 16.109375 -7.28125 16.109375 -7.9375 C 16.109375 -8.625 15.867188 -9.160156 15.390625 -9.546875 C 14.910156 -9.941406 14.265625 -10.265625 13.453125 -10.515625 C 12.640625 -10.773438 11.753906 -11.019531 10.796875 -11.25 C 9.804688 -11.476562 8.789062 -11.753906 7.75 -12.078125 C 6.707031 -12.410156 5.742188 -12.847656 4.859375 -13.390625 C 3.972656 -13.941406 3.265625 -14.675781 2.734375 -15.59375 C 2.203125 -16.519531 1.9375 -17.691406 1.9375 -19.109375 C 1.9375 -21.671875 2.800781 -23.640625 4.53125 -25.015625 C 6.269531 -26.398438 8.625 -27.09375 11.59375 -27.09375 C 14.632812 -27.09375 16.988281 -26.328125 18.65625 -24.796875 C 20.332031 -23.265625 21.171875 -21.179688 21.171875 -18.546875 L 15.46875 -18.546875 C 15.46875 -19.679688 15.0625 -20.519531 14.25 -21.0625 C 13.4375 -21.613281 12.5 -21.890625 11.4375 -21.890625 C 10.5 -21.890625 9.632812 -21.6875 8.84375 -21.28125 C 8.0625 -20.875 7.671875 -20.238281 7.671875 -19.375 C 7.671875 -18.75 7.90625 -18.25 8.375 -17.875 C 8.84375 -17.507812 9.460938 -17.207031 10.234375 -16.96875 C 11.015625 -16.726562 11.875 -16.492188 12.8125 -16.265625 C 13.820312 -16.015625 14.859375 -15.71875 15.921875 -15.375 C 16.984375 -15.03125 17.96875 -14.566406 18.875 -13.984375 C 19.789062 -13.398438 20.535156 -12.625 21.109375 -11.65625 C 21.679688 -10.695312 21.96875 -9.484375 21.96875 -8.015625 C 21.96875 -6.085938 21.503906 -4.488281 20.578125 -3.21875 C 19.648438 -1.957031 18.425781 -1.015625 16.90625 -0.390625 C 15.382812 0.222656 13.703125 0.53125 11.859375 0.53125 Z M 11.859375 0.53125 "/></g></g></g><g fill="#ffffff" fill-opacity="1"><g transform="translate(378.637658, 123.049939)"><g><path d="M 12.421875 0.5625 C 10.296875 0.5625 8.394531 0.0859375 6.71875 -0.859375 C 5.050781 -1.804688 3.734375 -3.097656 2.765625 -4.734375 C 1.804688 -6.367188 1.328125 -8.210938 1.328125 -10.265625 C 1.328125 -12.335938 1.804688 -14.191406 2.765625 -15.828125 C 3.734375 -17.460938 5.050781 -18.75 6.71875 -19.6875 C 8.394531 -20.625 10.296875 -21.09375 12.421875 -21.09375 C 14.523438 -21.09375 16.410156 -20.625 18.078125 -19.6875 C 19.753906 -18.75 21.070312 -17.460938 22.03125 -15.828125 C 23 -14.191406 23.484375 -12.335938 23.484375 -10.265625 C 23.484375 -8.210938 23 -6.367188 22.03125 -4.734375 C 21.070312 -3.097656 19.753906 -1.804688 18.078125 -0.859375 C 16.410156 0.0859375 14.523438 0.5625 12.421875 0.5625 Z M 12.421875 -4.640625 C 14.015625 -4.640625 15.316406 -5.15625 16.328125 -6.1875 C 17.347656 -7.226562 17.859375 -8.585938 17.859375 -10.265625 C 17.859375 -11.929688 17.347656 -13.285156 16.328125 -14.328125 C 15.316406 -15.367188 14.015625 -15.890625 12.421875 -15.890625 C 10.804688 -15.890625 9.488281 -15.367188 8.46875 -14.328125 C 7.457031 -13.285156 6.953125 -11.929688 6.953125 -10.265625 C 6.953125 -8.585938 7.457031 -7.226562 8.46875 -6.1875 C 9.488281 -5.15625 10.804688 -4.640625 12.421875 -4.640625 Z M 12.421875 -4.640625 "/></g></g></g><g fill="#ffffff" fill-opacity="1"><g transform="translate(403.446594, 123.049939)"><g><path d="M 2.65625 0 L 2.65625 -27.9375 L 8.203125 -27.9375 L 8.203125 0 Z M 2.65625 0 "/></g></g></g><g fill="#ffffff" fill-opacity="1"><g transform="translate(414.31237, 123.049939)"><g><path d="M 12.046875 0.5625 C 10.117188 0.5625 8.425781 0.175781 6.96875 -0.59375 C 5.507812 -1.363281 4.378906 -2.4375 3.578125 -3.8125 C 2.785156 -5.195312 2.390625 -6.8125 2.390625 -8.65625 L 2.390625 -20.515625 L 7.9375 -20.515625 L 7.9375 -9.3125 C 7.9375 -7.84375 8.296875 -6.695312 9.015625 -5.875 C 9.742188 -5.050781 10.753906 -4.640625 12.046875 -4.640625 C 13.335938 -4.640625 14.335938 -5.054688 15.046875 -5.890625 C 15.753906 -6.722656 16.109375 -7.863281 16.109375 -9.3125 L 16.109375 -20.515625 L 21.65625 -20.515625 L 21.65625 -8.65625 C 21.65625 -6.8125 21.253906 -5.195312 20.453125 -3.8125 C 19.660156 -2.4375 18.539062 -1.363281 17.09375 -0.59375 C 15.65625 0.175781 13.972656 0.5625 12.046875 0.5625 Z M 12.046875 0.5625 "/></g></g></g><g fill="#ffffff" fill-opacity="1"><g transform="translate(438.361441, 123.049939)"><g><path d="M 12.6875 -4.9375 L 15.203125 -4.9375 L 15.203125 0 L 11.28125 0 C 9.03125 0 7.25 -0.648438 5.9375 -1.953125 C 4.632812 -3.253906 3.984375 -5.046875 3.984375 -7.328125 L 3.984375 -16.078125 L 0.265625 -16.078125 L 0.265625 -17.25 L 8.390625 -25.875 L 9.421875 -25.875 L 9.421875 -20.515625 L 15.09375 -20.515625 L 15.09375 -16.078125 L 9.53125 -16.078125 L 9.53125 -8.0625 C 9.53125 -7.070312 9.800781 -6.300781 10.34375 -5.75 C 10.894531 -5.207031 11.675781 -4.9375 12.6875 -4.9375 Z M 12.6875 -4.9375 "/></g></g></g><g fill="#ffffff" fill-opacity="1"><g transform="translate(454.69811, 123.049939)"><g><path d="M 2.65625 -23.25 L 2.65625 -28.421875 L 8.203125 -28.421875 L 8.203125 -23.25 Z M 2.65625 0 L 2.65625 -20.515625 L 8.203125 -20.515625 L 8.203125 0 Z M 2.65625 0 "/></g></g></g><g fill="#ffffff" fill-opacity="1"><g transform="translate(465.563885, 123.049939)"><g><path d="M 12.421875 0.5625 C 10.296875 0.5625 8.394531 0.0859375 6.71875 -0.859375 C 5.050781 -1.804688 3.734375 -3.097656 2.765625 -4.734375 C 1.804688 -6.367188 1.328125 -8.210938 1.328125 -10.265625 C 1.328125 -12.335938 1.804688 -14.191406 2.765625 -15.828125 C 3.734375 -17.460938 5.050781 -18.75 6.71875 -19.6875 C 8.394531 -20.625 10.296875 -21.09375 12.421875 -21.09375 C 14.523438 -21.09375 16.410156 -20.625 18.078125 -19.6875 C 19.753906 -18.75 21.070312 -17.460938 22.03125 -15.828125 C 23 -14.191406 23.484375 -12.335938 23.484375 -10.265625 C 23.484375 -8.210938 23 -6.367188 22.03125 -4.734375 C 21.070312 -3.097656 19.753906 -1.804688 18.078125 -0.859375 C 16.410156 0.0859375 14.523438 0.5625 12.421875 0.5625 Z M 12.421875 -4.640625 C 14.015625 -4.640625 15.316406 -5.15625 16.328125 -6.1875 C 17.347656 -7.226562 17.859375 -8.585938 17.859375 -10.265625 C 17.859375 -11.929688 17.347656 -13.285156 16.328125 -14.328125 C 15.316406 -15.367188 14.015625 -15.890625 12.421875 -15.890625 C 10.804688 -15.890625 9.488281 -15.367188 8.46875 -14.328125 C 7.457031 -13.285156 6.953125 -11.929688 6.953125 -10.265625 C 6.953125 -8.585938 7.457031 -7.226562 8.46875 -6.1875 C 9.488281 -5.15625 10.804688 -4.640625 12.421875 -4.640625 Z M 12.421875 -4.640625 "/></g></g></g><g fill="#ffffff" fill-opacity="1"><g transform="translate(490.372821, 123.049939)"><g><path d="M 14.359375 -21.015625 C 16.691406 -21.015625 18.535156 -20.234375 19.890625 -18.671875 C 21.242188 -17.117188 21.921875 -15.035156 21.921875 -12.421875 L 21.921875 0 L 16.375 0 L 16.375 -11.546875 C 16.375 -14.617188 15.1875 -16.15625 12.8125 -16.15625 C 11.382812 -16.15625 10.257812 -15.671875 9.4375 -14.703125 C 8.613281 -13.742188 8.203125 -12.441406 8.203125 -10.796875 L 8.203125 0 L 2.65625 0 L 2.65625 -20.515625 L 6.453125 -20.515625 L 7.5625 -17.96875 C 8.320312 -18.90625 9.296875 -19.644531 10.484375 -20.1875 C 11.679688 -20.738281 12.972656 -21.015625 14.359375 -21.015625 Z M 14.359375 -21.015625 "/></g></g></g><g fill="#ffffff" fill-opacity="1"><g transform="translate(176.261448, 75.688147)"><g><path d="M 3.5 -8.90625 L 0.0625 -8.90625 L 0.0625 -9.796875 L 7.984375 -9.796875 L 7.984375 -8.90625 L 4.53125 -8.90625 L 4.53125 0 L 3.5 0 Z M 3.5 -8.90625 "/></g></g></g><g fill="#ffffff" fill-opacity="1"><g transform="translate(184.292969, 75.688147)"><g><path d="M 2.34375 -5.921875 C 2.570312 -6.410156 2.914062 -6.78125 3.375 -7.03125 C 3.84375 -7.289062 4.414062 -7.421875 5.09375 -7.421875 L 5.09375 -6.453125 L 4.859375 -6.46875 C 4.085938 -6.46875 3.476562 -6.226562 3.03125 -5.75 C 2.59375 -5.28125 2.375 -4.613281 2.375 -3.75 L 2.375 0 L 1.390625 0 L 1.390625 -7.359375 L 2.34375 -7.359375 Z M 2.34375 -5.921875 "/></g></g></g><g fill="#ffffff" fill-opacity="1"><g transform="translate(189.903835, 75.688147)"><g><path d="M 3.96875 -7.421875 C 4.925781 -7.421875 5.660156 -7.179688 6.171875 -6.703125 C 6.679688 -6.222656 6.9375 -5.507812 6.9375 -4.5625 L 6.9375 0 L 5.984375 0 L 5.984375 -1.140625 C 5.765625 -0.765625 5.4375 -0.46875 5 -0.25 C 4.570312 -0.0390625 4.054688 0.0625 3.453125 0.0625 C 2.628906 0.0625 1.972656 -0.128906 1.484375 -0.515625 C 1.003906 -0.910156 0.765625 -1.429688 0.765625 -2.078125 C 0.765625 -2.703125 0.988281 -3.203125 1.4375 -3.578125 C 1.894531 -3.960938 2.617188 -4.15625 3.609375 -4.15625 L 5.953125 -4.15625 L 5.953125 -4.609375 C 5.953125 -5.242188 5.773438 -5.722656 5.421875 -6.046875 C 5.066406 -6.378906 4.546875 -6.546875 3.859375 -6.546875 C 3.390625 -6.546875 2.941406 -6.46875 2.515625 -6.3125 C 2.085938 -6.164062 1.71875 -5.957031 1.40625 -5.6875 L 0.96875 -6.421875 C 1.34375 -6.742188 1.789062 -6.988281 2.3125 -7.15625 C 2.832031 -7.332031 3.382812 -7.421875 3.96875 -7.421875 Z M 3.609375 -0.71875 C 4.171875 -0.71875 4.648438 -0.84375 5.046875 -1.09375 C 5.453125 -1.351562 5.753906 -1.726562 5.953125 -2.21875 L 5.953125 -3.421875 L 3.640625 -3.421875 C 2.378906 -3.421875 1.75 -2.976562 1.75 -2.09375 C 1.75 -1.664062 1.910156 -1.328125 2.234375 -1.078125 C 2.566406 -0.835938 3.023438 -0.71875 3.609375 -0.71875 Z M 3.609375 -0.71875 "/></g></g></g><g fill="#ffffff" fill-opacity="1"><g transform="translate(198.159225, 75.688147)"><g><path d="M 5.140625 -7.421875 C 6.066406 -7.421875 6.800781 -7.148438 7.34375 -6.609375 C 7.882812 -6.078125 8.15625 -5.296875 8.15625 -4.265625 L 8.15625 0 L 7.171875 0 L 7.171875 -4.171875 C 7.171875 -4.929688 6.976562 -5.515625 6.59375 -5.921875 C 6.207031 -6.328125 5.660156 -6.53125 4.953125 -6.53125 C 4.160156 -6.53125 3.53125 -6.289062 3.0625 -5.8125 C 2.601562 -5.34375 2.375 -4.691406 2.375 -3.859375 L 2.375 0 L 1.390625 0 L 1.390625 -7.359375 L 2.34375 -7.359375 L 2.34375 -6 C 2.613281 -6.445312 2.988281 -6.796875 3.46875 -7.046875 C 3.945312 -7.296875 4.503906 -7.421875 5.140625 -7.421875 Z M 5.140625 -7.421875 "/></g></g></g><g fill="#ffffff" fill-opacity="1"><g transform="translate(207.631934, 75.688147)"><g><path d="M 3.359375 0.0625 C 2.765625 0.0625 2.191406 -0.0195312 1.640625 -0.1875 C 1.097656 -0.363281 0.671875 -0.582031 0.359375 -0.84375 L 0.8125 -1.625 C 1.125 -1.382812 1.507812 -1.1875 1.96875 -1.03125 C 2.4375 -0.875 2.925781 -0.796875 3.4375 -0.796875 C 4.101562 -0.796875 4.597656 -0.898438 4.921875 -1.109375 C 5.242188 -1.316406 5.40625 -1.613281 5.40625 -2 C 5.40625 -2.269531 5.316406 -2.484375 5.140625 -2.640625 C 4.960938 -2.796875 4.738281 -2.910156 4.46875 -2.984375 C 4.195312 -3.066406 3.835938 -3.144531 3.390625 -3.21875 C 2.785156 -3.332031 2.300781 -3.445312 1.9375 -3.5625 C 1.582031 -3.675781 1.273438 -3.875 1.015625 -4.15625 C 0.753906 -4.4375 0.625 -4.820312 0.625 -5.3125 C 0.625 -5.9375 0.878906 -6.441406 1.390625 -6.828125 C 1.910156 -7.222656 2.628906 -7.421875 3.546875 -7.421875 C 4.015625 -7.421875 4.488281 -7.359375 4.96875 -7.234375 C 5.445312 -7.109375 5.835938 -6.941406 6.140625 -6.734375 L 5.71875 -5.9375 C 5.101562 -6.351562 4.378906 -6.5625 3.546875 -6.5625 C 2.910156 -6.5625 2.429688 -6.445312 2.109375 -6.21875 C 1.785156 -6 1.625 -5.707031 1.625 -5.34375 C 1.625 -5.0625 1.710938 -4.835938 1.890625 -4.671875 C 2.078125 -4.503906 2.304688 -4.378906 2.578125 -4.296875 C 2.847656 -4.222656 3.222656 -4.144531 3.703125 -4.0625 C 4.285156 -3.945312 4.753906 -3.832031 5.109375 -3.71875 C 5.460938 -3.613281 5.765625 -3.425781 6.015625 -3.15625 C 6.265625 -2.882812 6.390625 -2.507812 6.390625 -2.03125 C 6.390625 -1.382812 6.117188 -0.875 5.578125 -0.5 C 5.046875 -0.125 4.304688 0.0625 3.359375 0.0625 Z M 3.359375 0.0625 "/></g></g></g><g fill="#ffffff" fill-opacity="1"><g transform="translate(214.474116, 75.688147)"><g><path d="M 3.828125 -9.625 C 3.390625 -9.625 3.0625 -9.503906 2.84375 -9.265625 C 2.625 -9.035156 2.515625 -8.691406 2.515625 -8.234375 L 2.515625 -7.359375 L 4.78125 -7.359375 L 4.78125 -6.53125 L 2.546875 -6.53125 L 2.546875 0 L 1.546875 0 L 1.546875 -6.53125 L 0.234375 -6.53125 L 0.234375 -7.359375 L 1.546875 -7.359375 L 1.546875 -8.28125 C 1.546875 -8.945312 1.738281 -9.472656 2.125 -9.859375 C 2.519531 -10.253906 3.070312 -10.453125 3.78125 -10.453125 C 4.0625 -10.453125 4.332031 -10.410156 4.59375 -10.328125 C 4.851562 -10.253906 5.070312 -10.144531 5.25 -10 L 4.90625 -9.25 C 4.625 -9.5 4.265625 -9.625 3.828125 -9.625 Z M 3.828125 -9.625 "/></g></g></g><g fill="#ffffff" fill-opacity="1"><g transform="translate(219.217462, 75.688147)"><g><path d="M 4.390625 0.0625 C 3.679688 0.0625 3.039062 -0.09375 2.46875 -0.40625 C 1.90625 -0.726562 1.457031 -1.175781 1.125 -1.75 C 0.800781 -2.320312 0.640625 -2.96875 0.640625 -3.6875 C 0.640625 -4.40625 0.800781 -5.046875 1.125 -5.609375 C 1.457031 -6.179688 1.90625 -6.625 2.46875 -6.9375 C 3.039062 -7.257812 3.679688 -7.421875 4.390625 -7.421875 C 5.097656 -7.421875 5.738281 -7.257812 6.3125 -6.9375 C 6.882812 -6.625 7.332031 -6.179688 7.65625 -5.609375 C 7.976562 -5.046875 8.140625 -4.40625 8.140625 -3.6875 C 8.140625 -2.96875 7.976562 -2.320312 7.65625 -1.75 C 7.332031 -1.175781 6.882812 -0.726562 6.3125 -0.40625 C 5.738281 -0.09375 5.097656 0.0625 4.390625 0.0625 Z M 4.390625 -0.8125 C 4.921875 -0.8125 5.390625 -0.929688 5.796875 -1.171875 C 6.210938 -1.410156 6.535156 -1.75 6.765625 -2.1875 C 7.003906 -2.625 7.125 -3.125 7.125 -3.6875 C 7.125 -4.238281 7.003906 -4.734375 6.765625 -5.171875 C 6.535156 -5.617188 6.210938 -5.957031 5.796875 -6.1875 C 5.390625 -6.425781 4.921875 -6.546875 4.390625 -6.546875 C 3.867188 -6.546875 3.398438 -6.425781 2.984375 -6.1875 C 2.566406 -5.957031 2.238281 -5.617188 2 -5.171875 C 1.769531 -4.734375 1.65625 -4.238281 1.65625 -3.6875 C 1.65625 -3.125 1.769531 -2.625 2 -2.1875 C 2.238281 -1.75 2.566406 -1.410156 2.984375 -1.171875 C 3.398438 -0.929688 3.867188 -0.8125 4.390625 -0.8125 Z M 4.390625 -0.8125 "/></g></g></g><g fill="#ffffff" fill-opacity="1"><g transform="translate(227.99056, 75.688147)"><g><path d="M 2.34375 -5.921875 C 2.570312 -6.410156 2.914062 -6.78125 3.375 -7.03125 C 3.84375 -7.289062 4.414062 -7.421875 5.09375 -7.421875 L 5.09375 -6.453125 L 4.859375 -6.46875 C 4.085938 -6.46875 3.476562 -6.226562 3.03125 -5.75 C 2.59375 -5.28125 2.375 -4.613281 2.375 -3.75 L 2.375 0 L 1.390625 0 L 1.390625 -7.359375 L 2.34375 -7.359375 Z M 2.34375 -5.921875 "/></g></g></g><g fill="#ffffff" fill-opacity="1"><g transform="translate(233.601426, 75.688147)"><g><path d="M 10.5625 -7.421875 C 11.488281 -7.421875 12.210938 -7.15625 12.734375 -6.625 C 13.265625 -6.09375 13.53125 -5.304688 13.53125 -4.265625 L 13.53125 0 L 12.546875 0 L 12.546875 -4.171875 C 12.546875 -4.929688 12.359375 -5.515625 11.984375 -5.921875 C 11.617188 -6.328125 11.101562 -6.53125 10.4375 -6.53125 C 9.664062 -6.53125 9.0625 -6.289062 8.625 -5.8125 C 8.1875 -5.34375 7.96875 -4.691406 7.96875 -3.859375 L 7.96875 0 L 6.96875 0 L 6.96875 -4.171875 C 6.96875 -4.929688 6.78125 -5.515625 6.40625 -5.921875 C 6.039062 -6.328125 5.519531 -6.53125 4.84375 -6.53125 C 4.082031 -6.53125 3.476562 -6.289062 3.03125 -5.8125 C 2.59375 -5.34375 2.375 -4.691406 2.375 -3.859375 L 2.375 0 L 1.390625 0 L 1.390625 -7.359375 L 2.34375 -7.359375 L 2.34375 -6.015625 C 2.601562 -6.460938 2.960938 -6.804688 3.421875 -7.046875 C 3.890625 -7.296875 4.429688 -7.421875 5.046875 -7.421875 C 5.660156 -7.421875 6.191406 -7.289062 6.640625 -7.03125 C 7.097656 -6.769531 7.4375 -6.378906 7.65625 -5.859375 C 7.925781 -6.347656 8.316406 -6.726562 8.828125 -7 C 9.335938 -7.28125 9.914062 -7.421875 10.5625 -7.421875 Z M 10.5625 -7.421875 "/></g></g></g><g fill="#ffffff" fill-opacity="1"><g transform="translate(248.447136, 75.688147)"><g><path d="M 1.390625 -7.359375 L 2.375 -7.359375 L 2.375 0 L 1.390625 0 Z M 1.890625 -8.96875 C 1.679688 -8.96875 1.507812 -9.035156 1.375 -9.171875 C 1.238281 -9.316406 1.171875 -9.488281 1.171875 -9.6875 C 1.171875 -9.875 1.238281 -10.035156 1.375 -10.171875 C 1.507812 -10.316406 1.679688 -10.390625 1.890625 -10.390625 C 2.097656 -10.390625 2.269531 -10.320312 2.40625 -10.1875 C 2.550781 -10.050781 2.625 -9.890625 2.625 -9.703125 C 2.625 -9.492188 2.550781 -9.316406 2.40625 -9.171875 C 2.269531 -9.035156 2.097656 -8.96875 1.890625 -8.96875 Z M 1.890625 -8.96875 "/></g></g></g><g fill="#ffffff" fill-opacity="1"><g transform="translate(252.21104, 75.688147)"><g><path d="M 5.140625 -7.421875 C 6.066406 -7.421875 6.800781 -7.148438 7.34375 -6.609375 C 7.882812 -6.078125 8.15625 -5.296875 8.15625 -4.265625 L 8.15625 0 L 7.171875 0 L 7.171875 -4.171875 C 7.171875 -4.929688 6.976562 -5.515625 6.59375 -5.921875 C 6.207031 -6.328125 5.660156 -6.53125 4.953125 -6.53125 C 4.160156 -6.53125 3.53125 -6.289062 3.0625 -5.8125 C 2.601562 -5.34375 2.375 -4.691406 2.375 -3.859375 L 2.375 0 L 1.390625 0 L 1.390625 -7.359375 L 2.34375 -7.359375 L 2.34375 -6 C 2.613281 -6.445312 2.988281 -6.796875 3.46875 -7.046875 C 3.945312 -7.296875 4.503906 -7.421875 5.140625 -7.421875 Z M 5.140625 -7.421875 "/></g></g></g><g fill="#ffffff" fill-opacity="1"><g transform="translate(261.683749, 75.688147)"><g><path d="M 8.203125 -7.359375 L 8.203125 -0.890625 C 8.203125 0.359375 7.894531 1.28125 7.28125 1.875 C 6.675781 2.476562 5.753906 2.78125 4.515625 2.78125 C 3.835938 2.78125 3.191406 2.679688 2.578125 2.484375 C 1.972656 2.285156 1.476562 2.007812 1.09375 1.65625 L 1.59375 0.890625 C 1.945312 1.210938 2.378906 1.460938 2.890625 1.640625 C 3.398438 1.816406 3.9375 1.90625 4.5 1.90625 C 5.425781 1.90625 6.109375 1.6875 6.546875 1.25 C 6.984375 0.820312 7.203125 0.148438 7.203125 -0.765625 L 7.203125 -1.703125 C 6.898438 -1.242188 6.5 -0.890625 6 -0.640625 C 5.5 -0.398438 4.945312 -0.28125 4.34375 -0.28125 C 3.644531 -0.28125 3.015625 -0.429688 2.453125 -0.734375 C 1.890625 -1.035156 1.445312 -1.457031 1.125 -2 C 0.800781 -2.550781 0.640625 -3.171875 0.640625 -3.859375 C 0.640625 -4.554688 0.800781 -5.175781 1.125 -5.71875 C 1.445312 -6.257812 1.890625 -6.675781 2.453125 -6.96875 C 3.015625 -7.269531 3.644531 -7.421875 4.34375 -7.421875 C 4.96875 -7.421875 5.53125 -7.289062 6.03125 -7.03125 C 6.539062 -6.78125 6.945312 -6.421875 7.25 -5.953125 L 7.25 -7.359375 Z M 4.4375 -1.15625 C 4.96875 -1.15625 5.445312 -1.269531 5.875 -1.5 C 6.3125 -1.726562 6.644531 -2.046875 6.875 -2.453125 C 7.113281 -2.867188 7.234375 -3.335938 7.234375 -3.859375 C 7.234375 -4.378906 7.113281 -4.84375 6.875 -5.25 C 6.644531 -5.65625 6.316406 -5.972656 5.890625 -6.203125 C 5.460938 -6.429688 4.976562 -6.546875 4.4375 -6.546875 C 3.90625 -6.546875 3.425781 -6.429688 3 -6.203125 C 2.570312 -5.984375 2.238281 -5.664062 2 -5.25 C 1.769531 -4.84375 1.65625 -4.378906 1.65625 -3.859375 C 1.65625 -3.335938 1.769531 -2.867188 2 -2.453125 C 2.238281 -2.046875 2.570312 -1.726562 3 -1.5 C 3.425781 -1.269531 3.90625 -1.15625 4.4375 -1.15625 Z M 4.4375 -1.15625 "/></g></g></g><g fill="#ffffff" fill-opacity="1"><g transform="translate(271.282389, 75.688147)"><g/></g></g><g fill="#ffffff" fill-opacity="1"><g transform="translate(274.948344, 75.688147)"><g><path d="M 1.59375 -9.796875 L 2.625 -9.796875 L 2.625 0 L 1.59375 0 Z M 1.59375 -9.796875 "/></g></g></g><g fill="#ffffff" fill-opacity="1"><g transform="translate(279.173983, 75.688147)"><g><path d="M 8.109375 -10.390625 L 8.109375 0 L 7.15625 0 L 7.15625 -1.453125 C 6.851562 -0.960938 6.457031 -0.585938 5.96875 -0.328125 C 5.476562 -0.0664062 4.925781 0.0625 4.3125 0.0625 C 3.625 0.0625 3 -0.09375 2.4375 -0.40625 C 1.875 -0.71875 1.429688 -1.160156 1.109375 -1.734375 C 0.796875 -2.304688 0.640625 -2.957031 0.640625 -3.6875 C 0.640625 -4.414062 0.796875 -5.0625 1.109375 -5.625 C 1.429688 -6.195312 1.875 -6.640625 2.4375 -6.953125 C 3 -7.265625 3.625 -7.421875 4.3125 -7.421875 C 4.90625 -7.421875 5.441406 -7.296875 5.921875 -7.046875 C 6.410156 -6.796875 6.804688 -6.4375 7.109375 -5.96875 L 7.109375 -10.390625 Z M 4.390625 -0.8125 C 4.910156 -0.8125 5.375 -0.929688 5.78125 -1.171875 C 6.195312 -1.410156 6.523438 -1.75 6.765625 -2.1875 C 7.003906 -2.625 7.125 -3.125 7.125 -3.6875 C 7.125 -4.238281 7.003906 -4.734375 6.765625 -5.171875 C 6.523438 -5.617188 6.195312 -5.957031 5.78125 -6.1875 C 5.375 -6.425781 4.910156 -6.546875 4.390625 -6.546875 C 3.867188 -6.546875 3.398438 -6.425781 2.984375 -6.1875 C 2.566406 -5.957031 2.238281 -5.617188 2 -5.171875 C 1.769531 -4.734375 1.65625 -4.238281 1.65625 -3.6875 C 1.65625 -3.125 1.769531 -2.625 2 -2.1875 C 2.238281 -1.75 2.566406 -1.410156 2.984375 -1.171875 C 3.398438 -0.929688 3.867188 -0.8125 4.390625 -0.8125 Z M 4.390625 -0.8125 "/></g></g></g><g fill="#ffffff" fill-opacity="1"><g transform="translate(288.660688, 75.688147)"><g><path d="M 7.796875 -3.375 L 1.640625 -3.375 C 1.691406 -2.601562 1.984375 -1.984375 2.515625 -1.515625 C 3.046875 -1.046875 3.71875 -0.8125 4.53125 -0.8125 C 4.988281 -0.8125 5.410156 -0.890625 5.796875 -1.046875 C 6.179688 -1.210938 6.515625 -1.457031 6.796875 -1.78125 L 7.34375 -1.140625 C 7.019531 -0.742188 6.613281 -0.441406 6.125 -0.234375 C 5.632812 -0.0351562 5.097656 0.0625 4.515625 0.0625 C 3.753906 0.0625 3.082031 -0.09375 2.5 -0.40625 C 1.914062 -0.726562 1.457031 -1.175781 1.125 -1.75 C 0.800781 -2.320312 0.640625 -2.96875 0.640625 -3.6875 C 0.640625 -4.40625 0.796875 -5.046875 1.109375 -5.609375 C 1.421875 -6.179688 1.847656 -6.625 2.390625 -6.9375 C 2.941406 -7.257812 3.554688 -7.421875 4.234375 -7.421875 C 4.921875 -7.421875 5.535156 -7.257812 6.078125 -6.9375 C 6.617188 -6.625 7.039062 -6.1875 7.34375 -5.625 C 7.65625 -5.0625 7.8125 -4.414062 7.8125 -3.6875 Z M 4.234375 -6.5625 C 3.523438 -6.5625 2.929688 -6.332031 2.453125 -5.875 C 1.972656 -5.425781 1.703125 -4.835938 1.640625 -4.109375 L 6.859375 -4.109375 C 6.796875 -4.835938 6.519531 -5.425781 6.03125 -5.875 C 5.550781 -6.332031 4.953125 -6.5625 4.234375 -6.5625 Z M 4.234375 -6.5625 "/></g></g></g><g fill="#ffffff" fill-opacity="1"><g transform="translate(297.111966, 75.688147)"><g><path d="M 3.96875 -7.421875 C 4.925781 -7.421875 5.660156 -7.179688 6.171875 -6.703125 C 6.679688 -6.222656 6.9375 -5.507812 6.9375 -4.5625 L 6.9375 0 L 5.984375 0 L 5.984375 -1.140625 C 5.765625 -0.765625 5.4375 -0.46875 5 -0.25 C 4.570312 -0.0390625 4.054688 0.0625 3.453125 0.0625 C 2.628906 0.0625 1.972656 -0.128906 1.484375 -0.515625 C 1.003906 -0.910156 0.765625 -1.429688 0.765625 -2.078125 C 0.765625 -2.703125 0.988281 -3.203125 1.4375 -3.578125 C 1.894531 -3.960938 2.617188 -4.15625 3.609375 -4.15625 L 5.953125 -4.15625 L 5.953125 -4.609375 C 5.953125 -5.242188 5.773438 -5.722656 5.421875 -6.046875 C 5.066406 -6.378906 4.546875 -6.546875 3.859375 -6.546875 C 3.390625 -6.546875 2.941406 -6.46875 2.515625 -6.3125 C 2.085938 -6.164062 1.71875 -5.957031 1.40625 -5.6875 L 0.96875 -6.421875 C 1.34375 -6.742188 1.789062 -6.988281 2.3125 -7.15625 C 2.832031 -7.332031 3.382812 -7.421875 3.96875 -7.421875 Z M 3.609375 -0.71875 C 4.171875 -0.71875 4.648438 -0.84375 5.046875 -1.09375 C 5.453125 -1.351562 5.753906 -1.726562 5.953125 -2.21875 L 5.953125 -3.421875 L 3.640625 -3.421875 C 2.378906 -3.421875 1.75 -2.976562 1.75 -2.09375 C 1.75 -1.664062 1.910156 -1.328125 2.234375 -1.078125 C 2.566406 -0.835938 3.023438 -0.71875 3.609375 -0.71875 Z M 3.609375 -0.71875 "/></g></g></g><g fill="#ffffff" fill-opacity="1"><g transform="translate(305.367356, 75.688147)"><g><path d="M 3.359375 0.0625 C 2.765625 0.0625 2.191406 -0.0195312 1.640625 -0.1875 C 1.097656 -0.363281 0.671875 -0.582031 0.359375 -0.84375 L 0.8125 -1.625 C 1.125 -1.382812 1.507812 -1.1875 1.96875 -1.03125 C 2.4375 -0.875 2.925781 -0.796875 3.4375 -0.796875 C 4.101562 -0.796875 4.597656 -0.898438 4.921875 -1.109375 C 5.242188 -1.316406 5.40625 -1.613281 5.40625 -2 C 5.40625 -2.269531 5.316406 -2.484375 5.140625 -2.640625 C 4.960938 -2.796875 4.738281 -2.910156 4.46875 -2.984375 C 4.195312 -3.066406 3.835938 -3.144531 3.390625 -3.21875 C 2.785156 -3.332031 2.300781 -3.445312 1.9375 -3.5625 C 1.582031 -3.675781 1.273438 -3.875 1.015625 -4.15625 C 0.753906 -4.4375 0.625 -4.820312 0.625 -5.3125 C 0.625 -5.9375 0.878906 -6.441406 1.390625 -6.828125 C 1.910156 -7.222656 2.628906 -7.421875 3.546875 -7.421875 C 4.015625 -7.421875 4.488281 -7.359375 4.96875 -7.234375 C 5.445312 -7.109375 5.835938 -6.941406 6.140625 -6.734375 L 5.71875 -5.9375 C 5.101562 -6.351562 4.378906 -6.5625 3.546875 -6.5625 C 2.910156 -6.5625 2.429688 -6.445312 2.109375 -6.21875 C 1.785156 -6 1.625 -5.707031 1.625 -5.34375 C 1.625 -5.0625 1.710938 -4.835938 1.890625 -4.671875 C 2.078125 -4.503906 2.304688 -4.378906 2.578125 -4.296875 C 2.847656 -4.222656 3.222656 -4.144531 3.703125 -4.0625 C 4.285156 -3.945312 4.753906 -3.832031 5.109375 -3.71875 C 5.460938 -3.613281 5.765625 -3.425781 6.015625 -3.15625 C 6.265625 -2.882812 6.390625 -2.507812 6.390625 -2.03125 C 6.390625 -1.382812 6.117188 -0.875 5.578125 -0.5 C 5.046875 -0.125 4.304688 0.0625 3.359375 0.0625 Z M 3.359375 0.0625 "/></g></g></g><g fill="#ffffff" fill-opacity="1"><g transform="translate(312.209538, 75.688147)"><g/></g></g><g fill="#ffffff" fill-opacity="1"><g transform="translate(315.875492, 75.688147)"><g><path d="M 1.390625 -7.359375 L 2.375 -7.359375 L 2.375 0 L 1.390625 0 Z M 1.890625 -8.96875 C 1.679688 -8.96875 1.507812 -9.035156 1.375 -9.171875 C 1.238281 -9.316406 1.171875 -9.488281 1.171875 -9.6875 C 1.171875 -9.875 1.238281 -10.035156 1.375 -10.171875 C 1.507812 -10.316406 1.679688 -10.390625 1.890625 -10.390625 C 2.097656 -10.390625 2.269531 -10.320312 2.40625 -10.1875 C 2.550781 -10.050781 2.625 -9.890625 2.625 -9.703125 C 2.625 -9.492188 2.550781 -9.316406 2.40625 -9.171875 C 2.269531 -9.035156 2.097656 -8.96875 1.890625 -8.96875 Z M 1.890625 -8.96875 "/></g></g></g><g fill="#ffffff" fill-opacity="1"><g transform="translate(319.639396, 75.688147)"><g><path d="M 5.140625 -7.421875 C 6.066406 -7.421875 6.800781 -7.148438 7.34375 -6.609375 C 7.882812 -6.078125 8.15625 -5.296875 8.15625 -4.265625 L 8.15625 0 L 7.171875 0 L 7.171875 -4.171875 C 7.171875 -4.929688 6.976562 -5.515625 6.59375 -5.921875 C 6.207031 -6.328125 5.660156 -6.53125 4.953125 -6.53125 C 4.160156 -6.53125 3.53125 -6.289062 3.0625 -5.8125 C 2.601562 -5.34375 2.375 -4.691406 2.375 -3.859375 L 2.375 0 L 1.390625 0 L 1.390625 -7.359375 L 2.34375 -7.359375 L 2.34375 -6 C 2.613281 -6.445312 2.988281 -6.796875 3.46875 -7.046875 C 3.945312 -7.296875 4.503906 -7.421875 5.140625 -7.421875 Z M 5.140625 -7.421875 "/></g></g></g><g fill="#ffffff" fill-opacity="1"><g transform="translate(329.112105, 75.688147)"><g><path d="M 5.265625 -0.453125 C 5.078125 -0.285156 4.84375 -0.15625 4.5625 -0.0625 C 4.289062 0.0195312 4.003906 0.0625 3.703125 0.0625 C 3.015625 0.0625 2.484375 -0.117188 2.109375 -0.484375 C 1.734375 -0.859375 1.546875 -1.390625 1.546875 -2.078125 L 1.546875 -6.53125 L 0.234375 -6.53125 L 0.234375 -7.359375 L 1.546875 -7.359375 L 1.546875 -8.96875 L 2.546875 -8.96875 L 2.546875 -7.359375 L 4.78125 -7.359375 L 4.78125 -6.53125 L 2.546875 -6.53125 L 2.546875 -2.125 C 2.546875 -1.6875 2.65625 -1.351562 2.875 -1.125 C 3.09375 -0.894531 3.410156 -0.78125 3.828125 -0.78125 C 4.023438 -0.78125 4.21875 -0.8125 4.40625 -0.875 C 4.601562 -0.945312 4.769531 -1.039062 4.90625 -1.15625 Z M 5.265625 -0.453125 "/></g></g></g><g fill="#ffffff" fill-opacity="1"><g transform="translate(334.792929, 75.688147)"><g><path d="M 4.390625 0.0625 C 3.679688 0.0625 3.039062 -0.09375 2.46875 -0.40625 C 1.90625 -0.726562 1.457031 -1.175781 1.125 -1.75 C 0.800781 -2.320312 0.640625 -2.96875 0.640625 -3.6875 C 0.640625 -4.40625 0.800781 -5.046875 1.125 -5.609375 C 1.457031 -6.179688 1.90625 -6.625 2.46875 -6.9375 C 3.039062 -7.257812 3.679688 -7.421875 4.390625 -7.421875 C 5.097656 -7.421875 5.738281 -7.257812 6.3125 -6.9375 C 6.882812 -6.625 7.332031 -6.179688 7.65625 -5.609375 C 7.976562 -5.046875 8.140625 -4.40625 8.140625 -3.6875 C 8.140625 -2.96875 7.976562 -2.320312 7.65625 -1.75 C 7.332031 -1.175781 6.882812 -0.726562 6.3125 -0.40625 C 5.738281 -0.09375 5.097656 0.0625 4.390625 0.0625 Z M 4.390625 -0.8125 C 4.921875 -0.8125 5.390625 -0.929688 5.796875 -1.171875 C 6.210938 -1.410156 6.535156 -1.75 6.765625 -2.1875 C 7.003906 -2.625 7.125 -3.125 7.125 -3.6875 C 7.125 -4.238281 7.003906 -4.734375 6.765625 -5.171875 C 6.535156 -5.617188 6.210938 -5.957031 5.796875 -6.1875 C 5.390625 -6.425781 4.921875 -6.546875 4.390625 -6.546875 C 3.867188 -6.546875 3.398438 -6.425781 2.984375 -6.1875 C 2.566406 -5.957031 2.238281 -5.617188 2 -5.171875 C 1.769531 -4.734375 1.65625 -4.238281 1.65625 -3.6875 C 1.65625 -3.125 1.769531 -2.625 2 -2.1875 C 2.238281 -1.75 2.566406 -1.410156 2.984375 -1.171875 C 3.398438 -0.929688 3.867188 -0.8125 4.390625 -0.8125 Z M 4.390625 -0.8125 "/></g></g></g><g fill="#ffffff" fill-opacity="1"><g transform="translate(343.566027, 75.688147)"><g/></g></g><g fill="#ffffff" fill-opacity="1"><g transform="translate(347.231981, 75.688147)"><g><path d="M 1.59375 -9.796875 L 5.59375 -9.796875 C 6.625 -9.796875 7.535156 -9.585938 8.328125 -9.171875 C 9.117188 -8.753906 9.734375 -8.175781 10.171875 -7.4375 C 10.617188 -6.695312 10.84375 -5.851562 10.84375 -4.90625 C 10.84375 -3.945312 10.617188 -3.097656 10.171875 -2.359375 C 9.734375 -1.617188 9.117188 -1.039062 8.328125 -0.625 C 7.535156 -0.207031 6.625 0 5.59375 0 L 1.59375 0 Z M 5.53125 -0.890625 C 6.382812 -0.890625 7.132812 -1.0625 7.78125 -1.40625 C 8.425781 -1.75 8.925781 -2.21875 9.28125 -2.8125 C 9.632812 -3.414062 9.8125 -4.113281 9.8125 -4.90625 C 9.8125 -5.6875 9.632812 -6.375 9.28125 -6.96875 C 8.925781 -7.570312 8.425781 -8.046875 7.78125 -8.390625 C 7.132812 -8.734375 6.382812 -8.90625 5.53125 -8.90625 L 2.625 -8.90625 L 2.625 -0.890625 Z M 5.53125 -0.890625 "/></g></g></g><g fill="#ffffff" fill-opacity="1"><g transform="translate(358.789529, 75.688147)"><g><path d="M 1.390625 -7.359375 L 2.375 -7.359375 L 2.375 0 L 1.390625 0 Z M 1.890625 -8.96875 C 1.679688 -8.96875 1.507812 -9.035156 1.375 -9.171875 C 1.238281 -9.316406 1.171875 -9.488281 1.171875 -9.6875 C 1.171875 -9.875 1.238281 -10.035156 1.375 -10.171875 C 1.507812 -10.316406 1.679688 -10.390625 1.890625 -10.390625 C 2.097656 -10.390625 2.269531 -10.320312 2.40625 -10.1875 C 2.550781 -10.050781 2.625 -9.890625 2.625 -9.703125 C 2.625 -9.492188 2.550781 -9.316406 2.40625 -9.171875 C 2.269531 -9.035156 2.097656 -8.96875 1.890625 -8.96875 Z M 1.890625 -8.96875 "/></g></g></g><g fill="#ffffff" fill-opacity="1"><g transform="translate(362.553434, 75.688147)"><g><path d="M 8.203125 -7.359375 L 8.203125 -0.890625 C 8.203125 0.359375 7.894531 1.28125 7.28125 1.875 C 6.675781 2.476562 5.753906 2.78125 4.515625 2.78125 C 3.835938 2.78125 3.191406 2.679688 2.578125 2.484375 C 1.972656 2.285156 1.476562 2.007812 1.09375 1.65625 L 1.59375 0.890625 C 1.945312 1.210938 2.378906 1.460938 2.890625 1.640625 C 3.398438 1.816406 3.9375 1.90625 4.5 1.90625 C 5.425781 1.90625 6.109375 1.6875 6.546875 1.25 C 6.984375 0.820312 7.203125 0.148438 7.203125 -0.765625 L 7.203125 -1.703125 C 6.898438 -1.242188 6.5 -0.890625 6 -0.640625 C 5.5 -0.398438 4.945312 -0.28125 4.34375 -0.28125 C 3.644531 -0.28125 3.015625 -0.429688 2.453125 -0.734375 C 1.890625 -1.035156 1.445312 -1.457031 1.125 -2 C 0.800781 -2.550781 0.640625 -3.171875 0.640625 -3.859375 C 0.640625 -4.554688 0.800781 -5.175781 1.125 -5.71875 C 1.445312 -6.257812 1.890625 -6.675781 2.453125 -6.96875 C 3.015625 -7.269531 3.644531 -7.421875 4.34375 -7.421875 C 4.96875 -7.421875 5.53125 -7.289062 6.03125 -7.03125 C 6.539062 -6.78125 6.945312 -6.421875 7.25 -5.953125 L 7.25 -7.359375 Z M 4.4375 -1.15625 C 4.96875 -1.15625 5.445312 -1.269531 5.875 -1.5 C 6.3125 -1.726562 6.644531 -2.046875 6.875 -2.453125 C 7.113281 -2.867188 7.234375 -3.335938 7.234375 -3.859375 C 7.234375 -4.378906 7.113281 -4.84375 6.875 -5.25 C 6.644531 -5.65625 6.316406 -5.972656 5.890625 -6.203125 C 5.460938 -6.429688 4.976562 -6.546875 4.4375 -6.546875 C 3.90625 -6.546875 3.425781 -6.429688 3 -6.203125 C 2.570312 -5.984375 2.238281 -5.664062 2 -5.25 C 1.769531 -4.84375 1.65625 -4.378906 1.65625 -3.859375 C 1.65625 -3.335938 1.769531 -2.867188 2 -2.453125 C 2.238281 -2.046875 2.570312 -1.726562 3 -1.5 C 3.425781 -1.269531 3.90625 -1.15625 4.4375 -1.15625 Z M 4.4375 -1.15625 "/></g></g></g><g fill="#ffffff" fill-opacity="1"><g transform="translate(372.152062, 75.688147)"><g><path d="M 1.390625 -7.359375 L 2.375 -7.359375 L 2.375 0 L 1.390625 0 Z M 1.890625 -8.96875 C 1.679688 -8.96875 1.507812 -9.035156 1.375 -9.171875 C 1.238281 -9.316406 1.171875 -9.488281 1.171875 -9.6875 C 1.171875 -9.875 1.238281 -10.035156 1.375 -10.171875 C 1.507812 -10.316406 1.679688 -10.390625 1.890625 -10.390625 C 2.097656 -10.390625 2.269531 -10.320312 2.40625 -10.1875 C 2.550781 -10.050781 2.625 -9.890625 2.625 -9.703125 C 2.625 -9.492188 2.550781 -9.316406 2.40625 -9.171875 C 2.269531 -9.035156 2.097656 -8.96875 1.890625 -8.96875 Z M 1.890625 -8.96875 "/></g></g></g><g fill="#ffffff" fill-opacity="1"><g transform="translate(375.915978, 75.688147)"><g><path d="M 5.265625 -0.453125 C 5.078125 -0.285156 4.84375 -0.15625 4.5625 -0.0625 C 4.289062 0.0195312 4.003906 0.0625 3.703125 0.0625 C 3.015625 0.0625 2.484375 -0.117188 2.109375 -0.484375 C 1.734375 -0.859375 1.546875 -1.390625 1.546875 -2.078125 L 1.546875 -6.53125 L 0.234375 -6.53125 L 0.234375 -7.359375 L 1.546875 -7.359375 L 1.546875 -8.96875 L 2.546875 -8.96875 L 2.546875 -7.359375 L 4.78125 -7.359375 L 4.78125 -6.53125 L 2.546875 -6.53125 L 2.546875 -2.125 C 2.546875 -1.6875 2.65625 -1.351562 2.875 -1.125 C 3.09375 -0.894531 3.410156 -0.78125 3.828125 -0.78125 C 4.023438 -0.78125 4.21875 -0.8125 4.40625 -0.875 C 4.601562 -0.945312 4.769531 -1.039062 4.90625 -1.15625 Z M 5.265625 -0.453125 "/></g></g></g><g fill="#ffffff" fill-opacity="1"><g transform="translate(381.596802, 75.688147)"><g><path d="M 3.96875 -7.421875 C 4.925781 -7.421875 5.660156 -7.179688 6.171875 -6.703125 C 6.679688 -6.222656 6.9375 -5.507812 6.9375 -4.5625 L 6.9375 0 L 5.984375 0 L 5.984375 -1.140625 C 5.765625 -0.765625 5.4375 -0.46875 5 -0.25 C 4.570312 -0.0390625 4.054688 0.0625 3.453125 0.0625 C 2.628906 0.0625 1.972656 -0.128906 1.484375 -0.515625 C 1.003906 -0.910156 0.765625 -1.429688 0.765625 -2.078125 C 0.765625 -2.703125 0.988281 -3.203125 1.4375 -3.578125 C 1.894531 -3.960938 2.617188 -4.15625 3.609375 -4.15625 L 5.953125 -4.15625 L 5.953125 -4.609375 C 5.953125 -5.242188 5.773438 -5.722656 5.421875 -6.046875 C 5.066406 -6.378906 4.546875 -6.546875 3.859375 -6.546875 C 3.390625 -6.546875 2.941406 -6.46875 2.515625 -6.3125 C 2.085938 -6.164062 1.71875 -5.957031 1.40625 -5.6875 L 0.96875 -6.421875 C 1.34375 -6.742188 1.789062 -6.988281 2.3125 -7.15625 C 2.832031 -7.332031 3.382812 -7.421875 3.96875 -7.421875 Z M 3.609375 -0.71875 C 4.171875 -0.71875 4.648438 -0.84375 5.046875 -1.09375 C 5.453125 -1.351562 5.753906 -1.726562 5.953125 -2.21875 L 5.953125 -3.421875 L 3.640625 -3.421875 C 2.378906 -3.421875 1.75 -2.976562 1.75 -2.09375 C 1.75 -1.664062 1.910156 -1.328125 2.234375 -1.078125 C 2.566406 -0.835938 3.023438 -0.71875 3.609375 -0.71875 Z M 3.609375 -0.71875 "/></g></g></g><g fill="#ffffff" fill-opacity="1"><g transform="translate(389.85218, 75.688147)"><g><path d="M 1.390625 -10.390625 L 2.375 -10.390625 L 2.375 0 L 1.390625 0 Z M 1.390625 -10.390625 "/></g></g></g><g fill="#ffffff" fill-opacity="1"><g transform="translate(393.616096, 75.688147)"><g/></g></g><g fill="#ffffff" fill-opacity="1"><g transform="translate(397.28205, 75.688147)"><g><path d="M 8.28125 0 L 6.046875 -3.15625 C 5.796875 -3.125 5.535156 -3.109375 5.265625 -3.109375 L 2.625 -3.109375 L 2.625 0 L 1.59375 0 L 1.59375 -9.796875 L 5.265625 -9.796875 C 6.515625 -9.796875 7.492188 -9.5 8.203125 -8.90625 C 8.910156 -8.3125 9.265625 -7.488281 9.265625 -6.4375 C 9.265625 -5.675781 9.070312 -5.03125 8.6875 -4.5 C 8.300781 -3.96875 7.75 -3.585938 7.03125 -3.359375 L 9.421875 0 Z M 5.234375 -3.984375 C 6.203125 -3.984375 6.941406 -4.195312 7.453125 -4.625 C 7.972656 -5.0625 8.234375 -5.664062 8.234375 -6.4375 C 8.234375 -7.226562 7.972656 -7.835938 7.453125 -8.265625 C 6.941406 -8.691406 6.203125 -8.90625 5.234375 -8.90625 L 2.625 -8.90625 L 2.625 -3.984375 Z M 5.234375 -3.984375 "/></g></g></g><g fill="#ffffff" fill-opacity="1"><g transform="translate(407.398398, 75.688147)"><g><path d="M 7.796875 -3.375 L 1.640625 -3.375 C 1.691406 -2.601562 1.984375 -1.984375 2.515625 -1.515625 C 3.046875 -1.046875 3.71875 -0.8125 4.53125 -0.8125 C 4.988281 -0.8125 5.410156 -0.890625 5.796875 -1.046875 C 6.179688 -1.210938 6.515625 -1.457031 6.796875 -1.78125 L 7.34375 -1.140625 C 7.019531 -0.742188 6.613281 -0.441406 6.125 -0.234375 C 5.632812 -0.0351562 5.097656 0.0625 4.515625 0.0625 C 3.753906 0.0625 3.082031 -0.09375 2.5 -0.40625 C 1.914062 -0.726562 1.457031 -1.175781 1.125 -1.75 C 0.800781 -2.320312 0.640625 -2.96875 0.640625 -3.6875 C 0.640625 -4.40625 0.796875 -5.046875 1.109375 -5.609375 C 1.421875 -6.179688 1.847656 -6.625 2.390625 -6.9375 C 2.941406 -7.257812 3.554688 -7.421875 4.234375 -7.421875 C 4.921875 -7.421875 5.535156 -7.257812 6.078125 -6.9375 C 6.617188 -6.625 7.039062 -6.1875 7.34375 -5.625 C 7.65625 -5.0625 7.8125 -4.414062 7.8125 -3.6875 Z M 4.234375 -6.5625 C 3.523438 -6.5625 2.929688 -6.332031 2.453125 -5.875 C 1.972656 -5.425781 1.703125 -4.835938 1.640625 -4.109375 L 6.859375 -4.109375 C 6.796875 -4.835938 6.519531 -5.425781 6.03125 -5.875 C 5.550781 -6.332031 4.953125 -6.5625 4.234375 -6.5625 Z M 4.234375 -6.5625 "/></g></g></g><g fill="#ffffff" fill-opacity="1"><g transform="translate(415.849676, 75.688147)"><g><path d="M 3.96875 -7.421875 C 4.925781 -7.421875 5.660156 -7.179688 6.171875 -6.703125 C 6.679688 -6.222656 6.9375 -5.507812 6.9375 -4.5625 L 6.9375 0 L 5.984375 0 L 5.984375 -1.140625 C 5.765625 -0.765625 5.4375 -0.46875 5 -0.25 C 4.570312 -0.0390625 4.054688 0.0625 3.453125 0.0625 C 2.628906 0.0625 1.972656 -0.128906 1.484375 -0.515625 C 1.003906 -0.910156 0.765625 -1.429688 0.765625 -2.078125 C 0.765625 -2.703125 0.988281 -3.203125 1.4375 -3.578125 C 1.894531 -3.960938 2.617188 -4.15625 3.609375 -4.15625 L 5.953125 -4.15625 L 5.953125 -4.609375 C 5.953125 -5.242188 5.773438 -5.722656 5.421875 -6.046875 C 5.066406 -6.378906 4.546875 -6.546875 3.859375 -6.546875 C 3.390625 -6.546875 2.941406 -6.46875 2.515625 -6.3125 C 2.085938 -6.164062 1.71875 -5.957031 1.40625 -5.6875 L 0.96875 -6.421875 C 1.34375 -6.742188 1.789062 -6.988281 2.3125 -7.15625 C 2.832031 -7.332031 3.382812 -7.421875 3.96875 -7.421875 Z M 3.609375 -0.71875 C 4.171875 -0.71875 4.648438 -0.84375 5.046875 -1.09375 C 5.453125 -1.351562 5.753906 -1.726562 5.953125 -2.21875 L 5.953125 -3.421875 L 3.640625 -3.421875 C 2.378906 -3.421875 1.75 -2.976562 1.75 -2.09375 C 1.75 -1.664062 1.910156 -1.328125 2.234375 -1.078125 C 2.566406 -0.835938 3.023438 -0.71875 3.609375 -0.71875 Z M 3.609375 -0.71875 "/></g></g></g><g fill="#ffffff" fill-opacity="1"><g transform="translate(424.105077, 75.688147)"><g><path d="M 1.390625 -10.390625 L 2.375 -10.390625 L 2.375 0 L 1.390625 0 Z M 1.390625 -10.390625 "/></g></g></g><g fill="#ffffff" fill-opacity="1"><g transform="translate(427.868993, 75.688147)"><g><path d="M 1.390625 -7.359375 L 2.375 -7.359375 L 2.375 0 L 1.390625 0 Z M 1.890625 -8.96875 C 1.679688 -8.96875 1.507812 -9.035156 1.375 -9.171875 C 1.238281 -9.316406 1.171875 -9.488281 1.171875 -9.6875 C 1.171875 -9.875 1.238281 -10.035156 1.375 -10.171875 C 1.507812 -10.316406 1.679688 -10.390625 1.890625 -10.390625 C 2.097656 -10.390625 2.269531 -10.320312 2.40625 -10.1875 C 2.550781 -10.050781 2.625 -9.890625 2.625 -9.703125 C 2.625 -9.492188 2.550781 -9.316406 2.40625 -9.171875 C 2.269531 -9.035156 2.097656 -8.96875 1.890625 -8.96875 Z M 1.890625 -8.96875 "/></g></g></g><g fill="#ffffff" fill-opacity="1"><g transform="translate(431.632909, 75.688147)"><g><path d="M 5.265625 -0.453125 C 5.078125 -0.285156 4.84375 -0.15625 4.5625 -0.0625 C 4.289062 0.0195312 4.003906 0.0625 3.703125 0.0625 C 3.015625 0.0625 2.484375 -0.117188 2.109375 -0.484375 C 1.734375 -0.859375 1.546875 -1.390625 1.546875 -2.078125 L 1.546875 -6.53125 L 0.234375 -6.53125 L 0.234375 -7.359375 L 1.546875 -7.359375 L 1.546875 -8.96875 L 2.546875 -8.96875 L 2.546875 -7.359375 L 4.78125 -7.359375 L 4.78125 -6.53125 L 2.546875 -6.53125 L 2.546875 -2.125 C 2.546875 -1.6875 2.65625 -1.351562 2.875 -1.125 C 3.09375 -0.894531 3.410156 -0.78125 3.828125 -0.78125 C 4.023438 -0.78125 4.21875 -0.8125 4.40625 -0.875 C 4.601562 -0.945312 4.769531 -1.039062 4.90625 -1.15625 Z M 5.265625 -0.453125 "/></g></g></g><g fill="#ffffff" fill-opacity="1"><g transform="translate(437.313733, 75.688147)"><g><path d="M 1.390625 -7.359375 L 2.375 -7.359375 L 2.375 0 L 1.390625 0 Z M 1.890625 -8.96875 C 1.679688 -8.96875 1.507812 -9.035156 1.375 -9.171875 C 1.238281 -9.316406 1.171875 -9.488281 1.171875 -9.6875 C 1.171875 -9.875 1.238281 -10.035156 1.375 -10.171875 C 1.507812 -10.316406 1.679688 -10.390625 1.890625 -10.390625 C 2.097656 -10.390625 2.269531 -10.320312 2.40625 -10.1875 C 2.550781 -10.050781 2.625 -9.890625 2.625 -9.703125 C 2.625 -9.492188 2.550781 -9.316406 2.40625 -9.171875 C 2.269531 -9.035156 2.097656 -8.96875 1.890625 -8.96875 Z M 1.890625 -8.96875 "/></g></g></g><g fill="#ffffff" fill-opacity="1"><g transform="translate(441.077626, 75.688147)"><g><path d="M 7.796875 -3.375 L 1.640625 -3.375 C 1.691406 -2.601562 1.984375 -1.984375 2.515625 -1.515625 C 3.046875 -1.046875 3.71875 -0.8125 4.53125 -0.8125 C 4.988281 -0.8125 5.410156 -0.890625 5.796875 -1.046875 C 6.179688 -1.210938 6.515625 -1.457031 6.796875 -1.78125 L 7.34375 -1.140625 C 7.019531 -0.742188 6.613281 -0.441406 6.125 -0.234375 C 5.632812 -0.0351562 5.097656 0.0625 4.515625 0.0625 C 3.753906 0.0625 3.082031 -0.09375 2.5 -0.40625 C 1.914062 -0.726562 1.457031 -1.175781 1.125 -1.75 C 0.800781 -2.320312 0.640625 -2.96875 0.640625 -3.6875 C 0.640625 -4.40625 0.796875 -5.046875 1.109375 -5.609375 C 1.421875 -6.179688 1.847656 -6.625 2.390625 -6.9375 C 2.941406 -7.257812 3.554688 -7.421875 4.234375 -7.421875 C 4.921875 -7.421875 5.535156 -7.257812 6.078125 -6.9375 C 6.617188 -6.625 7.039062 -6.1875 7.34375 -5.625 C 7.65625 -5.0625 7.8125 -4.414062 7.8125 -3.6875 Z M 4.234375 -6.5625 C 3.523438 -6.5625 2.929688 -6.332031 2.453125 -5.875 C 1.972656 -5.425781 1.703125 -4.835938 1.640625 -4.109375 L 6.859375 -4.109375 C 6.796875 -4.835938 6.519531 -5.425781 6.03125 -5.875 C 5.550781 -6.332031 4.953125 -6.5625 4.234375 -6.5625 Z M 4.234375 -6.5625 "/></g></g></g><g fill="#ffffff" fill-opacity="1"><g transform="translate(449.528904, 75.688147)"><g><path d="M 3.359375 0.0625 C 2.765625 0.0625 2.191406 -0.0195312 1.640625 -0.1875 C 1.097656 -0.363281 0.671875 -0.582031 0.359375 -0.84375 L 0.8125 -1.625 C 1.125 -1.382812 1.507812 -1.1875 1.96875 -1.03125 C 2.4375 -0.875 2.925781 -0.796875 3.4375 -0.796875 C 4.101562 -0.796875 4.597656 -0.898438 4.921875 -1.109375 C 5.242188 -1.316406 5.40625 -1.613281 5.40625 -2 C 5.40625 -2.269531 5.316406 -2.484375 5.140625 -2.640625 C 4.960938 -2.796875 4.738281 -2.910156 4.46875 -2.984375 C 4.195312 -3.066406 3.835938 -3.144531 3.390625 -3.21875 C 2.785156 -3.332031 2.300781 -3.445312 1.9375 -3.5625 C 1.582031 -3.675781 1.273438 -3.875 1.015625 -4.15625 C 0.753906 -4.4375 0.625 -4.820312 0.625 -5.3125 C 0.625 -5.9375 0.878906 -6.441406 1.390625 -6.828125 C 1.910156 -7.222656 2.628906 -7.421875 3.546875 -7.421875 C 4.015625 -7.421875 4.488281 -7.359375 4.96875 -7.234375 C 5.445312 -7.109375 5.835938 -6.941406 6.140625 -6.734375 L 5.71875 -5.9375 C 5.101562 -6.351562 4.378906 -6.5625 3.546875 -6.5625 C 2.910156 -6.5625 2.429688 -6.445312 2.109375 -6.21875 C 1.785156 -6 1.625 -5.707031 1.625 -5.34375 C 1.625 -5.0625 1.710938 -4.835938 1.890625 -4.671875 C 2.078125 -4.503906 2.304688 -4.378906 2.578125 -4.296875 C 2.847656 -4.222656 3.222656 -4.144531 3.703125 -4.0625 C 4.285156 -3.945312 4.753906 -3.832031 5.109375 -3.71875 C 5.460938 -3.613281 5.765625 -3.425781 6.015625 -3.15625 C 6.265625 -2.882812 6.390625 -2.507812 6.390625 -2.03125 C 6.390625 -1.382812 6.117188 -0.875 5.578125 -0.5 C 5.046875 -0.125 4.304688 0.0625 3.359375 0.0625 Z M 3.359375 0.0625 "/></g></g></g></svg>