<svg width="60" height="30" viewBox="0 0 60 30" fill="none" xmlns="http://www.w3.org/2000/svg">
  <path d="M17.5 10.5L15 15L17.5 19.5L20 15L17.5 10.5Z" fill="white"/>
  <path d="M25 10.5L22.5 15L25 19.5L27.5 15L25 10.5Z" fill="white"/>
  <path d="M32.5 10.5L30 15L32.5 19.5L35 15L32.5 10.5Z" fill="white"/>
  <path d="M40 10.5L37.5 15L40 19.5L42.5 15L40 10.5Z" fill="white"/>
  <path d="M10 15L12.5 19.5L15 15L12.5 10.5L10 15Z" fill="white"/>
  <path d="M45 15L47.5 19.5L50 15L47.5 10.5L45 15Z" fill="white"/>
</svg>

