<svg width="100" height="30" viewBox="0 0 100 30" fill="none" xmlns="http://www.w3.org/2000/svg">
  <path d="M20 5L15 15L10 5L15 20L25 5H20Z" fill="white"/>
  <path d="M30 5L25 15L20 5L25 25L35 5H30Z" fill="white"/>
  <path d="M40 5H45V20H40V5Z" fill="white"/>
  <path d="M50 5H55V20H50V5Z" fill="white"/>
  <path d="M50 5H60V10H50V5Z" fill="white"/>
  <path d="M50 12.5H57.5V17.5H50V12.5Z" fill="white"/>
  <path d="M65 5H70V20H65V5Z" fill="white"/>
  <path d="M65 5H75V10H65V5Z" fill="white"/>
  <path d="M80 5H85V20H80V5Z" fill="white"/>
  <path d="M90 5H95V20H90V5Z" fill="white"/>
  <path d="M90 5H100V10H90V5Z" fill="white"/>
  <path d="M90 12.5H97.5V17.5H90V12.5Z" fill="white"/>
</svg>

