<svg width="120" height="30" viewBox="0 0 120 30" fill="none" xmlns="http://www.w3.org/2000/svg">
  <ellipse cx="20" cy="15" rx="10" ry="4" stroke="white" stroke-width="1.5"/>
  <ellipse cx="20" cy="15" rx="10" ry="4" transform="rotate(60 20 15)" stroke="white" stroke-width="1.5"/>
  <ellipse cx="20" cy="15" rx="10" ry="4" transform="rotate(120 20 15)" stroke="white" stroke-width="1.5"/>
  <circle cx="20" cy="15" r="2" fill="white"/>
  <path d="M35 10H40V20H35V10Z" fill="white"/>
  <path d="M45 10H55V12.5H45V10Z" fill="white"/>
  <path d="M45 13.75H52.5V16.25H45V13.75Z" fill="white"/>
  <path d="M45 17.5H55V20H45V17.5Z" fill="white"/>
  <path d="M60 10H65V20H60V10Z" fill="white"/>
  <path d="M70 10H75V20H70V10Z" fill="white"/>
  <path d="M70 10H80V12.5H70V10Z" fill="white"/>
  <path d="M85 10H90V20H85V10Z" fill="white"/>
  <path d="M95 10H100V20H95V10Z" fill="white"/>
  <path d="M95 10H105V12.5H95V10Z" fill="white"/>
  <path d="M95 13.75H102.5V16.25H95V13.75Z" fill="white"/>
</svg>

