<svg xmlns="http://www.w3.org/2000/svg" xmlns:xlink="http://www.w3.org/1999/xlink" width="500" zoomAndPan="magnify" viewBox="0 0 375 374.999991" height="500" preserveAspectRatio="xMidYMid meet" version="1.0"><defs><clipPath id="26194357b4"><path d="M 0 0 L 375 0 L 375 367.761719 L 0 367.761719 Z M 0 0 " clip-rule="nonzero"/></clipPath><clipPath id="bc084719a1"><path d="M 15.75 0 L 359.25 0 C 363.425781 0 367.433594 1.660156 370.386719 4.613281 C 373.339844 7.566406 375 11.574219 375 15.75 L 375 352.011719 C 375 356.1875 373.339844 360.195312 370.386719 363.148438 C 367.433594 366.101562 363.425781 367.761719 359.25 367.761719 L 15.75 367.761719 C 11.574219 367.761719 7.566406 366.101562 4.613281 363.148438 C 1.660156 360.195312 0 356.1875 0 352.011719 L 0 15.75 C 0 11.574219 1.660156 7.566406 4.613281 4.613281 C 7.566406 1.660156 11.574219 0 15.75 0 Z M 15.75 0 " clip-rule="nonzero"/></clipPath><clipPath id="cc016354a7"><path d="M 93.75 55.015625 L 281.65625 55.015625 L 281.65625 311.519531 L 93.75 311.519531 Z M 93.75 55.015625 " clip-rule="nonzero"/></clipPath></defs><g clip-path="url(#26194357b4)"><g clip-path="url(#bc084719a1)"><path fill="#c71f1f" d="M 0 0 L 374.945312 0 L 374.945312 367.761719 L 0 367.761719 Z M 0 0 " fill-opacity="1" fill-rule="nonzero"/></g></g><g clip-path="url(#cc016354a7)"><path fill="#ffffff" d="M 118.078125 120.976562 C 118.4375 120.566406 118.746094 120.253906 119.109375 119.894531 L 119.109375 247.851562 C 103.390625 231.050781 93.804688 208.582031 93.804688 183.847656 C 93.804688 159.679688 103.03125 137.621094 118.078125 120.976562 Z M 281.179688 183.847656 C 281.179688 159.113281 271.59375 136.644531 255.878906 119.84375 L 255.878906 247.800781 C 256.238281 247.4375 256.546875 247.078125 256.855469 246.71875 C 272.007812 230.074219 281.179688 208.015625 281.179688 183.847656 Z M 153.996094 106.652344 L 217.589844 193.226562 L 217.589844 106.652344 L 240.519531 106.652344 C 225.421875 96.242188 207.128906 90.160156 187.441406 90.160156 C 180.328125 90.160156 173.425781 90.933594 166.777344 92.480469 L 116.066406 55.015625 L 148.226562 98.765625 Z M 226.453125 269.03125 L 220.9375 261.558594 L 157.398438 174.675781 L 157.398438 175.191406 L 156.832031 174.46875 L 157.398438 175.550781 L 157.398438 261.558594 L 135.136719 261.558594 C 150.078125 271.660156 168.117188 277.585938 187.492188 277.585938 C 194.449219 277.585938 201.199219 276.8125 207.746094 275.371094 L 258.402344 312.730469 L 226.347656 269.132812 C 226.402344 269.082031 226.453125 269.03125 226.453125 269.03125 Z M 226.453125 269.03125 " fill-opacity="1" fill-rule="nonzero"/></g></svg>